%TF.GenerationSoftware,KiCad,Pcbnew,6.0.0*%
%TF.CreationDate,2022-01-14T14:38:34+01:00*%
%TF.ProjectId,PowerBank V0.2,506f7765-7242-4616-9e6b-2056302e322e,rev?*%
%TF.SameCoordinates,PX2aea540PY80befc0*%
%TF.FileFunction,Copper,L4,Inr*%
%TF.FilePolarity,Positive*%
%FSLAX46Y46*%
G04 Gerber Fmt 4.6, Leading zero omitted, Abs format (unit mm)*
G04 Created by KiCad (PCBNEW 6.0.0) date 2022-01-14 14:38:34*
%MOMM*%
%LPD*%
G01*
G04 APERTURE LIST*
%TA.AperFunction,ComponentPad*%
%ADD10R,1.000000X1.000000*%
%TD*%
%TA.AperFunction,ComponentPad*%
%ADD11O,1.000000X1.000000*%
%TD*%
%TA.AperFunction,ComponentPad*%
%ADD12C,1.400000*%
%TD*%
%TA.AperFunction,ComponentPad*%
%ADD13R,3.000000X3.000000*%
%TD*%
%TA.AperFunction,ComponentPad*%
%ADD14C,3.000000*%
%TD*%
%TA.AperFunction,ComponentPad*%
%ADD15C,0.800000*%
%TD*%
%TA.AperFunction,ComponentPad*%
%ADD16C,5.000000*%
%TD*%
%TA.AperFunction,ComponentPad*%
%ADD17C,0.400000*%
%TD*%
%TA.AperFunction,ComponentPad*%
%ADD18C,0.499999*%
%TD*%
%TA.AperFunction,ComponentPad*%
%ADD19C,2.000000*%
%TD*%
%TA.AperFunction,ComponentPad*%
%ADD20R,2.000000X2.000000*%
%TD*%
%TA.AperFunction,ComponentPad*%
%ADD21C,0.650000*%
%TD*%
%TA.AperFunction,ComponentPad*%
%ADD22O,1.000000X2.000000*%
%TD*%
%TA.AperFunction,ComponentPad*%
%ADD23R,1.700000X1.700000*%
%TD*%
%TA.AperFunction,ComponentPad*%
%ADD24O,1.700000X1.700000*%
%TD*%
%TA.AperFunction,ViaPad*%
%ADD25C,0.400000*%
%TD*%
%TA.AperFunction,ViaPad*%
%ADD26C,0.800000*%
%TD*%
%TA.AperFunction,Conductor*%
%ADD27C,0.200000*%
%TD*%
%TA.AperFunction,Conductor*%
%ADD28C,0.381000*%
%TD*%
%TA.AperFunction,Conductor*%
%ADD29C,0.250000*%
%TD*%
%TA.AperFunction,Conductor*%
%ADD30C,0.500000*%
%TD*%
%TA.AperFunction,Conductor*%
%ADD31C,0.203200*%
%TD*%
%TA.AperFunction,Conductor*%
%ADD32C,0.139700*%
%TD*%
G04 APERTURE END LIST*
D10*
%TO.N,Net-(C123-Pad1)*%
%TO.C,EN*%
X104225000Y32130000D03*
D11*
%TO.N,LDO_3.3V*%
X105495000Y32130000D03*
%TD*%
D10*
%TO.N,+3V3*%
%TO.C,3v3*%
X2244000Y50799000D03*
D11*
%TO.N,Net-(C254-Pad1)*%
X2244000Y49529000D03*
%TD*%
D10*
%TO.N,+3V3*%
%TO.C,IO8*%
X2244000Y53197000D03*
D11*
%TO.N,Net-(IC1-Pad22)*%
X2244000Y54467000D03*
%TD*%
D10*
%TO.N,Net-(C254-Pad1)*%
%TO.C,EN*%
X2498000Y19318000D03*
D11*
%TO.N,Net-(IC1-Pad8)*%
X2498000Y18048000D03*
%TD*%
D10*
%TO.N,GND*%
%TO.C,IO9*%
X2498000Y21716000D03*
D11*
%TO.N,Net-(IC1-Pad23)*%
X2498000Y22986000D03*
%TD*%
D12*
%TO.N,*%
%TO.C,J14*%
X188520000Y15445000D03*
X188520000Y2445000D03*
D13*
%TO.N,+BATT*%
X178520000Y12445000D03*
D14*
%TO.N,/power/MR2*%
X178520000Y8945000D03*
%TO.N,GND*%
X178520000Y5445000D03*
%TD*%
D15*
%TO.N,/WirelessPower/SW_BRG2*%
%TO.C,H2*%
X4712825Y80191825D03*
X3387000Y80741000D03*
X2061175Y80191825D03*
X1512000Y78866000D03*
X2061175Y77540175D03*
X3387000Y76991000D03*
X4712825Y77540175D03*
X5262000Y78866000D03*
D16*
X3387000Y78866000D03*
%TD*%
D15*
%TO.N,/WirelessPower/VCOIL*%
%TO.C,H1*%
X4458825Y66475825D03*
X3133000Y67025000D03*
X1807175Y66475825D03*
X1258000Y65150000D03*
X1807175Y63824175D03*
X3133000Y63275000D03*
X4458825Y63824175D03*
X5008000Y65150000D03*
D16*
X3133000Y65150000D03*
%TD*%
D10*
%TO.N,/BQ1/SPI_SS*%
%TO.C,FLASH*%
X106000000Y29000000D03*
D11*
%TO.N,/BQ1/SPI_CLK*%
X107270000Y29000000D03*
%TO.N,Net-(C123-Pad1)*%
X106000000Y27730000D03*
%TO.N,/BQ1/SPI_MOSI*%
X107270000Y27730000D03*
%TO.N,GND*%
X106000000Y26460000D03*
%TO.N,/BQ1/SPI_MISO*%
X107270000Y26460000D03*
%TD*%
D10*
%TO.N,+5V*%
%TO.C,J12*%
X126700000Y81670000D03*
D11*
%TO.N,/SDA2*%
X127970000Y81670000D03*
%TO.N,+3V3*%
X126700000Y80400000D03*
%TO.N,/SCL2*%
X127970000Y80400000D03*
%TO.N,GND*%
X126700000Y79130000D03*
%TO.N,/DISP*%
X127970000Y79130000D03*
%TD*%
D10*
%TO.N,Net-(J10-Pad2)*%
%TO.C,J11*%
X41050000Y73100000D03*
D11*
%TO.N,+5V*%
X41050000Y74370000D03*
%TD*%
D10*
%TO.N,+5V*%
%TO.C,J10*%
X37850000Y74450000D03*
D11*
%TO.N,Net-(J10-Pad2)*%
X37850000Y73180000D03*
%TD*%
D17*
%TO.N,/PC15*%
%TO.C,Y1*%
X138050000Y8200000D03*
%TO.N,/PC14*%
X137350000Y8200000D03*
%TD*%
D18*
%TO.N,N/C*%
%TO.C,U35*%
X64100001Y38800000D03*
X63000004Y38800000D03*
%TD*%
%TO.N,N/C*%
%TO.C,U34*%
X25250001Y36000000D03*
X24150004Y36000000D03*
%TD*%
%TO.N,N/C*%
%TO.C,U33*%
X113550001Y39000000D03*
X112450004Y39000000D03*
%TD*%
%TO.N,N/C*%
%TO.C,U32*%
X152050001Y38500000D03*
X150950004Y38500000D03*
%TD*%
%TO.N,N/C*%
%TO.C,U26*%
X135200000Y38200000D03*
X134050000Y39350000D03*
X134050000Y38200000D03*
X134050000Y37050000D03*
X132900000Y38200000D03*
%TD*%
%TO.N,N/C*%
%TO.C,U25*%
X100399999Y16200000D03*
X100399999Y15250000D03*
X102150000Y16200000D03*
X102150000Y15250000D03*
X101275001Y15250000D03*
X101275001Y16200000D03*
X99800000Y19850001D03*
X98480000Y19850001D03*
X99800000Y18675400D03*
X97300000Y18650000D03*
X98480000Y18650000D03*
X98480000Y17450000D03*
X99800000Y17450000D03*
X101120000Y17450000D03*
X101120000Y18650000D03*
X102300000Y18650000D03*
X101120000Y19850001D03*
X98350000Y16200000D03*
X98350000Y15250000D03*
X97475001Y15250000D03*
X97475001Y16200000D03*
X99225002Y15250000D03*
X99225002Y16200000D03*
%TD*%
%TO.N,N/C*%
%TO.C,U23*%
X86450000Y38900000D03*
X85300000Y40050000D03*
X85300000Y38900000D03*
X85300000Y37750000D03*
X84150000Y38900000D03*
%TD*%
%TO.N,N/C*%
%TO.C,U13*%
X173550000Y38200000D03*
X172400000Y39350000D03*
X172400000Y38200000D03*
X172400000Y37050000D03*
X171250000Y38200000D03*
%TD*%
D19*
%TO.N,/RESET*%
%TO.C,S1*%
X134500000Y83000000D03*
X141000000Y83000000D03*
%TO.N,GND*%
X134500000Y78500000D03*
D20*
X141000000Y78500000D03*
%TD*%
D21*
%TO.N,GND*%
%TO.C,J9*%
X93050000Y6050000D03*
%TO.N,unconnected-(J9-PadB2)*%
X92400000Y5350000D03*
%TO.N,unconnected-(J9-PadB3)*%
X91600000Y5350000D03*
%TO.N,/BQ1/VBUS2*%
X91200000Y6050000D03*
%TO.N,/BQ1/C2.2*%
X90800000Y5350000D03*
%TO.N,/BQ1/DP2*%
X90400000Y6050000D03*
%TO.N,/BQ1/DN2*%
X89600000Y6050000D03*
%TO.N,unconnected-(J9-PadB8)*%
X89200000Y5350000D03*
%TO.N,/BQ1/VBUS2*%
X88800000Y6050000D03*
%TO.N,unconnected-(J9-PadB10)*%
X88400000Y5350000D03*
%TO.N,unconnected-(J9-PadB11)*%
X87600000Y5350000D03*
%TO.N,GND*%
X86950000Y6050000D03*
D22*
X85500000Y6850000D03*
X94500000Y6850000D03*
X85500000Y1250000D03*
X94500000Y1250000D03*
%TD*%
D21*
%TO.N,GND*%
%TO.C,J8*%
X113050000Y6050000D03*
%TO.N,unconnected-(J8-PadB2)*%
X112400000Y5350000D03*
%TO.N,unconnected-(J8-PadB3)*%
X111600000Y5350000D03*
%TO.N,/BQ1/VBUS1*%
X111200000Y6050000D03*
%TO.N,/BQ1/C1.2*%
X110800000Y5350000D03*
%TO.N,/BQ1/DP1*%
X110400000Y6050000D03*
%TO.N,/BQ1/DN1*%
X109600000Y6050000D03*
%TO.N,unconnected-(J8-PadB8)*%
X109200000Y5350000D03*
%TO.N,/BQ1/VBUS1*%
X108800000Y6050000D03*
%TO.N,unconnected-(J8-PadB10)*%
X108400000Y5350000D03*
%TO.N,unconnected-(J8-PadB11)*%
X107600000Y5350000D03*
%TO.N,GND*%
X106950000Y6050000D03*
D22*
X105500000Y6850000D03*
X114500000Y6850000D03*
X105500000Y1250000D03*
X114500000Y1250000D03*
%TD*%
D21*
%TO.N,GND*%
%TO.C,J7*%
X168050000Y6050000D03*
%TO.N,unconnected-(J7-PadB2)*%
X167400000Y5350000D03*
%TO.N,unconnected-(J7-PadB3)*%
X166600000Y5350000D03*
%TO.N,VIN4*%
X166200000Y6050000D03*
%TO.N,unconnected-(J7-PadB5)*%
X165800000Y5350000D03*
%TO.N,/D+*%
X165400000Y6050000D03*
%TO.N,/D-*%
X164600000Y6050000D03*
%TO.N,unconnected-(J7-PadB8)*%
X164200000Y5350000D03*
%TO.N,VIN4*%
X163800000Y6050000D03*
%TO.N,unconnected-(J7-PadB10)*%
X163400000Y5350000D03*
%TO.N,unconnected-(J7-PadB11)*%
X162600000Y5350000D03*
%TO.N,GND*%
X161950000Y6050000D03*
D22*
X160500000Y6850000D03*
X169500000Y6850000D03*
X160500000Y1250000D03*
X169500000Y1250000D03*
%TD*%
D14*
%TO.N,GND*%
%TO.C,J6*%
X178500000Y22026000D03*
%TO.N,/power/MR1*%
X178500000Y25526000D03*
D13*
%TO.N,+BATT*%
X178500000Y29026000D03*
D12*
%TO.N,*%
X188500000Y19026000D03*
X188500000Y32026000D03*
%TD*%
D23*
%TO.N,+3V3*%
%TO.C,J5*%
X148300000Y28200000D03*
D24*
%TO.N,/TX*%
X148300000Y25660000D03*
%TO.N,/RX*%
X148300000Y23120000D03*
%TO.N,GND*%
X148300000Y20580000D03*
%TD*%
D10*
%TO.N,+5V*%
%TO.C,J4*%
X104400000Y48850000D03*
D11*
X105670000Y48850000D03*
%TO.N,+3V3*%
X104400000Y47580000D03*
X105670000Y47580000D03*
%TO.N,/INT4*%
X104400000Y46310000D03*
%TO.N,/INT3*%
X105670000Y46310000D03*
%TO.N,/OTG2*%
X104400000Y45040000D03*
%TO.N,/OTG3*%
X105670000Y45040000D03*
%TO.N,/SDA*%
X104400000Y43770000D03*
%TO.N,/SCL*%
X105670000Y43770000D03*
%TO.N,GND*%
X104400000Y42500000D03*
X105670000Y42500000D03*
%TO.N,/SDA*%
X104400000Y41230000D03*
%TO.N,/SCL*%
X105670000Y41230000D03*
%TO.N,/OTG2*%
X104400000Y39960000D03*
%TO.N,/OTG3*%
X105670000Y39960000D03*
%TO.N,/INT4*%
X104400000Y38690000D03*
%TO.N,/INT3*%
X105670000Y38690000D03*
%TO.N,+3V3*%
X104400000Y37420000D03*
X105670000Y37420000D03*
%TO.N,+5V*%
X104400000Y36150000D03*
X105670000Y36150000D03*
%TD*%
D23*
%TO.N,+3V3*%
%TO.C,J3*%
X141800000Y26500000D03*
D24*
X144340000Y26500000D03*
%TO.N,Net-(J3-Pad3)*%
X141800000Y23960000D03*
%TO.N,Net-(J3-Pad4)*%
X144340000Y23960000D03*
%TO.N,GND*%
X141800000Y21420000D03*
X144340000Y21420000D03*
%TD*%
D18*
%TO.N,N/C*%
%TO.C,U2*%
X48575081Y36899916D03*
X47425081Y38049916D03*
X47425081Y36899916D03*
X47425081Y35749916D03*
X46275081Y36899916D03*
%TD*%
D21*
%TO.N,GND*%
%TO.C,J1*%
X38050000Y6050000D03*
%TO.N,unconnected-(J1-PadB2)*%
X37400000Y5350000D03*
%TO.N,unconnected-(J1-PadB3)*%
X36600000Y5350000D03*
%TO.N,VIN1*%
X36200000Y6050000D03*
%TO.N,unconnected-(J1-PadB5)*%
X35800000Y5350000D03*
%TO.N,unconnected-(J1-PadB6)*%
X35400000Y6050000D03*
%TO.N,unconnected-(J1-PadB7)*%
X34600000Y6050000D03*
%TO.N,unconnected-(J1-PadB8)*%
X34200000Y5350000D03*
%TO.N,VIN1*%
X33800000Y6050000D03*
%TO.N,unconnected-(J1-PadB10)*%
X33400000Y5350000D03*
%TO.N,unconnected-(J1-PadB11)*%
X32600000Y5350000D03*
%TO.N,GND*%
X31950000Y6050000D03*
D22*
X30500000Y6850000D03*
X39500000Y6850000D03*
X30500000Y1250000D03*
X39500000Y1250000D03*
%TD*%
D25*
%TO.N,Net-(C254-Pad1)*%
X2117000Y33286000D03*
%TO.N,+3V3*%
X151469000Y7746000D03*
X172297000Y8254000D03*
%TO.N,/SDA2*%
X171535000Y9524000D03*
X147405000Y12953000D03*
%TO.N,/SCL2*%
X173440000Y25780000D03*
X147151000Y12318000D03*
%TO.N,/WirelessPower/VCOIL*%
X28279000Y62606000D03*
X7451000Y67309000D03*
%TO.N,/WirelessPower/3v3*%
X22564000Y76580000D03*
%TO.N,GND*%
X4784000Y26161000D03*
X8848000Y33781000D03*
X10753000Y33781000D03*
X12531000Y33781000D03*
X12531000Y31876000D03*
X10499000Y31876000D03*
X8594000Y31876000D03*
X8721000Y29971000D03*
X10626000Y29971000D03*
X12658000Y29971000D03*
%TO.N,/WirelessPower/V_BRIDGE*%
X14055000Y74802000D03*
X14055000Y74294000D03*
X14055000Y73786000D03*
X14690000Y73786000D03*
X14690000Y74294000D03*
X14690000Y74802000D03*
X15579000Y64896000D03*
X16849000Y64896000D03*
X16214000Y64515000D03*
%TO.N,GND*%
X16849000Y68325000D03*
X16849000Y67817000D03*
X16214000Y68325000D03*
X16214000Y67817000D03*
%TO.N,Net-(R132-Pad2)*%
X16595000Y72389000D03*
%TO.N,/WirelessPower/V_BRIDGE*%
X19516000Y63245000D03*
%TO.N,/WirelessPower/CSN*%
X24850000Y65531000D03*
%TO.N,/WirelessPower/CSP*%
X25739000Y66801000D03*
%TO.N,+BATT*%
X20278000Y61975000D03*
X19135000Y61975000D03*
X18373000Y62229000D03*
%TO.N,/WirelessPower/vcoil_ov*%
X22818000Y74294000D03*
%TO.N,/WirelessPower/V_BRIDGE*%
X20265000Y65023000D03*
X22310000Y65912000D03*
%TO.N,/WirelessPower/5V*%
X21675000Y65912000D03*
%TO.N,/WirelessPower/ISNS_OUT*%
X24469000Y64515000D03*
X22183000Y60070000D03*
%TO.N,GND*%
X24469000Y62229000D03*
%TO.N,Net-(R130-Pad2)*%
X13674000Y60578000D03*
X21040000Y64515000D03*
%TO.N,/WirelessPower/SW_BRG2*%
X18627000Y69087000D03*
X17611000Y71386000D03*
%TO.N,Net-(R133-Pad2)*%
X18246000Y68579000D03*
%TO.N,Net-(R132-Pad2)*%
X18754000Y70230000D03*
%TO.N,Net-(R133-Pad2)*%
X16595000Y81533000D03*
%TO.N,/WirelessPower/5V*%
X28152000Y71373000D03*
X31949000Y69341000D03*
%TO.N,/WirelessPower/1v8*%
X27804383Y71876095D03*
%TO.N,+BATT*%
X28158535Y68791203D03*
%TO.N,Net-(R127-Pad1)*%
X27390000Y67690000D03*
%TO.N,/TX1*%
X56125000Y2650000D03*
%TO.N,GND*%
X89100000Y12500000D03*
X90025000Y12475000D03*
X90000000Y13400000D03*
X109090000Y13330000D03*
X109980000Y13340000D03*
X109960000Y14140000D03*
X109100000Y14140000D03*
X71500000Y79000000D03*
D26*
X41100000Y37800000D03*
X24000000Y14500000D03*
X25500000Y14500000D03*
X27000000Y14500000D03*
X27000000Y13000000D03*
X25500000Y13000000D03*
X24000000Y13000000D03*
X24000000Y11500000D03*
X25500000Y11500000D03*
X27000000Y11500000D03*
X27000000Y10000000D03*
X25500000Y10000000D03*
X24000000Y10000000D03*
X24000000Y8500000D03*
X25500000Y8500000D03*
X27000000Y8500000D03*
X25000000Y60000000D03*
X26500000Y60000000D03*
X28000000Y60000000D03*
X29500000Y60000000D03*
X29500000Y58500000D03*
X28000000Y58500000D03*
X26500000Y58500000D03*
X25000000Y58500000D03*
X25000000Y57000000D03*
X26500000Y57000000D03*
X28000000Y57000000D03*
X29500000Y57000000D03*
X29500000Y55500000D03*
X28000000Y55500000D03*
X26500000Y55500000D03*
X25000000Y55500000D03*
X25000000Y54000000D03*
X26500000Y54000000D03*
X28000000Y54000000D03*
X29500000Y54000000D03*
X21500000Y47500000D03*
X23000000Y47500000D03*
X24500000Y47500000D03*
X24500000Y46000000D03*
X23000000Y46000000D03*
X21500000Y46000000D03*
X21500000Y44500000D03*
X23000000Y44500000D03*
X24500000Y44500000D03*
X22000000Y24000000D03*
X23500000Y24000000D03*
X25000000Y24000000D03*
X25000000Y22500000D03*
X23500000Y22500000D03*
X22000000Y22500000D03*
X115500000Y15500000D03*
X117000000Y15500000D03*
X118500000Y15500000D03*
X118500000Y14000000D03*
X117000000Y14000000D03*
X115500000Y14000000D03*
X115500000Y12500000D03*
X117000000Y12500000D03*
X118500000Y12500000D03*
X116000000Y24000000D03*
X116000000Y22500000D03*
X116020000Y20860000D03*
X117520000Y20870000D03*
X117500000Y24000000D03*
X114500000Y24000000D03*
X114500000Y22500000D03*
X114510000Y20840000D03*
X113000000Y24000000D03*
X113000000Y22500000D03*
X113020000Y20830000D03*
X111500000Y50500000D03*
X113000000Y50500000D03*
X114500000Y50500000D03*
X114500000Y49000000D03*
X113000000Y49000000D03*
X111500000Y49000000D03*
X110000000Y50500000D03*
X110000000Y49000000D03*
X110000000Y53500000D03*
X111500000Y53500000D03*
X113000000Y53500000D03*
X114500000Y53500000D03*
X114500000Y55000000D03*
X113000000Y55000000D03*
X111500000Y55000000D03*
X110000000Y55000000D03*
X114500000Y56500000D03*
X113000000Y56500000D03*
X140000000Y62500000D03*
X140000000Y61000000D03*
X140000000Y59500000D03*
X141500000Y59500000D03*
X141500000Y61000000D03*
X141500000Y62500000D03*
X143000000Y62500000D03*
X143000000Y61000000D03*
X143000000Y59500000D03*
X134000000Y64500000D03*
X134000000Y66450000D03*
X112500000Y65500000D03*
D25*
X106725000Y19850000D03*
X147550000Y7900000D03*
X142700000Y17300000D03*
X141500000Y11000000D03*
X93950000Y21100000D03*
X94650000Y18000000D03*
X106700000Y17875000D03*
X136575000Y14275000D03*
D26*
X113000000Y58000000D03*
X114500000Y58000000D03*
X114500000Y59500000D03*
X113000000Y59500000D03*
X114500000Y61000000D03*
X113000000Y61000000D03*
D25*
X89100001Y13399999D03*
X132550000Y9250000D03*
X137125000Y8675000D03*
X74125000Y79375000D03*
X74150000Y78775000D03*
X74825000Y79400000D03*
X74850000Y78800000D03*
X83600000Y77325000D03*
X151300000Y2950000D03*
D26*
X66500000Y15000000D03*
X68500000Y15000000D03*
X68500000Y13500000D03*
X66500000Y13500000D03*
X66500000Y6500000D03*
X68500000Y6500000D03*
X66500000Y5000000D03*
X68500000Y5000000D03*
X68500000Y3500000D03*
X66500000Y3500000D03*
X63000000Y28000000D03*
X64500000Y28000000D03*
X64500000Y26500000D03*
X63000000Y26500000D03*
X61000000Y48000000D03*
X62500000Y48000000D03*
X62500000Y46500000D03*
X61000000Y46500000D03*
X66500000Y63000000D03*
X69500000Y63000000D03*
X69500000Y60500000D03*
X66500000Y60500000D03*
X66500000Y58000000D03*
X69500000Y58000000D03*
X63000000Y63000000D03*
X63000000Y60500000D03*
X63000000Y58000000D03*
X150500000Y61000000D03*
X152500000Y61000000D03*
X154500000Y61000000D03*
X154500000Y59000000D03*
X152500000Y59000000D03*
X150500000Y59000000D03*
X150500000Y57000000D03*
X152500000Y57000000D03*
X154500000Y57000000D03*
X150500000Y75500000D03*
X152500000Y75500000D03*
X152500000Y73500000D03*
X150500000Y73500000D03*
X154500000Y26000000D03*
X151500000Y26000000D03*
X156000000Y15500000D03*
X158000000Y15500000D03*
X156000000Y17000000D03*
X158000000Y17000000D03*
X172000000Y13500000D03*
X172000000Y15500000D03*
X174500000Y24500000D03*
X174500000Y22500000D03*
X174500000Y20500000D03*
X174000000Y62500000D03*
X174000000Y69000000D03*
X174000000Y70500000D03*
X172500000Y70500000D03*
X172500000Y69000000D03*
X150500000Y55000000D03*
X152500000Y55000000D03*
X154500000Y55000000D03*
X41500000Y12900000D03*
X41500000Y14200000D03*
X41500000Y15400000D03*
X42800000Y15400000D03*
X42800000Y14200000D03*
X42900000Y12900000D03*
D25*
X77250000Y38050000D03*
D26*
%TO.N,VIN1*%
X33500000Y14000000D03*
X35000000Y14000000D03*
X35000000Y13000000D03*
X33500000Y13000000D03*
X33500000Y12000000D03*
X35000000Y12000000D03*
X35000000Y11000000D03*
X33500000Y11000000D03*
X33500000Y10000000D03*
X35000000Y10000000D03*
X35000000Y9000000D03*
X33500000Y9000000D03*
%TO.N,GNDA*%
X141300000Y38200000D03*
%TO.N,GND*%
X54600000Y37000000D03*
X55000000Y41300000D03*
X51300000Y31700000D03*
%TO.N,GNDA*%
X141800000Y42800000D03*
X135900000Y29300000D03*
X180300000Y38300000D03*
X180600000Y42000000D03*
X174700000Y30400000D03*
X87900000Y30890000D03*
X93400000Y42550000D03*
X92900000Y38000000D03*
%TO.N,Net-(C12-Pad1)*%
X46600000Y28100000D03*
%TO.N,Net-(C14-Pad1)*%
X45600000Y28200000D03*
D25*
%TO.N,Net-(C21-Pad2)*%
X43180000Y36480000D03*
D26*
X27650000Y26550000D03*
%TO.N,Net-(C22-Pad1)*%
X42200000Y31600000D03*
X43200000Y31600000D03*
X43200000Y32600000D03*
X42200000Y32600000D03*
%TO.N,Net-(C23-Pad1)*%
X42000000Y43000000D03*
X43500000Y43000000D03*
X43500000Y42000000D03*
X42000000Y42000000D03*
D25*
%TO.N,Net-(C24-Pad1)*%
X44300000Y38300000D03*
D26*
X27700000Y49800000D03*
%TO.N,Net-(C27-Pad1)*%
X36500000Y59000000D03*
X37500000Y59000000D03*
X38500000Y59000000D03*
X39500000Y59000000D03*
X39500000Y58000000D03*
X38500000Y58000000D03*
X37500000Y58000000D03*
X36500000Y58000000D03*
X36500000Y57000000D03*
X37500000Y57000000D03*
X38500000Y57000000D03*
X39500000Y57000000D03*
X39500000Y56000000D03*
X38500000Y56000000D03*
X37500000Y56000000D03*
X36500000Y56000000D03*
%TO.N,+BATT*%
X42000000Y67500000D03*
X44000000Y67500000D03*
X44000000Y66000000D03*
X42000000Y66000000D03*
X42000000Y64500000D03*
X44000000Y64500000D03*
X44000000Y63000000D03*
X44000000Y61500000D03*
X44000000Y60000000D03*
X44000000Y58500000D03*
X42000000Y58500000D03*
X42000000Y60000000D03*
X42000000Y61500000D03*
X42000000Y63000000D03*
X42000000Y57000000D03*
X44000000Y57000000D03*
X42000000Y55500000D03*
X44000000Y55500000D03*
X44000000Y54500000D03*
X42000000Y54500000D03*
X127775000Y71800000D03*
X129275000Y71800000D03*
X130775000Y71800000D03*
X130775000Y70350000D03*
X129275000Y70350000D03*
X127775000Y70350000D03*
X127800000Y68775000D03*
X129300000Y68775000D03*
X130800000Y68825000D03*
X128000000Y64500000D03*
X128000000Y62500000D03*
X128000000Y60500000D03*
X128000000Y58500000D03*
X164500000Y74000000D03*
X166250000Y74000000D03*
X168000000Y74000000D03*
X169750000Y74000000D03*
X169750000Y72500000D03*
X168000000Y72500000D03*
X166250000Y72500000D03*
X164500000Y72500000D03*
X164500000Y71000000D03*
X166250000Y71000000D03*
X168000000Y71000000D03*
X169750000Y71000000D03*
X164000000Y66750000D03*
X165750000Y66750000D03*
X165750000Y64750000D03*
X164000000Y64750000D03*
X164000000Y62750000D03*
X165750000Y62750000D03*
X165750000Y60750000D03*
X164000000Y60750000D03*
X79875000Y72900000D03*
X81375000Y72900000D03*
X82875000Y72900000D03*
X84375000Y72900000D03*
X84350000Y71025000D03*
X82850000Y71025000D03*
X81350000Y71025000D03*
X79850000Y71025000D03*
X79800000Y69075000D03*
X81300000Y69075000D03*
X84350000Y69100000D03*
X82850000Y69100000D03*
X80025000Y67075000D03*
X81525000Y67075000D03*
X81525000Y65575000D03*
X80025000Y65575000D03*
X80025000Y64075000D03*
X81525000Y64075000D03*
D25*
X67400000Y79300000D03*
X68300000Y79300000D03*
X68300000Y78600000D03*
X67400000Y78600000D03*
X67400000Y77900000D03*
X68300000Y77900000D03*
D26*
%TO.N,+3V3*%
X139300000Y5900000D03*
D25*
X136500000Y10100000D03*
X98800000Y13820000D03*
X62750000Y35650000D03*
D26*
X138775000Y3850000D03*
X140825000Y14700000D03*
X142575000Y15700000D03*
X99075000Y5475000D03*
D25*
X147400000Y15700000D03*
X92875000Y56675000D03*
X102900000Y63600000D03*
X100650000Y63000000D03*
X111000000Y35350000D03*
X102950000Y35450000D03*
D26*
X99480000Y37420000D03*
X95200000Y39950000D03*
X98350000Y47550000D03*
X95200000Y48750000D03*
D25*
X151450000Y35600000D03*
D26*
X106625000Y66800000D03*
D25*
X94000000Y22900000D03*
X126075000Y1200000D03*
X23950002Y34349998D03*
D26*
X50700000Y6600000D03*
X22700000Y8600000D03*
%TO.N,Net-(R16-Pad2)*%
X47500000Y42200000D03*
%TO.N,Net-(R18-Pad2)*%
X48500000Y41900000D03*
%TO.N,Net-(U1-Pad4)*%
X34500000Y26400000D03*
D25*
X44200000Y35600000D03*
%TO.N,Net-(U2-Pad24)*%
X45600000Y39300000D03*
D26*
X33600000Y49800000D03*
D25*
%TO.N,/BQ1/ILIM_HIZ1*%
X48370000Y32060000D03*
%TO.N,/BQ1/VDDA1*%
X49520000Y32000000D03*
X53140000Y44070000D03*
%TO.N,/BQ1/REGN1*%
X44600000Y37380000D03*
%TO.N,+5V*%
X94900000Y19100000D03*
X103675000Y19000000D03*
D26*
X57300000Y12400000D03*
X101950000Y36550000D03*
D25*
%TO.N,Net-(C65-Pad1)*%
X109090000Y11000000D03*
%TO.N,LDO_3.3V*%
X100400000Y13500000D03*
X112180000Y15000000D03*
X109750000Y17875000D03*
X91450000Y15000000D03*
X94425000Y16525000D03*
X89400000Y22550000D03*
X102300000Y28950000D03*
X93100000Y28800000D03*
D26*
%TO.N,VIN4*%
X164000000Y16000000D03*
X165500000Y16000000D03*
X164000000Y14500000D03*
X165500000Y14500000D03*
X165500000Y13000000D03*
X164000000Y13000000D03*
X164000000Y11500000D03*
X165500000Y11500000D03*
X165500000Y10000000D03*
X164000000Y10000000D03*
D25*
%TO.N,/BQ1/VBUS1*%
X108175000Y9175000D03*
X103680000Y13900000D03*
X103680000Y13330000D03*
X104460000Y13330000D03*
X104450000Y13920000D03*
X104430000Y14440000D03*
X103660000Y14440000D03*
%TO.N,/BQ1/ILIM_HIZ4*%
X173200000Y34550000D03*
D26*
%TO.N,Net-(C81-Pad1)*%
X171750000Y29750000D03*
D25*
%TO.N,/BQ1/VDDA4*%
X178600000Y45100000D03*
X174000000Y34500000D03*
D26*
%TO.N,Net-(C83-Pad1)*%
X170500000Y29750000D03*
D25*
%TO.N,Net-(C92-Pad2)*%
X169000000Y38200000D03*
D26*
X157400000Y28800000D03*
D25*
%TO.N,Net-(C93-Pad1)*%
X165700000Y33800000D03*
X166400000Y33800000D03*
X167100000Y33800000D03*
X167800000Y33800000D03*
X167800000Y34400000D03*
X167100000Y34400000D03*
X166400000Y34400000D03*
X165700000Y34400000D03*
%TO.N,/BQ1/VBUS2*%
X97740000Y13230000D03*
X97720000Y12740000D03*
X98240000Y12740000D03*
X98250000Y13210000D03*
D26*
X91625000Y8625000D03*
D25*
X88500000Y8250000D03*
D26*
%TO.N,Net-(C96-Pad1)*%
X165600000Y42600000D03*
X166900000Y42600000D03*
X168300000Y42600000D03*
D25*
%TO.N,Net-(C98-Pad1)*%
X169600000Y39100000D03*
D26*
X157200000Y52300000D03*
D25*
%TO.N,/BQ1/REGN4*%
X169600000Y38500000D03*
D26*
%TO.N,Net-(C101-Pad1)*%
X159500000Y64500000D03*
X161000000Y64500000D03*
X159500000Y63000000D03*
X161000000Y63000000D03*
X161000000Y61500000D03*
X159500000Y61500000D03*
X159500000Y60000000D03*
X161000000Y60000000D03*
X161000000Y58500000D03*
X159500000Y58500000D03*
X159500000Y57000000D03*
X161000000Y57000000D03*
X161000000Y55500000D03*
X159500000Y55500000D03*
X159500000Y54000000D03*
X161000000Y54000000D03*
D25*
%TO.N,Net-(C123-Pad1)*%
X102800000Y27550000D03*
%TO.N,VIN3*%
X96700000Y13900000D03*
X96200000Y13900000D03*
X95700000Y13900000D03*
D26*
X74000000Y13300000D03*
X75600000Y13300000D03*
X75700000Y11800000D03*
X74000000Y11800000D03*
X74000000Y10400000D03*
X75700000Y10400000D03*
X74000000Y16000000D03*
X75600000Y16000000D03*
X75600000Y17300000D03*
X74000000Y17300000D03*
D25*
X95700000Y13000000D03*
X96200000Y13000000D03*
X96700000Y13000000D03*
%TO.N,VIN2*%
X101280000Y13490000D03*
X101280000Y13030000D03*
X101780000Y13020000D03*
X102280000Y13020000D03*
X101780000Y13490000D03*
D26*
X124800000Y11400000D03*
X126130000Y11390000D03*
X126180000Y10250000D03*
X124790000Y10210000D03*
X124810000Y12710000D03*
X126090000Y12690000D03*
X126000000Y16640000D03*
X124920000Y16670000D03*
X124920000Y15580000D03*
X126050000Y15580000D03*
D25*
%TO.N,/BQ1/ILIM_HIZ3*%
X87300000Y32900000D03*
%TO.N,/BQ1/ILIM_HIZ2*%
X135000000Y34950000D03*
D26*
%TO.N,Net-(C144-Pad1)*%
X85100000Y29000000D03*
%TO.N,Net-(C145-Pad1)*%
X133650000Y29550000D03*
D25*
%TO.N,/BQ1/VDDA3*%
X88000000Y34700000D03*
X92325000Y45700000D03*
D26*
%TO.N,Net-(C147-Pad1)*%
X83500000Y29000000D03*
%TO.N,/BQ1/VDDA2*%
X139900000Y45000000D03*
D25*
X136500000Y34800000D03*
D26*
%TO.N,Net-(C149-Pad1)*%
X132550000Y29650000D03*
D25*
%TO.N,Net-(C164-Pad2)*%
X81200000Y38900000D03*
D26*
X68800000Y28600000D03*
D25*
%TO.N,Net-(C166-Pad2)*%
X131350000Y38150000D03*
D26*
X116750000Y27700000D03*
%TO.N,Net-(C168-Pad1)*%
X79700000Y32300000D03*
X79700000Y33500000D03*
X78700000Y32300000D03*
X78700000Y33500000D03*
%TO.N,Net-(C169-Pad1)*%
X126950000Y33050000D03*
X127950000Y33050000D03*
X128900000Y33050000D03*
X128950000Y34150000D03*
X127900000Y34150000D03*
X126900000Y34100000D03*
%TO.N,Net-(C170-Pad1)*%
X78600000Y43500000D03*
X79800000Y43500000D03*
X79800000Y44400000D03*
X78600000Y44400000D03*
%TO.N,Net-(C171-Pad1)*%
X127900000Y42900000D03*
X128900000Y42900000D03*
X128900000Y43900000D03*
X127900000Y43900000D03*
D25*
%TO.N,Net-(C172-Pad1)*%
X82200000Y39700000D03*
D26*
X68300000Y52400000D03*
D25*
%TO.N,Net-(C173-Pad1)*%
X131050000Y39500000D03*
D26*
X116350000Y52600000D03*
D25*
%TO.N,/BQ1/REGN3*%
X81899998Y39100002D03*
%TO.N,/BQ1/REGN2*%
X131300000Y38800000D03*
D26*
%TO.N,Net-(C178-Pad1)*%
X76000000Y64500000D03*
X77500000Y64500000D03*
X77500000Y63000000D03*
X76000000Y63000000D03*
X76000000Y61500000D03*
X77500000Y61500000D03*
X77500000Y60000000D03*
X76000000Y60000000D03*
X76000000Y58500000D03*
X77500000Y58500000D03*
X77500000Y57000000D03*
X76000000Y57000000D03*
X76000000Y55500000D03*
X77500000Y55500000D03*
%TO.N,Net-(C181-Pad1)*%
X123000000Y64000000D03*
X124500000Y64000000D03*
X126000000Y64000000D03*
X126000000Y62500000D03*
X124500000Y62500000D03*
X123000000Y62500000D03*
X123000000Y61000000D03*
X124500000Y61000000D03*
X126000000Y61000000D03*
X126000000Y55000000D03*
X124500000Y55000000D03*
X123000000Y55000000D03*
X123000000Y53500000D03*
X124500000Y53500000D03*
X126000000Y53500000D03*
X126000000Y56500000D03*
X124500000Y56500000D03*
X123000000Y56500000D03*
D25*
%TO.N,Net-(C219-Pad2)*%
X100000000Y21380000D03*
%TO.N,Net-(J3-Pad4)*%
X140900000Y25175000D03*
%TO.N,/INT3*%
X142300000Y73100000D03*
%TO.N,/INT4*%
X141800000Y73600000D03*
%TO.N,/OTG3*%
X143100000Y9250000D03*
X118250000Y20650000D03*
X116800000Y22700000D03*
X108150000Y34350000D03*
%TO.N,/OTG2*%
X141500000Y8850000D03*
X109250000Y30000000D03*
X100650000Y39350000D03*
X118650000Y20250000D03*
X117900000Y22350000D03*
X118400000Y23900000D03*
%TO.N,/SCL*%
X144600000Y4380000D03*
X120300000Y20070000D03*
X103610000Y22370000D03*
X101880000Y23260000D03*
X24500000Y37500000D03*
X37200000Y26700000D03*
X40100000Y26400000D03*
X120300000Y12500000D03*
X61100000Y14200000D03*
X110750000Y23850000D03*
X110950000Y22440000D03*
X107850000Y42300000D03*
X109000000Y62300000D03*
X109600000Y42300000D03*
X120450000Y22650000D03*
X134050000Y23500000D03*
X143700000Y31900000D03*
X151200000Y40150000D03*
%TO.N,/SDA*%
X120610000Y20550000D03*
X144380000Y4870000D03*
X24100000Y37800000D03*
X37500000Y27100000D03*
X40400000Y26800000D03*
X119800000Y12500000D03*
X61500000Y15900000D03*
X111500000Y22600000D03*
X111250000Y23800000D03*
X110650000Y36450000D03*
X102800000Y42550000D03*
X109000000Y63800000D03*
X111399999Y39950001D03*
X148100000Y35600000D03*
X143950000Y31450000D03*
X134000000Y22950000D03*
X120900000Y22400000D03*
%TO.N,/RX*%
X151250000Y10100000D03*
%TO.N,/TX*%
X151810000Y10640000D03*
%TO.N,/BQ1/C1.1*%
X109300000Y7900000D03*
X109800000Y10900000D03*
%TO.N,/BQ1/DP1*%
X109730150Y7600000D03*
X106390150Y12580000D03*
%TO.N,/BQ1/DN1*%
X110269850Y7600000D03*
X106929850Y12580000D03*
%TO.N,/BQ1/C1.2*%
X110400000Y10900000D03*
%TO.N,/BQ1/C2.1*%
X89200000Y7900000D03*
X89700000Y9800000D03*
%TO.N,/BQ1/DP2*%
X89110000Y8640150D03*
X86620150Y11420000D03*
%TO.N,/BQ1/DN2*%
X89110000Y9179850D03*
X87159850Y11420000D03*
X90270000Y6760000D03*
%TO.N,/BQ1/C2.2*%
X90600000Y9900000D03*
%TO.N,/OTG1*%
X47400000Y31900000D03*
X144025000Y16750000D03*
X93500000Y24250000D03*
X108810000Y41010000D03*
X120900000Y18000000D03*
X134000000Y17650000D03*
%TO.N,/BQ1/CHRG_OK3*%
X85200000Y35100000D03*
X91575000Y29725000D03*
X103400000Y57750000D03*
X94850000Y32950000D03*
%TO.N,/BQ1/SDA1*%
X51600000Y35750000D03*
X95400000Y62250000D03*
%TO.N,/BQ1/SCL1*%
X51375000Y36300000D03*
X96487500Y60562500D03*
%TO.N,/PC13*%
X141500000Y7900000D03*
%TO.N,/BOOT0*%
X142675000Y10375000D03*
X139175000Y21350000D03*
%TO.N,/INT2*%
X143200000Y72600000D03*
X102200000Y59150000D03*
X101900000Y56800000D03*
X101150000Y46850000D03*
%TO.N,/OTG4*%
X172700000Y35100000D03*
X144900000Y17500000D03*
X154050000Y23650000D03*
X144025000Y20075000D03*
X107800000Y43975000D03*
X101290000Y44435000D03*
%TO.N,/RESET*%
X141850000Y10550000D03*
%TO.N,/BOOT1*%
X137600000Y21250000D03*
%TO.N,/INT1*%
X122800000Y19700000D03*
X152200000Y7400000D03*
X152400000Y11400000D03*
%TO.N,/BQ1/FLT*%
X112350000Y13760000D03*
%TO.N,/BQ1/FLT1*%
X91725000Y13400000D03*
%TO.N,/BQ1/CHRG_OK4*%
X172100000Y33400000D03*
X181150000Y37950000D03*
X111250000Y63250000D03*
%TO.N,/BQ1/SDA4*%
X176550000Y37350000D03*
X105925000Y60425000D03*
%TO.N,/BQ1/SCL4*%
X106475000Y61075000D03*
X177250000Y37400000D03*
D26*
%TO.N,Net-(R63-Pad2)*%
X172325000Y43025000D03*
%TO.N,Net-(R65-Pad2)*%
X173100000Y42300000D03*
D25*
%TO.N,/BQ1/SPI_SS*%
X98410000Y21800000D03*
X101375000Y26075000D03*
X102200000Y24600000D03*
%TO.N,/BQ1/SPI_MISO*%
X100010000Y23290000D03*
%TO.N,/BQ1/OTG3*%
X85700000Y34500000D03*
X103640000Y18190000D03*
X94710000Y30210000D03*
%TO.N,/BQ1/OTG2*%
X134400000Y35150000D03*
X127780000Y27790000D03*
X97599999Y22975001D03*
%TO.N,/BQ1/CHRG_OK2*%
X134150000Y33300000D03*
X97500000Y59800000D03*
X105800000Y58800000D03*
X99800000Y59750000D03*
%TO.N,/BQ1/SDA3*%
X87930000Y38580000D03*
X104180000Y17790000D03*
X101850000Y58375000D03*
X96100000Y36300000D03*
%TO.N,/BQ1/SDA2*%
X105830000Y21460000D03*
X141590000Y36650000D03*
X107100000Y22000000D03*
X98000000Y42700000D03*
%TO.N,/BQ1/SCL3*%
X104090000Y17260000D03*
X88060000Y39110000D03*
X103425000Y59100000D03*
X96900000Y37600000D03*
%TO.N,/BQ1/SCL2*%
X138240000Y37680000D03*
X106230000Y21030000D03*
X107700000Y21900000D03*
X98700000Y42700000D03*
D26*
%TO.N,Net-(R103-Pad2)*%
X85200000Y43500000D03*
%TO.N,Net-(R105-Pad2)*%
X133900000Y42200000D03*
%TO.N,Net-(R106-Pad2)*%
X86000000Y44100000D03*
%TO.N,Net-(R109-Pad2)*%
X134900000Y42000000D03*
D25*
%TO.N,Net-(R115-Pad2)*%
X152600000Y36210000D03*
%TO.N,Net-(R117-Pad2)*%
X113750001Y37299999D03*
%TO.N,Net-(R118-Pad2)*%
X25400000Y34400000D03*
%TO.N,Net-(R121-Pad2)*%
X64425000Y37050000D03*
%TO.N,/MOSI*%
X146300000Y11200000D03*
%TO.N,/MISO*%
X145900000Y9400000D03*
%TO.N,/CLK*%
X146500000Y10000000D03*
%TO.N,/SS*%
X147100000Y7600000D03*
X142570000Y7875000D03*
%TO.N,Net-(U12-Pad4)*%
X169000000Y36900000D03*
D26*
X162600000Y29000000D03*
D25*
%TO.N,Net-(U13-Pad24)*%
X170300000Y40200000D03*
D26*
X162600000Y52200000D03*
D25*
%TO.N,/BQ1/PDP1*%
X94700813Y17440813D03*
%TO.N,/BQ1/PDN1*%
X94319187Y17059187D03*
%TO.N,/BQ1/S1*%
X108725000Y16950000D03*
%TO.N,/BQ1/SPI_CLK*%
X98850000Y28240000D03*
%TO.N,/BQ1/SPI_MOSI*%
X97595000Y29825000D03*
X105175000Y26050000D03*
%TO.N,Net-(U21-Pad4)*%
X82000000Y37700000D03*
D26*
X75300000Y28500000D03*
D25*
%TO.N,Net-(U22-Pad4)*%
X130750000Y36700000D03*
D26*
X122150000Y27750000D03*
D25*
%TO.N,Net-(U23-Pad24)*%
X82500000Y41100000D03*
D26*
X74300000Y52000000D03*
D25*
%TO.N,Net-(U26-Pad24)*%
X132250000Y40400000D03*
D26*
X120900000Y51600000D03*
D25*
%TO.N,/FAN*%
X83100000Y76700000D03*
X45350000Y76050000D03*
%TO.N,/DISP*%
X145225000Y19625000D03*
X150325000Y7900000D03*
%TO.N,/D-*%
X165250000Y6850000D03*
%TO.N,/RX1*%
X57363021Y2013021D03*
X117000000Y1775000D03*
X129025000Y8050000D03*
%TO.N,/TX1*%
X138300000Y14125000D03*
X115375000Y2375000D03*
%TO.N,/BQ1/CHRG_OK1*%
X47400000Y33600000D03*
X95825000Y61375000D03*
X97475000Y61700000D03*
%TO.N,/BQ1/S2*%
X88750000Y20700000D03*
%TO.N,/BQ1/PDP2*%
X95370000Y15869849D03*
%TO.N,/BQ1/PDN2*%
X95370000Y15330149D03*
%TO.N,/BQ1/PN1*%
X92369850Y16600000D03*
X107434187Y20059187D03*
%TO.N,/BQ1/PP1*%
X91830150Y16600000D03*
X107815813Y20440813D03*
%TD*%
D27*
%TO.N,+3V3*%
X151977000Y8254000D02*
X151469000Y7746000D01*
X172297000Y8254000D02*
X151977000Y8254000D01*
%TO.N,/SDA2*%
X171281000Y9270000D02*
X171535000Y9524000D01*
X155914000Y9270000D02*
X171281000Y9270000D01*
X147405000Y12953000D02*
X151088000Y9270000D01*
X151088000Y9270000D02*
X155914000Y9270000D01*
%TO.N,/SCL2*%
X147151000Y12318000D02*
X150580000Y8889000D01*
X150580000Y8889000D02*
X171662000Y8889000D01*
X171662000Y8889000D02*
X172932000Y10159000D01*
X172932000Y10159000D02*
X172932000Y25272000D01*
X172932000Y25272000D02*
X173440000Y25780000D01*
%TO.N,Net-(R132-Pad2)*%
X16595000Y72389000D02*
X16468000Y72262000D01*
X16468000Y72262000D02*
X16468000Y71246000D01*
X16468000Y71246000D02*
X17484000Y70230000D01*
X17484000Y70230000D02*
X18754000Y70230000D01*
%TO.N,/WirelessPower/V_BRIDGE*%
X22310000Y65912000D02*
X22310000Y65277000D01*
X22310000Y65277000D02*
X22056000Y65023000D01*
X22056000Y65023000D02*
X20265000Y65023000D01*
%TO.N,/WirelessPower/5V*%
X21675000Y67309000D02*
X21675000Y65912000D01*
X22056000Y67690000D02*
X21675000Y67309000D01*
X28152000Y71373000D02*
X24469000Y67690000D01*
X24469000Y67690000D02*
X22056000Y67690000D01*
%TO.N,/WirelessPower/ISNS_OUT*%
X23580000Y62864000D02*
X24469000Y63753000D01*
X22183000Y60070000D02*
X23580000Y61467000D01*
X23580000Y61467000D02*
X23580000Y62864000D01*
X24469000Y63753000D02*
X24469000Y64515000D01*
%TO.N,Net-(R130-Pad2)*%
X15833000Y61467000D02*
X14944000Y60578000D01*
X17357000Y64515000D02*
X15960000Y63118000D01*
X14944000Y60578000D02*
X13674000Y60578000D01*
X21040000Y64515000D02*
X17357000Y64515000D01*
X15960000Y63118000D02*
X15833000Y62991000D01*
X15833000Y62991000D02*
X15833000Y61467000D01*
%TO.N,Net-(R133-Pad2)*%
X18246000Y68579000D02*
X18246000Y68833000D01*
X15960000Y71119000D02*
X15960000Y79882000D01*
X16722000Y81406000D02*
X16595000Y81533000D01*
X18246000Y68833000D02*
X15960000Y71119000D01*
X15960000Y79882000D02*
X16722000Y80644000D01*
X16722000Y80644000D02*
X16722000Y81406000D01*
%TO.N,GNDA*%
X86450000Y38900000D02*
X86450000Y38550000D01*
X86450000Y38900000D02*
X86450000Y39450000D01*
X86450000Y38900000D02*
X86600000Y38900000D01*
D28*
%TO.N,GND*%
X54600000Y37000000D02*
X50100000Y37000000D01*
X50100000Y37000000D02*
X50000000Y36900000D01*
X50000000Y36900000D02*
X48600000Y36900000D01*
X48575081Y36899916D02*
X48575081Y37675081D01*
X52200000Y41300000D02*
X55000000Y41300000D01*
X48575081Y37675081D02*
X52200000Y41300000D01*
X48575081Y36899916D02*
X48575081Y35324919D01*
X51300000Y32600000D02*
X51300000Y31700000D01*
X48575081Y35324919D02*
X51300000Y32600000D01*
%TO.N,GNDA*%
X141300000Y38200000D02*
X135200000Y38200000D01*
X141800000Y42800000D02*
X141800000Y42200000D01*
X141800000Y42200000D02*
X139000000Y39400000D01*
X139000000Y39400000D02*
X135900000Y39400000D01*
X135200000Y38700000D02*
X135200000Y38200000D01*
X135900000Y39400000D02*
X135200000Y38700000D01*
X135900000Y29300000D02*
X135900000Y37000000D01*
X135200000Y37700000D02*
X135200000Y38200000D01*
X135900000Y37000000D02*
X135200000Y37700000D01*
X173550000Y38200000D02*
X180200000Y38200000D01*
X180200000Y38200000D02*
X180300000Y38300000D01*
X173550000Y39750000D02*
X173550000Y38200000D01*
X175800000Y42000000D02*
X173550000Y39750000D01*
X180600000Y42000000D02*
X175800000Y42000000D01*
X174700000Y30400000D02*
X174700000Y35200000D01*
X173550000Y36350000D02*
X173550000Y38200000D01*
X174700000Y35200000D02*
X173550000Y36350000D01*
X86450000Y32340000D02*
X87900000Y30890000D01*
X87675000Y42575000D02*
X86450000Y41350000D01*
X93375000Y42575000D02*
X87675000Y42575000D01*
X93400000Y42550000D02*
X93375000Y42575000D01*
X92900000Y38000000D02*
X92700000Y37800000D01*
X87650000Y37800000D02*
X86450000Y39000000D01*
X92700000Y37800000D02*
X87650000Y37800000D01*
X86450000Y39000000D02*
X86450000Y32340000D01*
X86450000Y41350000D02*
X86450000Y39000000D01*
%TO.N,Net-(C21-Pad2)*%
X27650000Y31550000D02*
X27650000Y26550000D01*
X32580000Y36480000D02*
X27650000Y31550000D01*
X43180000Y36480000D02*
X32580000Y36480000D01*
%TO.N,Net-(C24-Pad1)*%
X44300000Y38300000D02*
X42000000Y38300000D01*
X42000000Y38300000D02*
X30400000Y49900000D01*
X30400000Y49900000D02*
X27900000Y49900000D01*
X27800000Y49900000D02*
X27700000Y49800000D01*
X27900000Y49900000D02*
X27800000Y49900000D01*
D29*
%TO.N,+3V3*%
X139300000Y5900000D02*
X139000000Y6200000D01*
X139000000Y6200000D02*
X137800000Y6200000D01*
X137800000Y6200000D02*
X136500000Y7500000D01*
X136500000Y7500000D02*
X136500000Y10100000D01*
D30*
X99075000Y5475000D02*
X99650000Y6050000D01*
X99650000Y12970000D02*
X98800000Y13820000D01*
X99650000Y6050000D02*
X99650000Y12970000D01*
D27*
X111000000Y35350000D02*
X110250000Y35350000D01*
X110250000Y35350000D02*
X109750000Y34850000D01*
X103550000Y34850000D02*
X102950000Y35450000D01*
X109750000Y34850000D02*
X103550000Y34850000D01*
X128250000Y11100000D02*
X127850000Y11100000D01*
X127850000Y11100000D02*
X126900000Y10150000D01*
X126900000Y2025000D02*
X126075000Y1200000D01*
X126900000Y10150000D02*
X126900000Y2025000D01*
D28*
X50700000Y6600000D02*
X49000000Y8300000D01*
X49000000Y8300000D02*
X28500000Y8300000D01*
X28500000Y8300000D02*
X27500000Y7300000D01*
X27500000Y7300000D02*
X23700000Y7300000D01*
X22700000Y8300000D02*
X22700000Y8600000D01*
X23700000Y7300000D02*
X22700000Y8300000D01*
%TO.N,Net-(U1-Pad4)*%
X34500000Y26400000D02*
X34500000Y28700000D01*
X34500000Y28700000D02*
X40500000Y34700000D01*
X43300000Y34700000D02*
X44200000Y35600000D01*
X40500000Y34700000D02*
X43300000Y34700000D01*
%TO.N,Net-(U2-Pad24)*%
X45600000Y39300000D02*
X43200000Y39300000D01*
X43200000Y39300000D02*
X36600000Y45900000D01*
X36600000Y45900000D02*
X36600000Y48300000D01*
X35100000Y49800000D02*
X33600000Y49800000D01*
X36600000Y48300000D02*
X35100000Y49800000D01*
D27*
%TO.N,+5V*%
X103675000Y19000000D02*
X102875000Y19000000D01*
X102875000Y19000000D02*
X102625000Y19250000D01*
X95050000Y19250000D02*
X94900000Y19100000D01*
X102625000Y19250000D02*
X95050000Y19250000D01*
D28*
X87200000Y19100000D02*
X94900000Y19100000D01*
X72050000Y14850000D02*
X82950000Y14850000D01*
X82950000Y14850000D02*
X87200000Y19100000D01*
X69600000Y12400000D02*
X72050000Y14850000D01*
X57300000Y12400000D02*
X69600000Y12400000D01*
X101950000Y36550000D02*
X101800000Y36700000D01*
X101800000Y46250000D02*
X104400000Y48850000D01*
X101800000Y36700000D02*
X101800000Y46250000D01*
D27*
%TO.N,LDO_3.3V*%
X112180000Y15445000D02*
X109750000Y17875000D01*
X112180000Y15000000D02*
X112180000Y15445000D01*
X102300000Y28950000D02*
X102100000Y28750000D01*
X93150000Y28750000D02*
X93100000Y28800000D01*
X102100000Y28750000D02*
X93150000Y28750000D01*
D28*
%TO.N,Net-(C92-Pad2)*%
X169000000Y38200000D02*
X161400000Y38200000D01*
X161400000Y38200000D02*
X157400000Y34200000D01*
X157400000Y34200000D02*
X157400000Y28800000D01*
%TO.N,Net-(C98-Pad1)*%
X169600000Y39100000D02*
X161400000Y39100000D01*
X161400000Y39100000D02*
X157100000Y43400000D01*
X157100000Y52200000D02*
X157200000Y52300000D01*
X157100000Y43400000D02*
X157100000Y52200000D01*
%TO.N,Net-(C164-Pad2)*%
X81200000Y38900000D02*
X72800000Y38900000D01*
X72800000Y38900000D02*
X68800000Y34900000D01*
X68800000Y34900000D02*
X68800000Y28600000D01*
%TO.N,Net-(C166-Pad2)*%
X127200000Y38150000D02*
X131350000Y38150000D01*
X116750000Y27700000D02*
X127200000Y38150000D01*
%TO.N,Net-(C172-Pad1)*%
X82200000Y39700000D02*
X78100000Y39700000D01*
X78100000Y39700000D02*
X72700000Y39700000D01*
X72700000Y39700000D02*
X68300000Y44100000D01*
X68300000Y44100000D02*
X68300000Y52400000D01*
%TO.N,Net-(C173-Pad1)*%
X131050000Y39500000D02*
X127050000Y39500000D01*
X127050000Y39500000D02*
X118800000Y47750000D01*
X118800000Y47750000D02*
X118800000Y50900000D01*
X118800000Y50900000D02*
X117100000Y52600000D01*
X117100000Y52600000D02*
X116350000Y52600000D01*
D27*
%TO.N,/INT3*%
X105670000Y46310000D02*
X106390000Y46310000D01*
X106390000Y46310000D02*
X107100000Y45600000D01*
X107100000Y45600000D02*
X107100000Y39400000D01*
X106390000Y38690000D02*
X105670000Y38690000D01*
X107100000Y39400000D02*
X106390000Y38690000D01*
%TO.N,/INT4*%
X104400000Y46310000D02*
X104010000Y46310000D01*
X104010000Y46310000D02*
X103200000Y45500000D01*
X103200000Y39890000D02*
X104400000Y38690000D01*
X103200000Y45500000D02*
X103200000Y39890000D01*
%TO.N,/OTG3*%
X143100000Y9250000D02*
X141950000Y9250000D01*
X141950000Y9250000D02*
X141550000Y9250000D01*
X141550000Y9250000D02*
X141100000Y9700000D01*
X141100000Y9700000D02*
X141100000Y11250000D01*
X141100000Y11250000D02*
X141100000Y13400000D01*
X141100000Y13400000D02*
X133300000Y21200000D01*
X133300000Y21200000D02*
X121200000Y21200000D01*
X121200000Y21200000D02*
X121150000Y21250000D01*
X121150000Y21250000D02*
X119100000Y21250000D01*
X118500000Y20650000D02*
X118250000Y20650000D01*
X119100000Y21250000D02*
X118500000Y20650000D01*
X116800000Y22700000D02*
X116800000Y24450000D01*
X116800000Y24450000D02*
X116450000Y24800000D01*
X116450000Y24800000D02*
X111950000Y24800000D01*
X111950000Y24800000D02*
X109700000Y27050000D01*
X109700000Y27050000D02*
X109700000Y33550000D01*
X109700000Y33550000D02*
X108900000Y34350000D01*
X108900000Y34350000D02*
X108150000Y34350000D01*
%TO.N,/OTG2*%
X141500000Y8850000D02*
X140800000Y9550000D01*
X140800000Y9550000D02*
X140800000Y13250000D01*
X140800000Y13250000D02*
X133200000Y20850000D01*
X133200000Y20850000D02*
X122300000Y20850000D01*
X109250000Y30000000D02*
X109150000Y30100000D01*
X109150000Y30100000D02*
X109150000Y33050000D01*
X109150000Y33050000D02*
X108250000Y33950000D01*
X108250000Y33950000D02*
X102200000Y33950000D01*
X100650000Y35500000D02*
X100650000Y39350000D01*
X102200000Y33950000D02*
X100650000Y35500000D01*
X122300000Y20850000D02*
X121000000Y20850000D01*
X121000000Y20850000D02*
X120900000Y20950000D01*
X119350000Y20950000D02*
X118650000Y20250000D01*
X120900000Y20950000D02*
X119350000Y20950000D01*
X118400000Y22850000D02*
X118400000Y23900000D01*
X117900000Y22350000D02*
X118400000Y22850000D01*
%TO.N,/SCL*%
X144600000Y4380000D02*
X144100000Y3880000D01*
X144100000Y3880000D02*
X142540000Y3880000D01*
X142540000Y3880000D02*
X140160000Y6260000D01*
X140160000Y6260000D02*
X140160000Y12950000D01*
X140160000Y12950000D02*
X132890000Y20220000D01*
X132890000Y20220000D02*
X120910000Y20220000D01*
X120910000Y20220000D02*
X120760000Y20070000D01*
X120760000Y20070000D02*
X120300000Y20070000D01*
X120300000Y12500000D02*
X120300000Y20070000D01*
X110750000Y22640000D02*
X110950000Y22440000D01*
X110750000Y23850000D02*
X110750000Y22640000D01*
X109000000Y62300000D02*
X109350000Y61950000D01*
X109350000Y61950000D02*
X109350000Y48300000D01*
X109600000Y48050000D02*
X109600000Y42300000D01*
X109350000Y48300000D02*
X109600000Y48050000D01*
X120450000Y22650000D02*
X121200000Y23400000D01*
X133950000Y23400000D02*
X134050000Y23500000D01*
X121200000Y23400000D02*
X133950000Y23400000D01*
%TO.N,/SDA*%
X120610000Y20550000D02*
X133040000Y20550000D01*
X133040000Y20550000D02*
X140490000Y13100000D01*
X140490000Y13100000D02*
X140490000Y6410000D01*
X140490000Y6410000D02*
X142630000Y4270000D01*
X143780000Y4270000D02*
X144380000Y4870000D01*
X142630000Y4270000D02*
X143780000Y4270000D01*
X119800000Y12500000D02*
X119800000Y20400000D01*
X119950000Y20550000D02*
X120610000Y20550000D01*
X119800000Y20400000D02*
X119950000Y20550000D01*
X111250000Y22850000D02*
X111250000Y23800000D01*
X111500000Y22600000D02*
X111250000Y22850000D01*
X110650000Y36450000D02*
X109400000Y35200000D01*
X109400000Y35200000D02*
X104050000Y35200000D01*
X102800000Y36450000D02*
X102800000Y42550000D01*
X104050000Y35200000D02*
X102800000Y36450000D01*
X109000000Y63800000D02*
X110750000Y62050000D01*
X110750000Y40600000D02*
X111399999Y39950001D01*
X110750000Y62050000D02*
X110750000Y40600000D01*
X134000000Y22950000D02*
X121450000Y22950000D01*
X121450000Y22950000D02*
X120900000Y22400000D01*
%TO.N,/RX*%
X149530000Y23120000D02*
X148300000Y23120000D01*
X149560000Y23120000D02*
X149530000Y23120000D01*
X151260000Y21420000D02*
X149560000Y23120000D01*
X151260000Y10110000D02*
X151260000Y21420000D01*
X151250000Y10100000D02*
X151260000Y10110000D01*
%TO.N,/TX*%
X151810000Y10640000D02*
X151670000Y10780000D01*
X151670000Y10780000D02*
X151670000Y24250000D01*
X150260000Y25660000D02*
X148300000Y25660000D01*
X151670000Y24250000D02*
X150260000Y25660000D01*
D31*
%TO.N,/BQ1/C1.1*%
X109300000Y7900000D02*
X109800000Y8400000D01*
X109800000Y8400000D02*
X109800000Y10900000D01*
%TO.N,/BQ1/C1.2*%
X110800000Y5350000D02*
X110800000Y4700000D01*
X110800000Y4700000D02*
X111100000Y4400000D01*
X111100000Y4400000D02*
X114700000Y4400000D01*
X114700000Y4400000D02*
X115700000Y5400000D01*
X115700000Y5400000D02*
X115700000Y9500000D01*
X115700000Y9500000D02*
X114700000Y10500000D01*
X110800000Y10500000D02*
X110400000Y10900000D01*
X114700000Y10500000D02*
X110800000Y10500000D01*
%TO.N,/BQ1/C2.1*%
X89700000Y8400000D02*
X89700000Y9800000D01*
X89200000Y7900000D02*
X89700000Y8400000D01*
%TO.N,/BQ1/C2.2*%
X90800000Y5350000D02*
X90800000Y4600000D01*
X90800000Y4600000D02*
X91200000Y4200000D01*
X91200000Y4200000D02*
X94400000Y4200000D01*
X94400000Y4200000D02*
X95400000Y5200000D01*
X95400000Y5200000D02*
X95400000Y8000000D01*
X95400000Y8000000D02*
X93800000Y9600000D01*
X90900000Y9600000D02*
X90600000Y9900000D01*
X93800000Y9600000D02*
X90900000Y9600000D01*
D27*
%TO.N,/OTG1*%
X47400000Y31900000D02*
X47400000Y31250000D01*
X54400000Y24250000D02*
X93500000Y24250000D01*
X47400000Y31250000D02*
X54400000Y24250000D01*
X120900000Y18000000D02*
X121250000Y17650000D01*
X121250000Y17650000D02*
X134000000Y17650000D01*
%TO.N,/BQ1/CHRG_OK3*%
X85200000Y35100000D02*
X85200000Y31125000D01*
X85200000Y31125000D02*
X86450000Y29875000D01*
X91425000Y29875000D02*
X91575000Y29725000D01*
X86450000Y29875000D02*
X91425000Y29875000D01*
%TO.N,/BQ1/SDA1*%
X51600000Y35750000D02*
X56175000Y35750000D01*
X56175000Y35750000D02*
X59500000Y39075000D01*
X59500000Y39075000D02*
X59500000Y47975000D01*
X59500000Y47975000D02*
X67725000Y56200000D01*
X67725000Y56200000D02*
X84025000Y56200000D01*
X90075000Y62250000D02*
X95400000Y62250000D01*
X84025000Y56200000D02*
X90075000Y62250000D01*
%TO.N,/BQ1/SCL1*%
X51375000Y36300000D02*
X56300000Y36300000D01*
X56300000Y36300000D02*
X59200000Y39200000D01*
X59200000Y39200000D02*
X59200000Y48150000D01*
X59200000Y48150000D02*
X67625000Y56575000D01*
X67625000Y56575000D02*
X74475000Y56575000D01*
X74475000Y56575000D02*
X75525000Y57625000D01*
X75525000Y57625000D02*
X77975000Y57625000D01*
X77975000Y57625000D02*
X79050000Y56550000D01*
X79050000Y56550000D02*
X83800000Y56550000D01*
X83800000Y56550000D02*
X89850000Y62600000D01*
X89850000Y62600000D02*
X95000000Y62600000D01*
X95000000Y62600000D02*
X95125000Y62725000D01*
X95125000Y62725000D02*
X95900000Y62725000D01*
X96487500Y62137500D02*
X96487500Y60562500D01*
X95900000Y62725000D02*
X96487500Y62137500D01*
%TO.N,/BOOT0*%
X142675000Y10375000D02*
X142650000Y10375000D01*
X142650000Y10375000D02*
X141875000Y11150000D01*
X141875000Y11150000D02*
X141875000Y17550000D01*
X141875000Y17550000D02*
X139175000Y20250000D01*
X139175000Y20250000D02*
X139175000Y21350000D01*
%TO.N,/INT2*%
X101900000Y56800000D02*
X101800000Y56800000D01*
X101800000Y56800000D02*
X100900000Y55900000D01*
X100900000Y47100000D02*
X101150000Y46850000D01*
X100900000Y55900000D02*
X100900000Y47100000D01*
%TO.N,/OTG4*%
X154050000Y23650000D02*
X155950000Y25550000D01*
X155950000Y25550000D02*
X169700000Y25550000D01*
X169700000Y25550000D02*
X172800000Y28650000D01*
X172800000Y35000000D02*
X172700000Y35100000D01*
X172800000Y28650000D02*
X172800000Y35000000D01*
X107800000Y43975000D02*
X107775000Y44000000D01*
X107775000Y44000000D02*
X107775000Y48250000D01*
X107775000Y48250000D02*
X106250000Y49775000D01*
X106250000Y49775000D02*
X103125000Y49775000D01*
X103125000Y49775000D02*
X101875000Y48525000D01*
X101875000Y48525000D02*
X101875000Y46950000D01*
X101290000Y46365000D02*
X101290000Y44435000D01*
X101875000Y46950000D02*
X101290000Y46365000D01*
%TO.N,/INT1*%
X122800000Y19700000D02*
X123000000Y19900000D01*
X123000000Y19900000D02*
X132600000Y19900000D01*
X132600000Y19900000D02*
X133800000Y18700000D01*
X133800000Y18700000D02*
X135800000Y16700000D01*
X135800000Y16700000D02*
X135800000Y7100000D01*
X135800000Y7100000D02*
X137700000Y5200000D01*
X137700000Y5200000D02*
X140500000Y5200000D01*
X140500000Y5200000D02*
X142200000Y3500000D01*
X142200000Y3500000D02*
X149900000Y3500000D01*
X152200000Y5800000D02*
X152200000Y7400000D01*
X149900000Y3500000D02*
X152200000Y5800000D01*
%TO.N,/BQ1/CHRG_OK4*%
X181150000Y37950000D02*
X181350000Y37950000D01*
X181350000Y37950000D02*
X182100000Y38700000D01*
X182100000Y38700000D02*
X182100000Y44500000D01*
X182100000Y44500000D02*
X180750000Y45850000D01*
X180750000Y45850000D02*
X178050000Y45850000D01*
X178050000Y45850000D02*
X175450000Y48450000D01*
X175450000Y48450000D02*
X175450000Y58250000D01*
X175450000Y58250000D02*
X169650000Y64050000D01*
X169650000Y64050000D02*
X162050000Y64050000D01*
X162050000Y64050000D02*
X161700000Y63700000D01*
X161700000Y63700000D02*
X127000000Y63700000D01*
X127000000Y63700000D02*
X126550000Y63250000D01*
X126550000Y63250000D02*
X111250000Y63250000D01*
%TO.N,/BQ1/SDA4*%
X105925000Y63075000D02*
X105925000Y60425000D01*
X107500000Y64650000D02*
X105925000Y63075000D01*
X181450000Y36950000D02*
X182800000Y38300000D01*
X182800000Y38300000D02*
X182800000Y44950000D01*
X176550000Y37350000D02*
X176950000Y36950000D01*
X168950000Y65750000D02*
X162700000Y65750000D01*
X178250000Y46600000D02*
X176100000Y48750000D01*
X122800000Y65450000D02*
X122000000Y64650000D01*
X176950000Y36950000D02*
X181450000Y36950000D01*
X176100000Y48750000D02*
X176100000Y58600000D01*
X182800000Y44950000D02*
X181150000Y46600000D01*
X181150000Y46600000D02*
X178250000Y46600000D01*
X122000000Y64650000D02*
X107500000Y64650000D01*
X176100000Y58600000D02*
X168950000Y65750000D01*
X162700000Y65750000D02*
X162400000Y65450000D01*
X162400000Y65450000D02*
X122800000Y65450000D01*
%TO.N,/BQ1/SCL4*%
X106475000Y61075000D02*
X106475000Y62775000D01*
X106475000Y62775000D02*
X108050000Y64350000D01*
X108050000Y64350000D02*
X122200000Y64350000D01*
X122200000Y64350000D02*
X123000000Y65150000D01*
X123000000Y65150000D02*
X162700000Y65150000D01*
X162700000Y65150000D02*
X163000000Y65450000D01*
X163000000Y65450000D02*
X168750000Y65450000D01*
X168750000Y65450000D02*
X175800000Y58400000D01*
X175800000Y58400000D02*
X175800000Y48600000D01*
X175800000Y48600000D02*
X178250000Y46150000D01*
X178250000Y46150000D02*
X180950000Y46150000D01*
X180950000Y46150000D02*
X182400000Y44700000D01*
X182400000Y44700000D02*
X182400000Y38550000D01*
X182400000Y38550000D02*
X181250000Y37400000D01*
X181250000Y37400000D02*
X177250000Y37400000D01*
%TO.N,/BQ1/OTG3*%
X103640000Y18190000D02*
X103650000Y18180000D01*
X103650000Y18180000D02*
X104040000Y18180000D01*
X104040000Y18180000D02*
X104740000Y18880000D01*
X104740000Y18880000D02*
X104740000Y24700000D01*
X104740000Y24700000D02*
X103920000Y25520000D01*
X103920000Y25520000D02*
X103920000Y29160000D01*
X103920000Y29160000D02*
X103910000Y29160000D01*
X103910000Y29160000D02*
X102860000Y30210000D01*
X85700000Y31080000D02*
X85700000Y34500000D01*
X86570000Y30210000D02*
X85700000Y31080000D01*
X94710000Y30210000D02*
X86570000Y30210000D01*
X102860000Y30210000D02*
X94710000Y30210000D01*
%TO.N,/BQ1/OTG2*%
X127780000Y27790000D02*
X127900000Y27670000D01*
X127900000Y27670000D02*
X133970000Y27670000D01*
X133970000Y27670000D02*
X134920000Y28620000D01*
X134920000Y28620000D02*
X134920000Y34020000D01*
X134400000Y34540000D02*
X134400000Y35150000D01*
X134920000Y34020000D02*
X134400000Y34540000D01*
%TO.N,/BQ1/CHRG_OK2*%
X105800000Y58800000D02*
X104750000Y59850000D01*
X99900000Y59850000D02*
X99800000Y59750000D01*
X104750000Y59850000D02*
X99900000Y59850000D01*
%TO.N,/BQ1/SDA3*%
X87930000Y38580000D02*
X88050000Y38700000D01*
X88050000Y38700000D02*
X94900000Y38700000D01*
X104320000Y29280000D02*
X104320000Y25680000D01*
X104320000Y25680000D02*
X105080000Y24920000D01*
X105080000Y24920000D02*
X105080000Y18090000D01*
X104780000Y17790000D02*
X104180000Y17790000D01*
X105080000Y18090000D02*
X104780000Y17790000D01*
X87930000Y38580000D02*
X87820000Y38580000D01*
X87820000Y38580000D02*
X87600000Y38800000D01*
X87600000Y38800000D02*
X87600000Y39575000D01*
X87600000Y39575000D02*
X88975000Y40950000D01*
X88975000Y40950000D02*
X94575000Y40950000D01*
X94575000Y40950000D02*
X100075000Y46450000D01*
X100075000Y46450000D02*
X100075000Y56450000D01*
X101850000Y58225000D02*
X101850000Y58375000D01*
X100075000Y56450000D02*
X101850000Y58225000D01*
X96650000Y36850000D02*
X96750000Y36850000D01*
X96100000Y36300000D02*
X96650000Y36850000D01*
X96750000Y36850000D02*
X104320000Y29280000D01*
X94900000Y38700000D02*
X96750000Y36850000D01*
%TO.N,/BQ1/SDA2*%
X141590000Y29440000D02*
X141590000Y36650000D01*
X105830000Y21460000D02*
X111020000Y21460000D01*
X111440000Y21880000D02*
X134030000Y21880000D01*
X111020000Y21460000D02*
X111440000Y21880000D01*
X134030000Y21880000D02*
X141590000Y29440000D01*
X107100000Y22000000D02*
X108100000Y23000000D01*
X108100000Y23000000D02*
X108100000Y27400000D01*
X108100000Y27400000D02*
X108100000Y29300000D01*
X108100000Y29300000D02*
X107200000Y30200000D01*
X107200000Y30200000D02*
X104400000Y30200000D01*
X104400000Y30200000D02*
X98000000Y36600000D01*
X98000000Y36600000D02*
X98000000Y42700000D01*
%TO.N,/BQ1/SCL3*%
X104090000Y17260000D02*
X104100000Y17270000D01*
X104100000Y17270000D02*
X104860000Y17270000D01*
X104860000Y17270000D02*
X105430000Y17840000D01*
X105430000Y17840000D02*
X105430000Y25070000D01*
X105430000Y25070000D02*
X104680000Y25820000D01*
X104680000Y25820000D02*
X104680000Y29450000D01*
X95020000Y39110000D02*
X88060000Y39110000D01*
X88060000Y39110000D02*
X88060000Y39435000D01*
X88060000Y39435000D02*
X89150000Y40525000D01*
X89150000Y40525000D02*
X94725000Y40525000D01*
X94725000Y40525000D02*
X100525000Y46325000D01*
X100525000Y46325000D02*
X100525000Y56450000D01*
X103175000Y59100000D02*
X103425000Y59100000D01*
X100525000Y56450000D02*
X103175000Y59100000D01*
X96900000Y37230000D02*
X96915000Y37215000D01*
X96900000Y37600000D02*
X96900000Y37230000D01*
X96915000Y37215000D02*
X95020000Y39110000D01*
X104680000Y29450000D02*
X96915000Y37215000D01*
%TO.N,/BQ1/SCL2*%
X138240000Y37680000D02*
X138280000Y37680000D01*
X138280000Y37680000D02*
X138570000Y37390000D01*
X138570000Y37390000D02*
X141590000Y37390000D01*
X141590000Y37390000D02*
X142040000Y36940000D01*
X142040000Y36940000D02*
X142040000Y29320000D01*
X142040000Y29320000D02*
X134300000Y21580000D01*
X134300000Y21580000D02*
X118040000Y21580000D01*
X118040000Y21580000D02*
X111620000Y21580000D01*
X111620000Y21580000D02*
X111080000Y21040000D01*
X106240000Y21040000D02*
X106230000Y21030000D01*
X111080000Y21040000D02*
X106240000Y21040000D01*
X108600000Y22800000D02*
X107700000Y21900000D01*
X108600000Y29400000D02*
X108600000Y22800000D01*
X107500000Y30500000D02*
X108600000Y29400000D01*
X104600000Y30500000D02*
X107500000Y30500000D01*
X98700000Y36400000D02*
X104600000Y30500000D01*
X98700000Y42700000D02*
X98700000Y36400000D01*
%TO.N,/SS*%
X146825000Y7875000D02*
X142570000Y7875000D01*
X147100000Y7600000D02*
X146825000Y7875000D01*
D28*
%TO.N,Net-(U12-Pad4)*%
X169000000Y36900000D02*
X165600000Y36900000D01*
X165600000Y36900000D02*
X162600000Y33900000D01*
X162600000Y33900000D02*
X162600000Y29000000D01*
%TO.N,Net-(U13-Pad24)*%
X170300000Y40200000D02*
X165400000Y40200000D01*
X165400000Y40200000D02*
X162600000Y43000000D01*
X162600000Y43000000D02*
X162600000Y52200000D01*
%TO.N,Net-(U21-Pad4)*%
X82000000Y37700000D02*
X78300000Y37700000D01*
X75300000Y34700000D02*
X75300000Y28500000D01*
X78300000Y37700000D02*
X75300000Y34700000D01*
%TO.N,Net-(U22-Pad4)*%
X130750000Y36700000D02*
X127200000Y36700000D01*
X122150000Y31650000D02*
X122150000Y27750000D01*
X127200000Y36700000D02*
X122150000Y31650000D01*
%TO.N,Net-(U23-Pad24)*%
X82500000Y41100000D02*
X78100000Y41100000D01*
X78100000Y41100000D02*
X74300000Y44900000D01*
X74300000Y44900000D02*
X74300000Y52000000D01*
%TO.N,Net-(U26-Pad24)*%
X132250000Y40400000D02*
X127450000Y40400000D01*
X127450000Y40400000D02*
X122500000Y45350000D01*
X122500000Y45350000D02*
X121200000Y46650000D01*
X120900000Y46950000D02*
X120900000Y51600000D01*
X121200000Y46650000D02*
X120900000Y46950000D01*
D27*
%TO.N,/FAN*%
X46000000Y76700000D02*
X45350000Y76050000D01*
X83100000Y76700000D02*
X46000000Y76700000D01*
%TO.N,/BQ1/CHRG_OK1*%
X47400000Y33600000D02*
X47400000Y32525000D01*
X47400000Y32525000D02*
X47975000Y31950000D01*
X47975000Y31950000D02*
X47975000Y31525000D01*
X47975000Y31525000D02*
X48975000Y30525000D01*
X48975000Y30525000D02*
X51400000Y30525000D01*
X51400000Y30525000D02*
X59850000Y38975000D01*
X59850000Y38975000D02*
X59850000Y47800000D01*
X59850000Y47800000D02*
X67875000Y55825000D01*
X67875000Y55825000D02*
X74400000Y55825000D01*
X74400000Y55825000D02*
X75525000Y54700000D01*
X75525000Y54700000D02*
X77800000Y54700000D01*
X77800000Y54700000D02*
X78925000Y55825000D01*
X78925000Y55825000D02*
X84225000Y55825000D01*
X84225000Y55825000D02*
X84250000Y55825000D01*
X84250000Y55825000D02*
X90275000Y61850000D01*
X90275000Y61850000D02*
X95200000Y61850000D01*
X95675000Y61375000D02*
X95825000Y61375000D01*
X95200000Y61850000D02*
X95675000Y61375000D01*
D32*
%TO.N,/BQ1/PN1*%
X107434187Y20261207D02*
X107297394Y20398000D01*
X107434187Y20059187D02*
X107434187Y20261207D01*
X107297394Y20398000D02*
X106677606Y20398000D01*
X106677606Y20398000D02*
X106202000Y19922394D01*
X106202000Y19922394D02*
X106202000Y16447394D01*
X106202000Y16447394D02*
X104602606Y14848000D01*
X104602606Y14848000D02*
X103077606Y14848000D01*
X103077606Y14848000D02*
X102477606Y14248000D01*
X102477606Y14248000D02*
X97047394Y14248000D01*
X97047394Y14248000D02*
X96722394Y14573000D01*
X96722394Y14573000D02*
X94872394Y14573000D01*
X94872394Y14573000D02*
X93773000Y15672394D01*
X93773000Y15672394D02*
X93773000Y16722394D01*
X93773000Y16722394D02*
X93072394Y17423000D01*
X93072394Y17423000D02*
X92502606Y17423000D01*
X92227000Y16742850D02*
X92369850Y16600000D01*
X92227000Y17147394D02*
X92227000Y16742850D01*
X92502606Y17423000D02*
X92227000Y17147394D01*
%TO.N,/BQ1/PP1*%
X107613793Y20440813D02*
X107402606Y20652000D01*
X107815813Y20440813D02*
X107613793Y20440813D01*
X107402606Y20652000D02*
X106572394Y20652000D01*
X106572394Y20652000D02*
X105948000Y20027606D01*
X105948000Y20027606D02*
X105948000Y16552606D01*
X105948000Y16552606D02*
X104497394Y15102000D01*
X104497394Y15102000D02*
X102972394Y15102000D01*
X102972394Y15102000D02*
X102372394Y14502000D01*
X102372394Y14502000D02*
X97152606Y14502000D01*
X97152606Y14502000D02*
X96827606Y14827000D01*
X96827606Y14827000D02*
X94977606Y14827000D01*
X94977606Y14827000D02*
X94027000Y15777606D01*
X94027000Y15777606D02*
X94027000Y16827606D01*
X94027000Y16827606D02*
X93177606Y17677000D01*
X93177606Y17677000D02*
X92397394Y17677000D01*
X91973000Y17252606D02*
X91973000Y16742850D01*
X91973000Y16742850D02*
X91830150Y16600000D01*
X92397394Y17677000D02*
X91973000Y17252606D01*
%TD*%
M02*
