%TF.GenerationSoftware,KiCad,Pcbnew,6.0.0*%
%TF.CreationDate,2022-01-14T14:38:35+01:00*%
%TF.ProjectId,PowerBank V0.2,506f7765-7242-4616-9e6b-2056302e322e,rev?*%
%TF.SameCoordinates,PX2aea540PY80befc0*%
%TF.FileFunction,Soldermask,Top*%
%TF.FilePolarity,Negative*%
%FSLAX46Y46*%
G04 Gerber Fmt 4.6, Leading zero omitted, Abs format (unit mm)*
G04 Created by KiCad (PCBNEW 6.0.0) date 2022-01-14 14:38:35*
%MOMM*%
%LPD*%
G01*
G04 APERTURE LIST*
G04 Aperture macros list*
%AMRoundRect*
0 Rectangle with rounded corners*
0 $1 Rounding radius*
0 $2 $3 $4 $5 $6 $7 $8 $9 X,Y pos of 4 corners*
0 Add a 4 corners polygon primitive as box body*
4,1,4,$2,$3,$4,$5,$6,$7,$8,$9,$2,$3,0*
0 Add four circle primitives for the rounded corners*
1,1,$1+$1,$2,$3*
1,1,$1+$1,$4,$5*
1,1,$1+$1,$6,$7*
1,1,$1+$1,$8,$9*
0 Add four rect primitives between the rounded corners*
20,1,$1+$1,$2,$3,$4,$5,0*
20,1,$1+$1,$4,$5,$6,$7,0*
20,1,$1+$1,$6,$7,$8,$9,0*
20,1,$1+$1,$8,$9,$2,$3,0*%
%AMFreePoly0*
4,1,43,1.580355,1.210355,1.595000,1.175000,1.595000,0.775000,1.580355,0.739645,1.545000,0.725000,0.975000,0.725000,0.975000,0.575000,1.545000,0.575000,1.580355,0.560355,1.595000,0.525000,1.595000,0.125000,1.580355,0.089645,1.545000,0.075000,0.975000,0.075000,0.975000,-0.075000,1.545000,-0.075000,1.580355,-0.089645,1.595000,-0.125000,1.595000,-0.525000,1.580355,-0.560355,
1.545000,-0.575000,0.975000,-0.575000,0.975000,-0.725000,1.545000,-0.725000,1.580355,-0.739645,1.595000,-0.775000,1.595000,-1.175000,1.580355,-1.210355,1.545000,-1.225000,0.925000,-1.225000,0.889645,-1.210355,0.875000,-1.175000,-0.925000,-1.175000,-0.960355,-1.160355,-0.975000,-1.125000,-0.975000,1.125000,-0.960355,1.160355,-0.925000,1.175000,0.875000,1.175000,0.889645,1.210355,
0.925000,1.225000,1.545000,1.225000,1.580355,1.210355,1.580355,1.210355,$1*%
G04 Aperture macros list end*
%ADD10C,0.152400*%
%ADD11R,1.000000X1.000000*%
%ADD12O,1.000000X1.000000*%
%ADD13R,1.450000X1.450000*%
%ADD14R,0.700000X0.700000*%
%ADD15R,0.400000X0.800000*%
%ADD16R,0.800000X0.400000*%
%ADD17R,4.200000X4.200000*%
%ADD18RoundRect,0.006600X0.398400X0.103400X-0.398400X0.103400X-0.398400X-0.103400X0.398400X-0.103400X0*%
%ADD19RoundRect,0.006600X0.103400X0.398400X-0.103400X0.398400X-0.103400X-0.398400X0.103400X-0.398400X0*%
%ADD20RoundRect,0.135000X-0.135000X-0.185000X0.135000X-0.185000X0.135000X0.185000X-0.135000X0.185000X0*%
%ADD21RoundRect,0.135000X0.135000X0.185000X-0.135000X0.185000X-0.135000X-0.185000X0.135000X-0.185000X0*%
%ADD22RoundRect,0.135000X0.185000X-0.135000X0.185000X0.135000X-0.185000X0.135000X-0.185000X-0.135000X0*%
%ADD23RoundRect,0.135000X-0.185000X0.135000X-0.185000X-0.135000X0.185000X-0.135000X0.185000X0.135000X0*%
%ADD24RoundRect,0.200000X-0.200000X-0.275000X0.200000X-0.275000X0.200000X0.275000X-0.200000X0.275000X0*%
%ADD25RoundRect,0.200000X0.200000X0.275000X-0.200000X0.275000X-0.200000X-0.275000X0.200000X-0.275000X0*%
%ADD26RoundRect,0.050000X0.415000X0.200000X-0.415000X0.200000X-0.415000X-0.200000X0.415000X-0.200000X0*%
%ADD27FreePoly0,180.000000*%
%ADD28RoundRect,0.050000X-0.415000X-0.200000X0.415000X-0.200000X0.415000X0.200000X-0.415000X0.200000X0*%
%ADD29FreePoly0,0.000000*%
%ADD30RoundRect,0.218750X-0.218750X-0.256250X0.218750X-0.256250X0.218750X0.256250X-0.218750X0.256250X0*%
%ADD31C,1.400000*%
%ADD32R,3.000000X3.000000*%
%ADD33C,3.000000*%
%ADD34C,0.800000*%
%ADD35C,5.000000*%
%ADD36RoundRect,0.225000X-0.250000X0.225000X-0.250000X-0.225000X0.250000X-0.225000X0.250000X0.225000X0*%
%ADD37RoundRect,0.225000X-0.225000X-0.250000X0.225000X-0.250000X0.225000X0.250000X-0.225000X0.250000X0*%
%ADD38RoundRect,0.225000X0.250000X-0.225000X0.250000X0.225000X-0.250000X0.225000X-0.250000X-0.225000X0*%
%ADD39RoundRect,0.140000X-0.170000X0.140000X-0.170000X-0.140000X0.170000X-0.140000X0.170000X0.140000X0*%
%ADD40RoundRect,0.225000X0.225000X0.250000X-0.225000X0.250000X-0.225000X-0.250000X0.225000X-0.250000X0*%
%ADD41RoundRect,0.140000X0.170000X-0.140000X0.170000X0.140000X-0.170000X0.140000X-0.170000X-0.140000X0*%
%ADD42RoundRect,0.140000X0.140000X0.170000X-0.140000X0.170000X-0.140000X-0.170000X0.140000X-0.170000X0*%
%ADD43R,0.900000X0.800000*%
%ADD44C,0.400000*%
%ADD45C,0.499999*%
%ADD46O,0.200000X0.549999*%
%ADD47O,0.549999X0.200000*%
%ADD48R,2.799999X2.799999*%
%ADD49R,0.299999X0.800001*%
%ADD50R,0.800001X0.299999*%
%ADD51R,2.600000X1.749999*%
%ADD52R,2.550000X1.749999*%
%ADD53R,5.499999X3.400001*%
%ADD54RoundRect,0.100000X-0.637500X-0.100000X0.637500X-0.100000X0.637500X0.100000X-0.637500X0.100000X0*%
%ADD55R,1.803400X1.803400*%
%ADD56R,0.812800X0.203200*%
%ADD57R,0.203200X0.812800*%
%ADD58RoundRect,0.150000X0.150000X-0.825000X0.150000X0.825000X-0.150000X0.825000X-0.150000X-0.825000X0*%
%ADD59C,2.000000*%
%ADD60R,2.000000X2.000000*%
%ADD61RoundRect,0.200000X0.275000X-0.200000X0.275000X0.200000X-0.275000X0.200000X-0.275000X-0.200000X0*%
%ADD62RoundRect,0.200000X-0.275000X0.200000X-0.275000X-0.200000X0.275000X-0.200000X0.275000X0.200000X0*%
%ADD63RoundRect,0.249999X-0.262501X-0.450001X0.262501X-0.450001X0.262501X0.450001X-0.262501X0.450001X0*%
%ADD64R,0.350000X0.700000*%
%ADD65C,0.650000*%
%ADD66O,1.000000X2.000000*%
%ADD67R,1.700000X1.700000*%
%ADD68O,1.700000X1.700000*%
%ADD69RoundRect,0.218750X0.218750X0.256250X-0.218750X0.256250X-0.218750X-0.256250X0.218750X-0.256250X0*%
%ADD70RoundRect,0.250000X0.250000X0.475000X-0.250000X0.475000X-0.250000X-0.475000X0.250000X-0.475000X0*%
%ADD71RoundRect,0.140000X-0.140000X-0.170000X0.140000X-0.170000X0.140000X0.170000X-0.140000X0.170000X0*%
%ADD72RoundRect,0.250000X0.787500X1.025000X-0.787500X1.025000X-0.787500X-1.025000X0.787500X-1.025000X0*%
%ADD73RoundRect,0.250000X-0.250000X-0.475000X0.250000X-0.475000X0.250000X0.475000X-0.250000X0.475000X0*%
G04 APERTURE END LIST*
D10*
%TO.C,U25*%
X97200000Y14399999D02*
X97599999Y14399999D01*
X97200000Y14600001D02*
X97200000Y14399999D01*
X97599999Y14600001D02*
X97200000Y14600001D01*
X97599999Y14399999D02*
X97599999Y14600001D01*
X98000001Y14399999D02*
X98400000Y14399999D01*
X98000001Y14600001D02*
X98000001Y14399999D01*
X98400000Y14600001D02*
X98000001Y14600001D01*
X98400000Y14399999D02*
X98400000Y14600001D01*
X101200000Y14399999D02*
X101599999Y14399999D01*
X101200000Y14600001D02*
X101200000Y14399999D01*
X101599999Y14600001D02*
X101200000Y14600001D01*
X101599999Y14399999D02*
X101599999Y14600001D01*
X102000001Y14399999D02*
X102400000Y14399999D01*
X102000001Y14600001D02*
X102000001Y14399999D01*
X102400000Y14600001D02*
X102000001Y14600001D01*
X102400000Y14399999D02*
X102400000Y14600001D01*
%TD*%
D11*
%TO.C,EN*%
X104225000Y32130000D03*
D12*
X105495000Y32130000D03*
%TD*%
D11*
%TO.C,3v3*%
X2244000Y50799000D03*
D12*
X2244000Y49529000D03*
%TD*%
D11*
%TO.C,IO8*%
X2244000Y53197000D03*
D12*
X2244000Y54467000D03*
%TD*%
D11*
%TO.C,EN*%
X2498000Y19318000D03*
D12*
X2498000Y18048000D03*
%TD*%
D13*
%TO.C,IC1*%
X10626000Y33818000D03*
X12601000Y33818000D03*
X12601000Y31843000D03*
X12601000Y29868000D03*
X10626000Y29868000D03*
X8651000Y29868000D03*
X8651000Y31843000D03*
X8651000Y33818000D03*
D14*
X4676000Y36793000D03*
X4676000Y26893000D03*
X16576000Y26893000D03*
X16576000Y36793000D03*
D13*
X10626000Y31843000D03*
D15*
X5826000Y36743000D03*
X6626000Y36743000D03*
X7426000Y36743000D03*
X8226000Y36743000D03*
X9026000Y36743000D03*
X9826000Y36743000D03*
X10626000Y36743000D03*
X11426000Y36743000D03*
X12226000Y36743000D03*
X13026000Y36743000D03*
X13826000Y36743000D03*
X14626000Y36743000D03*
X15426000Y36743000D03*
D16*
X16526000Y35843000D03*
X16526000Y35043000D03*
X16526000Y34243000D03*
X16526000Y33443000D03*
X16526000Y32643000D03*
X16526000Y31843000D03*
X16526000Y31043000D03*
X16526000Y30243000D03*
X16526000Y29443000D03*
X16526000Y28643000D03*
X16526000Y27843000D03*
D15*
X15426000Y26943000D03*
X14626000Y26943000D03*
X13826000Y26943000D03*
X13026000Y26943000D03*
X12226000Y26943000D03*
X11426000Y26943000D03*
X10626000Y26943000D03*
X9826000Y26943000D03*
X9026000Y26943000D03*
X8226000Y26943000D03*
X7426000Y26943000D03*
X6626000Y26943000D03*
X5826000Y26943000D03*
D16*
X4726000Y27843000D03*
X4726000Y28643000D03*
X4726000Y29443000D03*
X4726000Y30243000D03*
X4726000Y31043000D03*
X4726000Y31843000D03*
X4726000Y32643000D03*
X4726000Y33443000D03*
X4726000Y34243000D03*
X4726000Y35043000D03*
X4726000Y35843000D03*
%TD*%
D11*
%TO.C,IO9*%
X2498000Y21716000D03*
D12*
X2498000Y22986000D03*
%TD*%
D17*
%TO.C,U36*%
X22934000Y69849000D03*
D18*
X19984000Y67649000D03*
X19984000Y68049000D03*
X19984000Y68449000D03*
X19984000Y68849000D03*
X19984000Y69249000D03*
X19984000Y69649000D03*
X19984000Y70049000D03*
X19984000Y70449000D03*
X19984000Y70849000D03*
X19984000Y71249000D03*
X19984000Y71649000D03*
X19984000Y72049000D03*
X25884000Y72049000D03*
X25884000Y71649000D03*
X25884000Y71249000D03*
X25884000Y70849000D03*
X25884000Y70449000D03*
X25884000Y70049000D03*
X25884000Y69649000D03*
X25884000Y69249000D03*
X25884000Y68849000D03*
X25884000Y68449000D03*
X25884000Y68049000D03*
X25884000Y67649000D03*
D19*
X25134000Y66899000D03*
X24734000Y66899000D03*
X24334000Y66899000D03*
X23934000Y66899000D03*
X23534000Y66899000D03*
X23134000Y66899000D03*
X22734000Y66899000D03*
X22334000Y66899000D03*
X21934000Y66899000D03*
X21534000Y66899000D03*
X21134000Y66899000D03*
X20734000Y66899000D03*
X20734000Y72799000D03*
X21134000Y72799000D03*
X21534000Y72799000D03*
X21934000Y72799000D03*
X22334000Y72799000D03*
X22734000Y72799000D03*
X23134000Y72799000D03*
X23534000Y72799000D03*
X23934000Y72799000D03*
X24334000Y72799000D03*
X24734000Y72799000D03*
X25134000Y72799000D03*
%TD*%
D20*
%TO.C,R149*%
X174964000Y8254000D03*
X173944000Y8254000D03*
%TD*%
%TO.C,R148*%
X174966000Y9651000D03*
X173946000Y9651000D03*
%TD*%
D21*
%TO.C,R147*%
X173948000Y25907000D03*
X174968000Y25907000D03*
%TD*%
D20*
%TO.C,R143*%
X9231000Y83692000D03*
X8211000Y83692000D03*
%TD*%
D22*
%TO.C,R142*%
X9229000Y58546000D03*
X9229000Y57526000D03*
%TD*%
D23*
%TO.C,R140*%
X28279000Y63626000D03*
X28279000Y62606000D03*
%TD*%
%TO.C,R139*%
X29295000Y62606000D03*
X29295000Y63626000D03*
%TD*%
D22*
%TO.C,R138*%
X27263000Y63630000D03*
X27263000Y62610000D03*
%TD*%
D24*
%TO.C,R136*%
X18373000Y62229000D03*
X16723000Y62229000D03*
%TD*%
D22*
%TO.C,R135*%
X10753000Y61469000D03*
X10753000Y60449000D03*
%TD*%
D20*
%TO.C,R133*%
X16597000Y82295000D03*
X15577000Y82295000D03*
%TD*%
%TO.C,R132*%
X13166000Y71754000D03*
X12146000Y71754000D03*
%TD*%
%TO.C,R131*%
X16216000Y71627000D03*
X15196000Y71627000D03*
%TD*%
%TO.C,R130*%
X13041000Y60578000D03*
X12021000Y60578000D03*
%TD*%
D24*
%TO.C,R129*%
X22564000Y75564000D03*
X20914000Y75564000D03*
%TD*%
D25*
%TO.C,R128*%
X23962000Y75564000D03*
X25612000Y75564000D03*
%TD*%
D24*
%TO.C,R126*%
X23643000Y59308000D03*
X21993000Y59308000D03*
%TD*%
D26*
%TO.C,Q5*%
X15568000Y79430000D03*
X15568000Y78780000D03*
X15568000Y80080000D03*
X15568000Y80730000D03*
D27*
X13628000Y79755000D03*
%TD*%
D28*
%TO.C,Q4*%
X12395000Y74619000D03*
X12395000Y75269000D03*
X12395000Y73969000D03*
X12395000Y73319000D03*
D29*
X14335000Y74294000D03*
%TD*%
D26*
%TO.C,Q3*%
X15226000Y68753000D03*
X15226000Y68103000D03*
X15226000Y69403000D03*
X15226000Y70053000D03*
D27*
X13286000Y69078000D03*
%TD*%
D28*
%TO.C,Q2*%
X11990000Y63443000D03*
X11990000Y64093000D03*
X11990000Y62793000D03*
X11990000Y62143000D03*
D29*
X13930000Y63118000D03*
%TD*%
D30*
%TO.C,L7*%
X30463500Y69341000D03*
X28888500Y69341000D03*
%TD*%
D31*
%TO.C,J14*%
X188520000Y15445000D03*
X188520000Y2445000D03*
D32*
X178520000Y12445000D03*
D33*
X178520000Y8945000D03*
X178520000Y5445000D03*
%TD*%
D34*
%TO.C,H2*%
X4712825Y80191825D03*
X3387000Y80741000D03*
X2061175Y80191825D03*
X1512000Y78866000D03*
X2061175Y77540175D03*
X3387000Y76991000D03*
X4712825Y77540175D03*
X5262000Y78866000D03*
D35*
X3387000Y78866000D03*
%TD*%
D34*
%TO.C,H1*%
X4458825Y66475825D03*
X3133000Y67025000D03*
X1807175Y66475825D03*
X1258000Y65150000D03*
X1807175Y63824175D03*
X3133000Y63275000D03*
X4458825Y63824175D03*
X5008000Y65150000D03*
D35*
X3133000Y65150000D03*
%TD*%
D36*
%TO.C,C254*%
X2117000Y31736000D03*
X2117000Y33286000D03*
%TD*%
D37*
%TO.C,C251*%
X9229000Y64642000D03*
X7679000Y64642000D03*
%TD*%
%TO.C,C250*%
X9229000Y66166000D03*
X7679000Y66166000D03*
%TD*%
%TO.C,C249*%
X9229000Y63118000D03*
X7679000Y63118000D03*
%TD*%
D38*
%TO.C,C248*%
X9229000Y82422000D03*
X9229000Y80872000D03*
%TD*%
D36*
%TO.C,C247*%
X9229000Y59917000D03*
X9229000Y61467000D03*
%TD*%
%TO.C,C246*%
X19643000Y58660000D03*
X19643000Y60210000D03*
%TD*%
%TO.C,C245*%
X16595000Y60210000D03*
X16595000Y58660000D03*
%TD*%
%TO.C,C244*%
X18119000Y60223000D03*
X18119000Y58673000D03*
%TD*%
%TO.C,C243*%
X15071000Y58647000D03*
X15071000Y60197000D03*
%TD*%
D37*
%TO.C,C242*%
X27504000Y64896000D03*
X29054000Y64896000D03*
%TD*%
D39*
%TO.C,C241*%
X22437000Y62765000D03*
X22437000Y63725000D03*
%TD*%
D40*
%TO.C,C238*%
X31949000Y69341000D03*
X33499000Y69341000D03*
%TD*%
D37*
%TO.C,C236*%
X30451000Y70865000D03*
X28901000Y70865000D03*
%TD*%
%TO.C,C234*%
X30451000Y72389000D03*
X28901000Y72389000D03*
%TD*%
D40*
%TO.C,C233*%
X28901000Y67817000D03*
X30451000Y67817000D03*
%TD*%
D38*
%TO.C,C232*%
X21167000Y63512000D03*
X21167000Y61962000D03*
%TD*%
D39*
%TO.C,C231*%
X23453000Y62765000D03*
X23453000Y63725000D03*
%TD*%
D41*
%TO.C,C230*%
X23707000Y61566000D03*
X23707000Y60606000D03*
%TD*%
D38*
%TO.C,C229*%
X17611000Y71386000D03*
X17611000Y69836000D03*
%TD*%
D42*
%TO.C,C228*%
X18528000Y65658000D03*
X19488000Y65658000D03*
%TD*%
D39*
%TO.C,C227*%
X24469000Y62765000D03*
X24469000Y63725000D03*
%TD*%
D40*
%TO.C,C1*%
X30200000Y15250000D03*
X31750000Y15250000D03*
%TD*%
D39*
%TO.C,C150*%
X105800000Y18500000D03*
X105800000Y17540000D03*
%TD*%
D11*
%TO.C,FLASH*%
X106000000Y29000000D03*
D12*
X107270000Y29000000D03*
X106000000Y27730000D03*
X107270000Y27730000D03*
X106000000Y26460000D03*
X107270000Y26460000D03*
%TD*%
D11*
%TO.C,J12*%
X126700000Y81670000D03*
D12*
X127970000Y81670000D03*
X126700000Y80400000D03*
X127970000Y80400000D03*
X126700000Y79130000D03*
X127970000Y79130000D03*
%TD*%
D20*
%TO.C,R124*%
X43280000Y76100000D03*
X44300000Y76100000D03*
%TD*%
D43*
%TO.C,Q1*%
X43450000Y74650000D03*
X43450000Y72750000D03*
X45450000Y73700000D03*
%TD*%
D11*
%TO.C,J11*%
X41050000Y73100000D03*
D12*
X41050000Y74370000D03*
%TD*%
D11*
%TO.C,J10*%
X37850000Y74450000D03*
D12*
X37850000Y73180000D03*
%TD*%
D44*
%TO.C,Y1*%
X138050000Y8200000D03*
X137350000Y8200000D03*
%TD*%
D45*
%TO.C,U35*%
X64100001Y38800000D03*
X63000004Y38800000D03*
%TD*%
%TO.C,U34*%
X25250001Y36000000D03*
X24150004Y36000000D03*
%TD*%
%TO.C,U33*%
X113550001Y39000000D03*
X112450004Y39000000D03*
%TD*%
%TO.C,U32*%
X152050001Y38500000D03*
X150950004Y38500000D03*
%TD*%
D46*
%TO.C,U26*%
X132649916Y36275000D03*
X133049999Y36275000D03*
X133449999Y36275000D03*
X133849998Y36275000D03*
X134250000Y36275000D03*
X134649999Y36275000D03*
X135049998Y36275000D03*
X135450000Y36275000D03*
D47*
X135975000Y36799998D03*
X135975000Y37199999D03*
X135975000Y37599999D03*
X135975000Y37999998D03*
X135975000Y38400000D03*
X135975000Y38799999D03*
X135975000Y39199998D03*
X135975000Y39600000D03*
D46*
X135450000Y40125000D03*
X135049998Y40125000D03*
X134649999Y40125000D03*
X134250000Y40125000D03*
X133849998Y40125000D03*
X133449999Y40125000D03*
X133049999Y40125000D03*
X132649916Y40125000D03*
D47*
X132125000Y39600002D03*
X132125000Y39200001D03*
X132125000Y38800001D03*
X132125000Y38400002D03*
X132125000Y38000000D03*
X132125000Y37600001D03*
X132125000Y37200002D03*
X132125000Y36800000D03*
D48*
X134049919Y38200084D03*
D45*
X135200000Y38200000D03*
X134050000Y39350000D03*
X134050000Y38200000D03*
X134050000Y37050000D03*
X132900000Y38200000D03*
%TD*%
D49*
%TO.C,U25*%
X97199998Y14249999D03*
X97599997Y14249999D03*
X97999999Y14249999D03*
X98399998Y14249999D03*
X98799997Y14249999D03*
X99199999Y14249999D03*
X99599998Y14249999D03*
X99999997Y14249999D03*
X100399996Y14249999D03*
X100799998Y14249999D03*
X101199997Y14249999D03*
X101599999Y14249999D03*
X101999998Y14249999D03*
X102399997Y14249999D03*
D50*
X103150001Y15000000D03*
X103150001Y15399999D03*
X103150001Y15800001D03*
X103150001Y16200000D03*
X103150001Y16599999D03*
X103150001Y17000001D03*
X103150001Y17400000D03*
X103150001Y17800000D03*
X103150001Y18199999D03*
X103150001Y18600001D03*
X103150001Y19000000D03*
X103150001Y19400001D03*
X103150001Y19800001D03*
X103150001Y20200000D03*
D49*
X102400000Y20950001D03*
X102000001Y20950001D03*
X101599999Y20950001D03*
X101200000Y20950001D03*
X100800001Y20950001D03*
X100399999Y20950001D03*
X100000000Y20950001D03*
X99600000Y20950001D03*
X99200001Y20950001D03*
X98799999Y20950001D03*
X98400000Y20950001D03*
X97999999Y20950001D03*
X97599999Y20950001D03*
X97200000Y20950001D03*
D50*
X96450002Y20200000D03*
X96450002Y19800001D03*
X96450002Y19399999D03*
X96450002Y19000000D03*
X96450002Y18600001D03*
X96450002Y18199999D03*
X96450002Y17800000D03*
X96450002Y17400000D03*
X96450002Y17000001D03*
X96450002Y16599999D03*
X96450002Y16200000D03*
X96450002Y15799999D03*
X96450002Y15399999D03*
X96450002Y15000000D03*
D51*
X98350000Y15725000D03*
D52*
X101275001Y15725000D03*
D53*
X99800000Y18650000D03*
D45*
X100399999Y16200000D03*
X100399999Y15250000D03*
X102150000Y16200000D03*
X102150000Y15250000D03*
X101275001Y15250000D03*
X101275001Y16200000D03*
X99800000Y19850001D03*
X98480000Y19850001D03*
X99800000Y18675400D03*
X97300000Y18650000D03*
X98480000Y18650000D03*
X98480000Y17450000D03*
X99800000Y17450000D03*
X101120000Y17450000D03*
X101120000Y18650000D03*
X102300000Y18650000D03*
X101120000Y19850001D03*
X98350000Y16200000D03*
X98350000Y15250000D03*
X97475001Y15250000D03*
X97475001Y16200000D03*
X99225002Y15250000D03*
X99225002Y16200000D03*
%TD*%
D46*
%TO.C,U23*%
X83899916Y36975000D03*
X84299999Y36975000D03*
X84699999Y36975000D03*
X85099998Y36975000D03*
X85500000Y36975000D03*
X85899999Y36975000D03*
X86299998Y36975000D03*
X86700000Y36975000D03*
D47*
X87225000Y37499998D03*
X87225000Y37899999D03*
X87225000Y38299999D03*
X87225000Y38699998D03*
X87225000Y39100000D03*
X87225000Y39499999D03*
X87225000Y39899998D03*
X87225000Y40300000D03*
D46*
X86700000Y40825000D03*
X86299998Y40825000D03*
X85899999Y40825000D03*
X85500000Y40825000D03*
X85099998Y40825000D03*
X84699999Y40825000D03*
X84299999Y40825000D03*
X83899916Y40825000D03*
D47*
X83375000Y40300002D03*
X83375000Y39900001D03*
X83375000Y39500001D03*
X83375000Y39100002D03*
X83375000Y38700000D03*
X83375000Y38300001D03*
X83375000Y37900002D03*
X83375000Y37500000D03*
D48*
X85299919Y38900084D03*
D45*
X86450000Y38900000D03*
X85300000Y40050000D03*
X85300000Y38900000D03*
X85300000Y37750000D03*
X84150000Y38900000D03*
%TD*%
D54*
%TO.C,U20*%
X98687500Y63675000D03*
X98687500Y63025000D03*
X98687500Y62375000D03*
X98687500Y61725000D03*
X98687500Y61075000D03*
X98687500Y60425000D03*
X98687500Y59775000D03*
X98687500Y59125000D03*
X98687500Y58475000D03*
X98687500Y57825000D03*
X104412500Y57825000D03*
X104412500Y58475000D03*
X104412500Y59125000D03*
X104412500Y59775000D03*
X104412500Y60425000D03*
X104412500Y61075000D03*
X104412500Y61725000D03*
X104412500Y62375000D03*
X104412500Y63025000D03*
X104412500Y63675000D03*
%TD*%
D46*
%TO.C,U13*%
X170999916Y36275000D03*
X171399999Y36275000D03*
X171799999Y36275000D03*
X172199998Y36275000D03*
X172600000Y36275000D03*
X172999999Y36275000D03*
X173399998Y36275000D03*
X173800000Y36275000D03*
D47*
X174325000Y36799998D03*
X174325000Y37199999D03*
X174325000Y37599999D03*
X174325000Y37999998D03*
X174325000Y38400000D03*
X174325000Y38799999D03*
X174325000Y39199998D03*
X174325000Y39600000D03*
D46*
X173800000Y40125000D03*
X173399998Y40125000D03*
X172999999Y40125000D03*
X172600000Y40125000D03*
X172199998Y40125000D03*
X171799999Y40125000D03*
X171399999Y40125000D03*
X170999916Y40125000D03*
D47*
X170475000Y39600002D03*
X170475000Y39200001D03*
X170475000Y38800001D03*
X170475000Y38400002D03*
X170475000Y38000000D03*
X170475000Y37600001D03*
X170475000Y37200002D03*
X170475000Y36800000D03*
D48*
X172399919Y38200084D03*
D45*
X173550000Y38200000D03*
X172400000Y39350000D03*
X172400000Y38200000D03*
X172400000Y37050000D03*
X171250000Y38200000D03*
%TD*%
D55*
%TO.C,U11*%
X89500000Y13000000D03*
D56*
X88052200Y12199999D03*
X88052200Y12600001D03*
X88052200Y13000000D03*
X88052200Y13399999D03*
X88052200Y13800001D03*
D57*
X88699999Y14447800D03*
X89100001Y14447800D03*
X89500000Y14447800D03*
X89899999Y14447800D03*
X90300001Y14447800D03*
D56*
X90947800Y13800001D03*
X90947800Y13399999D03*
X90947800Y13000000D03*
X90947800Y12600001D03*
X90947800Y12199999D03*
D57*
X90300001Y11552200D03*
X89899999Y11552200D03*
X89500000Y11552200D03*
X89100001Y11552200D03*
X88699999Y11552200D03*
%TD*%
D55*
%TO.C,U10*%
X109500000Y13700000D03*
D56*
X108052200Y12899999D03*
X108052200Y13300001D03*
X108052200Y13700000D03*
X108052200Y14099999D03*
X108052200Y14500001D03*
D57*
X108699999Y15147800D03*
X109100001Y15147800D03*
X109500000Y15147800D03*
X109899999Y15147800D03*
X110300001Y15147800D03*
D56*
X110947800Y14500001D03*
X110947800Y14099999D03*
X110947800Y13700000D03*
X110947800Y13300001D03*
X110947800Y12899999D03*
D57*
X110300001Y12252200D03*
X109899999Y12252200D03*
X109500000Y12252200D03*
X109100001Y12252200D03*
X108699999Y12252200D03*
%TD*%
D58*
%TO.C,U7*%
X142570000Y7875000D03*
X143840000Y7875000D03*
X145110000Y7875000D03*
X146380000Y7875000D03*
X146380000Y12825000D03*
X145110000Y12825000D03*
X143840000Y12825000D03*
X142570000Y12825000D03*
%TD*%
D59*
%TO.C,S1*%
X134500000Y83000000D03*
X141000000Y83000000D03*
X134500000Y78500000D03*
D60*
X141000000Y78500000D03*
%TD*%
D22*
%TO.C,R122*%
X64300000Y35590000D03*
X64300000Y36610000D03*
%TD*%
%TO.C,R121*%
X63300000Y35590000D03*
X63300000Y36610000D03*
%TD*%
%TO.C,R120*%
X25400000Y32890000D03*
X25400000Y33910000D03*
%TD*%
%TO.C,R119*%
X113900000Y35390000D03*
X113900000Y36410000D03*
%TD*%
D23*
%TO.C,R118*%
X24400000Y33910000D03*
X24400000Y32890000D03*
%TD*%
D22*
%TO.C,R117*%
X112930000Y35390000D03*
X112930000Y36410000D03*
%TD*%
%TO.C,R116*%
X152600000Y35190000D03*
X152600000Y36210000D03*
%TD*%
%TO.C,R115*%
X151600000Y35190000D03*
X151600000Y36210000D03*
%TD*%
D25*
%TO.C,R114*%
X140525000Y43650000D03*
X138875000Y43650000D03*
%TD*%
D24*
%TO.C,R113*%
X138875000Y45100000D03*
X140525000Y45100000D03*
%TD*%
D25*
%TO.C,R112*%
X92325000Y44200000D03*
X90675000Y44200000D03*
%TD*%
D24*
%TO.C,R111*%
X90675000Y45700000D03*
X92325000Y45700000D03*
%TD*%
%TO.C,R110*%
X138475000Y34200000D03*
X140125000Y34200000D03*
%TD*%
%TO.C,R108*%
X89450000Y34400000D03*
X91100000Y34400000D03*
%TD*%
D21*
%TO.C,R102*%
X139160000Y40750000D03*
X138140000Y40750000D03*
%TD*%
D61*
%TO.C,R101*%
X99150000Y10375000D03*
X99150000Y12025000D03*
%TD*%
D21*
%TO.C,R100*%
X91010000Y41300000D03*
X89990000Y41300000D03*
%TD*%
D62*
%TO.C,R99*%
X99150000Y9025000D03*
X99150000Y7375000D03*
%TD*%
D61*
%TO.C,R98*%
X100650000Y7375000D03*
X100650000Y9025000D03*
%TD*%
D62*
%TO.C,R97*%
X100700000Y11985000D03*
X100700000Y10335000D03*
%TD*%
D20*
%TO.C,R96*%
X138190000Y39100000D03*
X139210000Y39100000D03*
%TD*%
D24*
%TO.C,R95*%
X92860000Y57680000D03*
X94510000Y57680000D03*
%TD*%
D20*
%TO.C,R94*%
X89990000Y39700000D03*
X91010000Y39700000D03*
%TD*%
D63*
%TO.C,R93*%
X126837500Y14150000D03*
X128662500Y14150000D03*
%TD*%
D24*
%TO.C,R92*%
X93175000Y34400000D03*
X94825000Y34400000D03*
%TD*%
%TO.C,R91*%
X92875000Y59180000D03*
X94525000Y59180000D03*
%TD*%
D63*
%TO.C,R90*%
X76387500Y15000000D03*
X78212500Y15000000D03*
%TD*%
D24*
%TO.C,R89*%
X93175000Y35900000D03*
X94825000Y35900000D03*
%TD*%
%TO.C,R87*%
X93150000Y32900000D03*
X94800000Y32900000D03*
%TD*%
%TO.C,R85*%
X95175000Y22900000D03*
X96825000Y22900000D03*
%TD*%
%TO.C,R83*%
X93100000Y31400000D03*
X94750000Y31400000D03*
%TD*%
D23*
%TO.C,R71*%
X102900000Y25510000D03*
X102900000Y24490000D03*
%TD*%
D20*
%TO.C,R70*%
X98700000Y65900000D03*
X99720000Y65900000D03*
%TD*%
D21*
%TO.C,R69*%
X99700000Y64860000D03*
X98680000Y64860000D03*
%TD*%
D25*
%TO.C,R68*%
X179325000Y43575000D03*
X177675000Y43575000D03*
%TD*%
D24*
%TO.C,R67*%
X177675000Y45100000D03*
X179325000Y45100000D03*
%TD*%
%TO.C,R66*%
X175875000Y36375000D03*
X177525000Y36375000D03*
%TD*%
D21*
%TO.C,R62*%
X177935000Y40575000D03*
X176915000Y40575000D03*
%TD*%
D20*
%TO.C,R60*%
X176940000Y39200000D03*
X177960000Y39200000D03*
%TD*%
D25*
%TO.C,R59*%
X109945000Y61000000D03*
X108295000Y61000000D03*
%TD*%
D63*
%TO.C,R58*%
X167062500Y13600000D03*
X168887500Y13600000D03*
%TD*%
D25*
%TO.C,R57*%
X109925000Y59500000D03*
X108275000Y59500000D03*
%TD*%
%TO.C,R56*%
X109925000Y58000000D03*
X108275000Y58000000D03*
%TD*%
D61*
%TO.C,R53*%
X145600000Y15075000D03*
X145600000Y16725000D03*
%TD*%
D25*
%TO.C,R46*%
X168625000Y10400000D03*
X166975000Y10400000D03*
%TD*%
%TO.C,R45*%
X168625000Y11875000D03*
X166975000Y11875000D03*
%TD*%
D21*
%TO.C,R40*%
X108810000Y38700000D03*
X107790000Y38700000D03*
%TD*%
%TO.C,R39*%
X108810000Y39900000D03*
X107790000Y39900000D03*
%TD*%
%TO.C,R38*%
X108810000Y45100000D03*
X107790000Y45100000D03*
%TD*%
%TO.C,R37*%
X108810000Y46300000D03*
X107790000Y46300000D03*
%TD*%
D61*
%TO.C,R36*%
X137575000Y22050000D03*
X137575000Y23700000D03*
%TD*%
D25*
%TO.C,R35*%
X144125000Y18100000D03*
X142475000Y18100000D03*
%TD*%
D21*
%TO.C,R34*%
X102310000Y38800000D03*
X101290000Y38800000D03*
%TD*%
D20*
%TO.C,R33*%
X101290000Y40000000D03*
X102310000Y40000000D03*
%TD*%
%TO.C,R32*%
X101290000Y45100000D03*
X102310000Y45100000D03*
%TD*%
D21*
%TO.C,R31*%
X102310000Y46300000D03*
X101290000Y46300000D03*
%TD*%
D61*
%TO.C,R30*%
X139125000Y22050000D03*
X139125000Y23700000D03*
%TD*%
D25*
%TO.C,R29*%
X143750000Y1350000D03*
X142100000Y1350000D03*
%TD*%
%TO.C,R24*%
X109925000Y64000000D03*
X108275000Y64000000D03*
%TD*%
%TO.C,R22*%
X109925000Y62500000D03*
X108275000Y62500000D03*
%TD*%
D64*
%TO.C,J9*%
X87250000Y7170000D03*
X87750000Y7170000D03*
X88250000Y7170000D03*
X88750000Y7170000D03*
X89250000Y7170000D03*
X89750000Y7170000D03*
X90250000Y7170000D03*
X90750000Y7170000D03*
X91250000Y7170000D03*
X91750000Y7170000D03*
X92250000Y7170000D03*
X92750000Y7170000D03*
D65*
X93050000Y6050000D03*
X92400000Y5350000D03*
X91600000Y5350000D03*
X91200000Y6050000D03*
X90800000Y5350000D03*
X90400000Y6050000D03*
X89600000Y6050000D03*
X89200000Y5350000D03*
X88800000Y6050000D03*
X88400000Y5350000D03*
X87600000Y5350000D03*
X86950000Y6050000D03*
X93725000Y5350000D03*
X86275000Y5350000D03*
D66*
X85500000Y6850000D03*
X94500000Y6850000D03*
X85500000Y1250000D03*
X94500000Y1250000D03*
%TD*%
D64*
%TO.C,J8*%
X107250000Y7170000D03*
X107750000Y7170000D03*
X108250000Y7170000D03*
X108750000Y7170000D03*
X109250000Y7170000D03*
X109750000Y7170000D03*
X110250000Y7170000D03*
X110750000Y7170000D03*
X111250000Y7170000D03*
X111750000Y7170000D03*
X112250000Y7170000D03*
X112750000Y7170000D03*
D65*
X113050000Y6050000D03*
X112400000Y5350000D03*
X111600000Y5350000D03*
X111200000Y6050000D03*
X110800000Y5350000D03*
X110400000Y6050000D03*
X109600000Y6050000D03*
X109200000Y5350000D03*
X108800000Y6050000D03*
X108400000Y5350000D03*
X107600000Y5350000D03*
X106950000Y6050000D03*
X113725000Y5350000D03*
X106275000Y5350000D03*
D66*
X105500000Y6850000D03*
X114500000Y6850000D03*
X105500000Y1250000D03*
X114500000Y1250000D03*
%TD*%
D64*
%TO.C,J7*%
X162250000Y7170000D03*
X162750000Y7170000D03*
X163250000Y7170000D03*
X163750000Y7170000D03*
X164250000Y7170000D03*
X164750000Y7170000D03*
X165250000Y7170000D03*
X165750000Y7170000D03*
X166250000Y7170000D03*
X166750000Y7170000D03*
X167250000Y7170000D03*
X167750000Y7170000D03*
D65*
X168050000Y6050000D03*
X167400000Y5350000D03*
X166600000Y5350000D03*
X166200000Y6050000D03*
X165800000Y5350000D03*
X165400000Y6050000D03*
X164600000Y6050000D03*
X164200000Y5350000D03*
X163800000Y6050000D03*
X163400000Y5350000D03*
X162600000Y5350000D03*
X161950000Y6050000D03*
X168725000Y5350000D03*
X161275000Y5350000D03*
D66*
X160500000Y6850000D03*
X169500000Y6850000D03*
X160500000Y1250000D03*
X169500000Y1250000D03*
%TD*%
D33*
%TO.C,J6*%
X178500000Y22026000D03*
X178500000Y25526000D03*
D32*
X178500000Y29026000D03*
D31*
X188500000Y19026000D03*
X188500000Y32026000D03*
%TD*%
D67*
%TO.C,J5*%
X148300000Y28200000D03*
D68*
X148300000Y25660000D03*
X148300000Y23120000D03*
X148300000Y20580000D03*
%TD*%
D11*
%TO.C,J4*%
X104400000Y48850000D03*
D12*
X105670000Y48850000D03*
X104400000Y47580000D03*
X105670000Y47580000D03*
X104400000Y46310000D03*
X105670000Y46310000D03*
X104400000Y45040000D03*
X105670000Y45040000D03*
X104400000Y43770000D03*
X105670000Y43770000D03*
X104400000Y42500000D03*
X105670000Y42500000D03*
X104400000Y41230000D03*
X105670000Y41230000D03*
X104400000Y39960000D03*
X105670000Y39960000D03*
X104400000Y38690000D03*
X105670000Y38690000D03*
X104400000Y37420000D03*
X105670000Y37420000D03*
X104400000Y36150000D03*
X105670000Y36150000D03*
%TD*%
D67*
%TO.C,J3*%
X141800000Y26500000D03*
D68*
X144340000Y26500000D03*
X141800000Y23960000D03*
X144340000Y23960000D03*
X141800000Y21420000D03*
X144340000Y21420000D03*
%TD*%
D69*
%TO.C,D1*%
X140662500Y1350000D03*
X139087500Y1350000D03*
%TD*%
D70*
%TO.C,C216*%
X121650000Y64250000D03*
X119750000Y64250000D03*
%TD*%
%TO.C,C215*%
X74500000Y64400000D03*
X72600000Y64400000D03*
%TD*%
%TO.C,C214*%
X121650000Y62250000D03*
X119750000Y62250000D03*
%TD*%
%TO.C,C212*%
X74450000Y62400000D03*
X72550000Y62400000D03*
%TD*%
%TO.C,C208*%
X74450000Y60400000D03*
X72550000Y60400000D03*
%TD*%
%TO.C,C207*%
X121650000Y60250000D03*
X119750000Y60250000D03*
%TD*%
%TO.C,C204*%
X74450000Y58400000D03*
X72550000Y58400000D03*
%TD*%
%TO.C,C201*%
X121650000Y58250000D03*
X119750000Y58250000D03*
%TD*%
%TO.C,C200*%
X74450000Y56400000D03*
X72550000Y56400000D03*
%TD*%
%TO.C,C198*%
X121650000Y56250000D03*
X119750000Y56250000D03*
%TD*%
%TO.C,C196*%
X121650000Y54300000D03*
X119750000Y54300000D03*
%TD*%
D37*
%TO.C,C190*%
X138525000Y35700000D03*
X140075000Y35700000D03*
%TD*%
%TO.C,C186*%
X89525000Y35900000D03*
X91075000Y35900000D03*
%TD*%
D42*
%TO.C,C183*%
X141080000Y40750000D03*
X140120000Y40750000D03*
%TD*%
D40*
%TO.C,C181*%
X121675000Y52550000D03*
X120125000Y52550000D03*
%TD*%
D42*
%TO.C,C180*%
X92980000Y41300000D03*
X92020000Y41300000D03*
%TD*%
D40*
%TO.C,C178*%
X74450000Y54700000D03*
X72900000Y54700000D03*
%TD*%
D37*
%TO.C,C177*%
X128875000Y38550000D03*
X130425000Y38550000D03*
%TD*%
D40*
%TO.C,C176*%
X140475000Y42200000D03*
X138925000Y42200000D03*
%TD*%
D37*
%TO.C,C175*%
X78625000Y39200000D03*
X80175000Y39200000D03*
%TD*%
D40*
%TO.C,C174*%
X92275000Y42700000D03*
X90725000Y42700000D03*
%TD*%
D36*
%TO.C,C171*%
X129750000Y41725000D03*
X129750000Y40175000D03*
%TD*%
%TO.C,C170*%
X80100000Y42275000D03*
X80100000Y40725000D03*
%TD*%
D38*
%TO.C,C169*%
X129750000Y35425000D03*
X129750000Y36975000D03*
%TD*%
%TO.C,C168*%
X80100000Y36125000D03*
X80100000Y37675000D03*
%TD*%
D39*
%TO.C,C167*%
X93650000Y18630000D03*
X93650000Y17670000D03*
%TD*%
D41*
%TO.C,C165*%
X93650000Y19520000D03*
X93650000Y20480000D03*
%TD*%
D36*
%TO.C,C163*%
X131500000Y34100000D03*
X131500000Y32550000D03*
%TD*%
%TO.C,C162*%
X82500000Y33775000D03*
X82500000Y32225000D03*
%TD*%
D71*
%TO.C,C160*%
X140170000Y39100000D03*
X141130000Y39100000D03*
%TD*%
D42*
%TO.C,C159*%
X140230000Y38050000D03*
X139270000Y38050000D03*
%TD*%
D71*
%TO.C,C157*%
X92020000Y39700000D03*
X92980000Y39700000D03*
%TD*%
D42*
%TO.C,C156*%
X91980000Y38600000D03*
X91020000Y38600000D03*
%TD*%
D40*
%TO.C,C155*%
X132525000Y31050000D03*
X130975000Y31050000D03*
%TD*%
D41*
%TO.C,C153*%
X105800000Y19390000D03*
X105800000Y20350000D03*
%TD*%
D40*
%TO.C,C152*%
X83775000Y30500000D03*
X82225000Y30500000D03*
%TD*%
D36*
%TO.C,C148*%
X136500000Y34125000D03*
X136500000Y32575000D03*
%TD*%
%TO.C,C146*%
X88000000Y33575000D03*
X88000000Y32025000D03*
%TD*%
D37*
%TO.C,C145*%
X133950000Y31050000D03*
X135500000Y31050000D03*
%TD*%
%TO.C,C144*%
X85225000Y30500000D03*
X86775000Y30500000D03*
%TD*%
D70*
%TO.C,C142*%
X123350000Y10250000D03*
X121450000Y10250000D03*
%TD*%
%TO.C,C140*%
X72350000Y15000000D03*
X70450000Y15000000D03*
%TD*%
%TO.C,C138*%
X123350000Y12250000D03*
X121450000Y12250000D03*
%TD*%
D36*
%TO.C,C137*%
X135000000Y34125000D03*
X135000000Y32575000D03*
%TD*%
D70*
%TO.C,C135*%
X72400000Y13000000D03*
X70500000Y13000000D03*
%TD*%
D36*
%TO.C,C134*%
X86500000Y33575000D03*
X86500000Y32025000D03*
%TD*%
D70*
%TO.C,C132*%
X123350000Y14200000D03*
X121450000Y14200000D03*
%TD*%
%TO.C,C130*%
X72450000Y11000000D03*
X70550000Y11000000D03*
%TD*%
D72*
%TO.C,C129*%
X122800000Y17650000D03*
X116575000Y17650000D03*
%TD*%
%TO.C,C126*%
X71812500Y18400000D03*
X65587500Y18400000D03*
%TD*%
D37*
%TO.C,C122*%
X104425000Y65100000D03*
X105975000Y65100000D03*
%TD*%
D70*
%TO.C,C119*%
X158250000Y65100000D03*
X156350000Y65100000D03*
%TD*%
%TO.C,C117*%
X158250000Y63100000D03*
X156350000Y63100000D03*
%TD*%
%TO.C,C115*%
X158250000Y61100000D03*
X156350000Y61100000D03*
%TD*%
%TO.C,C111*%
X158250000Y59100000D03*
X156350000Y59100000D03*
%TD*%
%TO.C,C110*%
X158250000Y57100000D03*
X156350000Y57100000D03*
%TD*%
D37*
%TO.C,C106*%
X175900000Y34875000D03*
X177450000Y34875000D03*
%TD*%
D42*
%TO.C,C103*%
X179905000Y40550000D03*
X178945000Y40550000D03*
%TD*%
D37*
%TO.C,C100*%
X165850000Y38300000D03*
X167400000Y38300000D03*
%TD*%
D40*
%TO.C,C99*%
X179325000Y41925000D03*
X177775000Y41925000D03*
%TD*%
D36*
%TO.C,C96*%
X167400000Y41275000D03*
X167400000Y39725000D03*
%TD*%
D37*
%TO.C,C95*%
X93025000Y8900000D03*
X94575000Y8900000D03*
%TD*%
D40*
%TO.C,C94*%
X86975000Y8900000D03*
X85425000Y8900000D03*
%TD*%
D38*
%TO.C,C93*%
X167400000Y35325000D03*
X167400000Y36875000D03*
%TD*%
D36*
%TO.C,C91*%
X169700000Y34275000D03*
X169700000Y32725000D03*
%TD*%
D71*
%TO.C,C89*%
X178945000Y39175000D03*
X179905000Y39175000D03*
%TD*%
D42*
%TO.C,C88*%
X178955000Y38125000D03*
X177995000Y38125000D03*
%TD*%
D40*
%TO.C,C87*%
X170375000Y31125000D03*
X168825000Y31125000D03*
%TD*%
%TO.C,C84*%
X86980000Y10430000D03*
X85430000Y10430000D03*
%TD*%
D36*
%TO.C,C82*%
X174350000Y34175000D03*
X174350000Y32625000D03*
%TD*%
D37*
%TO.C,C81*%
X171825000Y31125000D03*
X173375000Y31125000D03*
%TD*%
D70*
%TO.C,C79*%
X162450000Y16400000D03*
X160550000Y16400000D03*
%TD*%
%TO.C,C76*%
X162450000Y14400000D03*
X160550000Y14400000D03*
%TD*%
D36*
%TO.C,C75*%
X172825000Y34175000D03*
X172825000Y32625000D03*
%TD*%
D70*
%TO.C,C73*%
X162450000Y12400000D03*
X160550000Y12400000D03*
%TD*%
D40*
%TO.C,C72*%
X106975000Y9000000D03*
X105425000Y9000000D03*
%TD*%
D37*
%TO.C,C71*%
X112925000Y8900000D03*
X114475000Y8900000D03*
%TD*%
D72*
%TO.C,C70*%
X161912500Y19900000D03*
X155687500Y19900000D03*
%TD*%
D70*
%TO.C,C68*%
X162450000Y10400000D03*
X160550000Y10400000D03*
%TD*%
D40*
%TO.C,C67*%
X171825000Y11000000D03*
X170275000Y11000000D03*
%TD*%
D38*
%TO.C,C66*%
X113140000Y14615000D03*
X113140000Y16165000D03*
%TD*%
D73*
%TO.C,C58*%
X69550000Y79000000D03*
X71450000Y79000000D03*
%TD*%
D38*
%TO.C,C57*%
X142500000Y15150000D03*
X142500000Y16700000D03*
%TD*%
D40*
%TO.C,C47*%
X135400000Y7900000D03*
X133850000Y7900000D03*
%TD*%
D37*
%TO.C,C46*%
X133875000Y9400000D03*
X135425000Y9400000D03*
%TD*%
D46*
%TO.C,U2*%
X46024997Y34974916D03*
X46425080Y34974916D03*
X46825080Y34974916D03*
X47225079Y34974916D03*
X47625081Y34974916D03*
X48025080Y34974916D03*
X48425079Y34974916D03*
X48825081Y34974916D03*
D47*
X49350081Y35499914D03*
X49350081Y35899915D03*
X49350081Y36299915D03*
X49350081Y36699914D03*
X49350081Y37099916D03*
X49350081Y37499915D03*
X49350081Y37899914D03*
X49350081Y38299916D03*
D46*
X48825081Y38824916D03*
X48425079Y38824916D03*
X48025080Y38824916D03*
X47625081Y38824916D03*
X47225079Y38824916D03*
X46825080Y38824916D03*
X46425080Y38824916D03*
X46024997Y38824916D03*
D47*
X45500081Y38299918D03*
X45500081Y37899917D03*
X45500081Y37499917D03*
X45500081Y37099918D03*
X45500081Y36699916D03*
X45500081Y36299917D03*
X45500081Y35899918D03*
X45500081Y35499916D03*
D48*
X47425000Y36900000D03*
D45*
X48575081Y36899916D03*
X47425081Y38049916D03*
X47425081Y36899916D03*
X47425081Y35749916D03*
X46275081Y36899916D03*
%TD*%
D25*
%TO.C,R21*%
X53925000Y42700000D03*
X52275000Y42700000D03*
%TD*%
D24*
%TO.C,R20*%
X52275000Y44200000D03*
X53925000Y44200000D03*
%TD*%
%TO.C,R19*%
X51350000Y33000000D03*
X53000000Y33000000D03*
%TD*%
D21*
%TO.C,R15*%
X52335000Y39900000D03*
X51315000Y39900000D03*
%TD*%
D20*
%TO.C,R14*%
X51390000Y38375000D03*
X52410000Y38375000D03*
%TD*%
D24*
%TO.C,R13*%
X92875000Y60690000D03*
X94525000Y60690000D03*
%TD*%
D63*
%TO.C,R12*%
X36437500Y13425000D03*
X38262500Y13425000D03*
%TD*%
D24*
%TO.C,R11*%
X92895000Y62180000D03*
X94545000Y62180000D03*
%TD*%
D61*
%TO.C,R8*%
X144025000Y15100000D03*
X144025000Y16750000D03*
%TD*%
D25*
%TO.C,R3*%
X37975000Y10200000D03*
X36325000Y10200000D03*
%TD*%
%TO.C,R1*%
X37975000Y11700000D03*
X36325000Y11700000D03*
%TD*%
D64*
%TO.C,J1*%
X32250000Y7170000D03*
X32750000Y7170000D03*
X33250000Y7170000D03*
X33750000Y7170000D03*
X34250000Y7170000D03*
X34750000Y7170000D03*
X35250000Y7170000D03*
X35750000Y7170000D03*
X36250000Y7170000D03*
X36750000Y7170000D03*
X37250000Y7170000D03*
X37750000Y7170000D03*
D65*
X38050000Y6050000D03*
X37400000Y5350000D03*
X36600000Y5350000D03*
X36200000Y6050000D03*
X35800000Y5350000D03*
X35400000Y6050000D03*
X34600000Y6050000D03*
X34200000Y5350000D03*
X33800000Y6050000D03*
X33400000Y5350000D03*
X32600000Y5350000D03*
X31950000Y6050000D03*
X38725000Y5350000D03*
X31275000Y5350000D03*
D66*
X30500000Y6850000D03*
X39500000Y6850000D03*
X30500000Y1250000D03*
X39500000Y1250000D03*
%TD*%
D70*
%TO.C,C44*%
X34500000Y60900000D03*
X32600000Y60900000D03*
%TD*%
%TO.C,C43*%
X34500000Y58900000D03*
X32600000Y58900000D03*
%TD*%
%TO.C,C41*%
X34500000Y56900000D03*
X32600000Y56900000D03*
%TD*%
%TO.C,C39*%
X34500000Y54900000D03*
X32600000Y54900000D03*
%TD*%
%TO.C,C37*%
X34500000Y52925000D03*
X32600000Y52925000D03*
%TD*%
D37*
%TO.C,C32*%
X51400000Y34500000D03*
X52950000Y34500000D03*
%TD*%
D42*
%TO.C,C29*%
X54530000Y39900000D03*
X53570000Y39900000D03*
%TD*%
D40*
%TO.C,C27*%
X34400000Y51175000D03*
X32850000Y51175000D03*
%TD*%
D37*
%TO.C,C26*%
X42225000Y37490000D03*
X43775000Y37490000D03*
%TD*%
D40*
%TO.C,C25*%
X53825000Y41200000D03*
X52275000Y41200000D03*
%TD*%
D36*
%TO.C,C23*%
X43010000Y40545000D03*
X43010000Y38995000D03*
%TD*%
D38*
%TO.C,C22*%
X43000000Y33925000D03*
X43000000Y35475000D03*
%TD*%
D36*
%TO.C,C20*%
X44900000Y32675000D03*
X44900000Y31125000D03*
%TD*%
D71*
%TO.C,C18*%
X53595000Y38350000D03*
X54555000Y38350000D03*
%TD*%
D42*
%TO.C,C17*%
X53505000Y37100000D03*
X52545000Y37100000D03*
%TD*%
D40*
%TO.C,C16*%
X45700000Y29500000D03*
X44150000Y29500000D03*
%TD*%
D36*
%TO.C,C13*%
X49900000Y32675000D03*
X49900000Y31125000D03*
%TD*%
D37*
%TO.C,C12*%
X47100000Y29500000D03*
X48650000Y29500000D03*
%TD*%
D70*
%TO.C,C10*%
X31875000Y9250000D03*
X29975000Y9250000D03*
%TD*%
D40*
%TO.C,C9*%
X40925000Y10950000D03*
X39375000Y10950000D03*
%TD*%
D70*
%TO.C,C7*%
X31875000Y11250000D03*
X29975000Y11250000D03*
%TD*%
D36*
%TO.C,C6*%
X48400000Y32675000D03*
X48400000Y31125000D03*
%TD*%
D70*
%TO.C,C4*%
X31975000Y13250000D03*
X30075000Y13250000D03*
%TD*%
D72*
%TO.C,C3*%
X32000000Y18700000D03*
X25775000Y18700000D03*
%TD*%
M02*
