M48
; DRILL file {KiCad 6.0.0} date Friday 14 January 2022 02:38:44 PM
; FORMAT={-:-/ absolute / inch / decimal}
; #@! TF.CreationDate,2022-01-14T14:38:44+01:00
; #@! TF.GenerationSoftware,Kicad,Pcbnew,6.0.0
; #@! TF.FileFunction,Plated,1,6,PTH
FMAT,2
INCH
; #@! TA.AperFunction,Plated,PTH,ViaDrill
T1C0.0079
; #@! TA.AperFunction,Plated,PTH,ComponentDrill
T2C0.0080
; #@! TA.AperFunction,Plated,PTH,ComponentDrill
T3C0.0118
; #@! TA.AperFunction,Plated,PTH,ViaDrill
T4C0.0157
; #@! TA.AperFunction,Plated,PTH,ComponentDrill
T5C0.0157
; #@! TA.AperFunction,Plated,PTH,ComponentDrill
T6C0.0197
; #@! TA.AperFunction,Plated,PTH,ComponentDrill
T7C0.0256
; #@! TA.AperFunction,Plated,PTH,ComponentDrill
T8C0.0276
; #@! TA.AperFunction,Plated,PTH,ComponentDrill
T9C0.0394
; #@! TA.AperFunction,Plated,PTH,ComponentDrill
T10C0.0748
; #@! TA.AperFunction,Plated,PTH,ComponentDrill
T11C0.0984
%
G90
G05
T1
X0.0833Y1.3105
X0.1883Y1.03
X0.2933Y2.65
X0.3383Y1.255
X0.3433Y1.18
X0.3483Y1.33
X0.4133Y1.255
X0.4183Y1.18
X0.4233Y1.33
X0.4933Y1.33
X0.4933Y1.255
X0.4983Y1.18
X0.5383Y2.385
X0.5533Y2.945
X0.5533Y2.925
X0.5533Y2.905
X0.5783Y2.945
X0.5783Y2.925
X0.5783Y2.905
X0.6133Y2.555
X0.6383Y2.69
X0.6383Y2.67
X0.6383Y2.54
X0.6533Y3.21
X0.6533Y2.85
X0.6633Y2.69
X0.6633Y2.67
X0.6633Y2.555
X0.6933Y2.8105
X0.7183Y2.7
X0.7233Y2.45
X0.7333Y2.72
X0.7383Y2.765
X0.7533Y2.44
X0.7683Y2.49
X0.7978Y2.56
X0.7983Y2.44
X0.8283Y2.54
X0.8533Y2.595
X0.8733Y2.365
X0.8783Y2.595
X0.8883Y3.015
X0.8983Y2.925
X0.9429Y1.3524
X0.9488Y1.4882
X0.9633Y2.54
X0.9633Y2.45
X0.9646Y1.4764
X0.9783Y2.58
X1.0Y1.3543
X1.0133Y2.63
X1.0783Y2.665
X1.0947Y2.8298
X1.1083Y2.81
X1.1086Y2.7083
X1.1133Y2.4648
X1.2578Y2.73
X1.4646Y1.0512
X1.4764Y1.0669
X1.5787Y1.0394
X1.5906Y1.0551
X1.7Y1.4362
X1.7402Y1.4016
X1.7441Y1.5079
X1.7559Y1.4717
X1.7854Y2.9941
X1.7953Y1.5472
X1.8661Y1.3228
X1.8661Y1.2559
X1.9043Y1.2622
X1.9496Y1.2598
X2.0226Y1.4291
X2.0315Y1.4075
X2.0921Y1.735
X2.2096Y0.1043
X2.2584Y0.0793
X2.4055Y0.5591
X2.4213Y0.626
X2.4705Y1.4035
X2.5364Y1.4587
X2.6535Y3.122
X2.6535Y3.0945
X2.6535Y3.0669
X2.689Y3.122
X2.689Y3.0945
X2.689Y3.0669
X2.815Y3.1102
X2.9183Y3.125
X2.9193Y3.1014
X2.9459Y3.126
X2.9469Y3.1024
X3.0413Y1.498
X3.1969Y1.5315
X3.2244Y1.5394
X3.2283Y1.4843
X3.2362Y1.563
X3.248Y1.6181
X3.2717Y3.0197
X3.2913Y3.0443
X3.3543Y1.3819
X3.374Y1.3583
X3.4102Y0.4496
X3.4315Y0.4496
X3.437Y1.2953
X3.4618Y1.5189
X3.4646Y1.3661
X3.4669Y1.5398
X3.4843Y0.3248
X3.4941Y0.815
X3.5079Y0.4921
X3.5079Y0.5276
X3.5083Y0.3614
X3.5083Y0.3402
X3.5118Y0.311
X3.5197Y0.8878
X3.5315Y0.3858
X3.5433Y0.5276
X3.5443Y0.4911
X3.5539Y0.2661
X3.5669Y0.3898
X3.6004Y0.5906
X3.6053Y1.1703
X3.6112Y0.5276
X3.6154Y0.6535
X3.6348Y1.7992
X3.6366Y0.6535
X3.6565Y2.2313
X3.6654Y1.1339
X3.6811Y0.9547
X3.6988Y0.8307
X3.7008Y0.9016
X3.7134Y0.6716
X3.7175Y0.6506
X3.7264Y0.7087
X3.7284Y0.6866
X3.7287Y1.1894
X3.7343Y1.2972
X3.7362Y0.752
X3.7547Y0.6248
X3.7547Y0.6035
X3.7559Y2.4508
X3.7677Y0.5472
X3.7677Y0.5118
X3.7726Y2.4163
X3.7835Y1.4291
X3.7874Y0.5472
X3.7874Y0.5118
X3.7987Y2.3844
X3.8071Y0.5472
X3.8071Y0.5118
X3.815Y1.4803
X3.8376Y2.4291
X3.8386Y2.3543
X3.8423Y1.1742
X3.8425Y0.9045
X3.8472Y0.5016
X3.848Y0.5209
X3.8583Y1.6811
X3.8677Y0.5016
X3.8681Y0.5201
X3.8744Y0.8583
X3.8858Y1.6811
X3.8898Y0.5441
X3.8917Y1.1118
X3.9291Y2.3524
X3.937Y0.8417
X3.9374Y0.9169
X3.9528Y0.5315
X3.9626Y2.4803
X3.9626Y1.5492
X3.9823Y1.8445
X3.9874Y0.5311
X3.9874Y0.513
X3.9878Y1.7494
X3.9911Y1.0266
X4.0071Y0.5311
X4.0071Y0.5126
X4.0098Y2.2982
X4.011Y0.9157
X4.0118Y2.2362
X4.0236Y2.3287
X4.0236Y0.9685
X4.0268Y0.5126
X4.0276Y1.1398
X4.0472Y1.6752
X4.0472Y1.0846
X4.0512Y2.5039
X4.0531Y1.3957
X4.0709Y2.2736
X4.0719Y2.3268
X4.0791Y0.8807
X4.0803Y0.7161
X4.0811Y0.5685
X4.0817Y0.748
X4.0819Y0.5472
X4.0819Y0.5248
X4.098Y0.6795
X4.1016Y0.7004
X4.1114Y0.5685
X4.1122Y0.548
X4.1126Y0.5248
X4.1407Y1.0256
X4.1654Y2.315
X4.1665Y0.8449
X4.1703Y2.3789
X4.1823Y0.828
X4.1886Y0.4953
X4.1919Y2.4045
X4.2008Y0.7037
X4.2018Y0.7815
X4.2098Y0.4953
X4.2165Y0.8661
X4.2297Y0.7897
X4.2402Y0.8622
X4.2441Y1.7313
X4.2447Y0.8048
X4.2461Y1.6654
X4.2579Y1.3524
X4.2589Y0.3612
X4.2805Y0.6673
X4.2839Y1.6146
X4.2913Y2.5118
X4.2913Y2.4528
X4.2949Y0.5248
X4.2949Y0.4331
X4.2953Y0.5567
X4.3012Y1.1811
X4.3031Y0.311
X4.315Y1.6654
X4.3201Y0.2992
X4.3209Y0.7037
X4.3228Y0.4291
X4.3291Y0.5567
X4.3299Y0.5252
X4.3413Y0.2992
X4.3465Y0.4291
X4.3563Y1.435
X4.3602Y0.939
X4.3681Y0.8835
X4.3701Y1.3917
X4.3799Y2.4902
X4.3799Y0.937
X4.3858Y1.5728
X4.3898Y0.8898
X4.4165Y0.5906
X4.4232Y0.5417
X4.4783Y1.4685
X4.5423Y0.0935
X4.5984Y0.8937
X4.6063Y0.0699
X4.6417Y0.8799
X4.6555Y0.813
X4.6614Y0.9409
X4.6713Y0.7972
X4.7165Y0.4921
X4.7362Y0.7902
X4.7362Y0.4921
X4.7421Y0.8917
X4.7484Y0.8091
X4.7598Y0.8819
X4.7598Y0.7087
X4.8346Y0.7756
X4.9636Y0.0472
X5.0307Y1.0941
X5.0797Y0.3169
X5.1476Y1.4449
X5.1594Y1.5551
X5.1693Y1.5276
X5.1713Y1.502
X5.2067Y1.5906
X5.2185Y0.3642
X5.2756Y0.9035
X5.2756Y0.6949
X5.2776Y0.9252
X5.2815Y1.311
X5.2913Y1.3839
X5.315Y1.376
X5.374Y1.3701
X5.374Y0.3976
X5.377Y0.562
X5.3986Y0.3415
X5.4173Y0.8366
X5.4425Y1.4835
X5.4449Y0.5561
X5.4793Y0.8406
X5.5472Y0.9911
X5.5709Y0.4331
X5.5709Y0.3484
X5.5709Y0.311
X5.5744Y1.4429
X5.5827Y2.8976
X5.5846Y0.4154
X5.6024Y2.878
X5.613Y0.31
X5.6171Y0.4085
X5.6181Y0.6811
X5.6339Y0.3642
X5.6378Y2.8583
X5.6575Y1.2559
X5.6673Y1.2382
X5.6703Y0.7904
X5.6703Y0.6594
X5.6843Y0.1917
X5.6929Y0.1724
X5.7047Y0.689
X5.7175Y0.7726
X5.7441Y0.3701
X5.7598Y0.4409
X5.7677Y0.3937
X5.7913Y0.2992
X5.7933Y0.485
X5.8031Y0.6181
X5.8033Y0.51
X5.8091Y0.311
X5.8307Y1.4016
X5.9183Y0.311
X5.9528Y1.5807
X5.9547Y0.3976
X5.9567Y0.1161
X5.9626Y1.4016
X5.9633Y0.305
X5.9768Y0.4189
X5.9921Y0.2913
X6.0Y0.4488
X6.0079Y1.4256
X6.065Y0.9311
X6.5059Y0.2697
X6.5236Y1.3543
X6.5236Y1.3307
X6.5512Y1.3543
X6.5512Y1.3307
X6.5787Y1.3543
X6.5787Y1.3307
X6.6063Y1.3543
X6.6063Y1.3307
X6.6535Y1.5039
X6.6535Y1.4528
X6.6772Y1.5394
X6.6772Y1.5157
X6.7047Y1.5827
X6.7533Y0.375
X6.7756Y1.315
X6.7833Y0.325
X6.7992Y1.3819
X6.8189Y1.3602
X6.8283Y1.015
X6.8504Y1.3583
X6.9508Y1.4705
X6.9783Y1.4724
X7.0315Y1.7756
X7.1319Y1.4941
T2
X0.9508Y1.4173
X0.9941Y1.4173
X1.8219Y1.4528
X1.8671Y1.498
X1.8671Y1.4528
X1.8671Y1.4075
X1.9124Y1.4528
X2.4803Y1.5276
X2.5236Y1.5276
X3.313Y1.5315
X3.3583Y1.5768
X3.3583Y1.5315
X3.3583Y1.4862
X3.4035Y1.5315
X3.8307Y0.7343
X3.8376Y0.6378
X3.8376Y0.6004
X3.872Y0.6378
X3.872Y0.6004
X3.8772Y0.7815
X3.8772Y0.7343
X3.8772Y0.687
X3.9065Y0.6378
X3.9065Y0.6004
X3.9291Y0.7815
X3.9291Y0.7353
X3.9291Y0.687
X3.9528Y0.6378
X3.9528Y0.6004
X3.9811Y0.7815
X3.9811Y0.7343
X3.9811Y0.687
X3.9872Y0.6378
X3.9872Y0.6004
X4.0217Y0.6378
X4.0217Y0.6004
X4.0276Y0.7343
X4.4272Y1.5354
X4.4705Y1.5354
X5.2323Y1.5039
X5.2776Y1.5492
X5.2776Y1.5039
X5.2776Y1.4587
X5.3228Y1.5039
X5.9429Y1.5157
X5.9862Y1.5157
X6.7421Y1.5039
X6.7874Y1.5492
X6.7874Y1.5039
X6.7874Y1.4587
X6.8327Y1.5039
T3
X5.4075Y0.3228
X5.435Y0.3228
T4
X0.8465Y1.8701
X0.8465Y1.811
X0.8465Y1.752
X0.8661Y0.9449
X0.8661Y0.8858
X0.8937Y0.3386
X0.9055Y1.8701
X0.9055Y1.811
X0.9055Y1.752
X0.9252Y0.9449
X0.9252Y0.8858
X0.9449Y0.5709
X0.9449Y0.5118
X0.9449Y0.4528
X0.9449Y0.3937
X0.9449Y0.3346
X0.9646Y1.8701
X0.9646Y1.811
X0.9646Y1.752
X0.9843Y2.3622
X0.9843Y2.3031
X0.9843Y2.2441
X0.9843Y2.185
X0.9843Y2.126
X0.9843Y0.9449
X0.9843Y0.8858
X1.0039Y0.5709
X1.0039Y0.5118
X1.0039Y0.4528
X1.0039Y0.3937
X1.0039Y0.3346
X1.0433Y2.3622
X1.0433Y2.3031
X1.0433Y2.2441
X1.0433Y2.185
X1.0433Y2.126
X1.063Y0.5709
X1.063Y0.5118
X1.063Y0.4528
X1.063Y0.3937
X1.063Y0.3346
X1.0886Y1.0453
X1.0906Y1.9606
X1.1024Y2.3622
X1.1024Y2.3031
X1.1024Y2.2441
X1.1024Y2.185
X1.1024Y2.126
X1.1614Y2.3622
X1.1614Y2.3031
X1.1614Y2.2441
X1.1614Y2.185
X1.1614Y2.126
X1.3189Y0.5512
X1.3189Y0.5118
X1.3189Y0.4724
X1.3189Y0.4331
X1.3189Y0.3937
X1.3189Y0.3543
X1.3228Y1.9606
X1.3583Y1.0394
X1.378Y0.5512
X1.378Y0.5118
X1.378Y0.4724
X1.378Y0.4331
X1.378Y0.3937
X1.378Y0.3543
X1.437Y2.3228
X1.437Y2.2835
X1.437Y2.2441
X1.437Y2.2047
X1.4764Y2.3228
X1.4764Y2.2835
X1.4764Y2.2441
X1.4764Y2.2047
X1.5157Y2.3228
X1.5157Y2.2835
X1.5157Y2.2441
X1.5157Y2.2047
X1.5551Y2.3228
X1.5551Y2.2835
X1.5551Y2.2441
X1.5551Y2.2047
X1.6181Y1.4882
X1.6339Y0.6063
X1.6339Y0.5591
X1.6339Y0.5079
X1.6535Y2.6575
X1.6535Y2.5984
X1.6535Y2.5394
X1.6535Y2.4803
X1.6535Y2.4213
X1.6535Y2.3622
X1.6535Y2.3031
X1.6535Y2.2441
X1.6535Y2.185
X1.6535Y2.1457
X1.6535Y1.6929
X1.6535Y1.6535
X1.6614Y1.2835
X1.6614Y1.2441
X1.685Y0.6063
X1.685Y0.5591
X1.689Y0.5079
X1.7008Y1.2835
X1.7008Y1.2441
X1.7126Y1.6929
X1.7126Y1.6535
X1.7323Y2.6575
X1.7323Y2.5984
X1.7323Y2.5394
X1.7323Y2.4803
X1.7323Y2.4213
X1.7323Y2.3622
X1.7323Y2.3031
X1.7323Y2.2441
X1.7323Y2.185
X1.7323Y2.1457
X1.7953Y1.1102
X1.8346Y1.1063
X1.8701Y1.6614
X1.9094Y1.6496
X1.9961Y0.2598
X2.0197Y1.248
X2.1496Y1.4567
X2.1654Y1.626
X2.2559Y0.4882
X2.4016Y1.8898
X2.4016Y1.8307
X2.4606Y1.8898
X2.4606Y1.8307
X2.4803Y2.4803
X2.4803Y2.3819
X2.4803Y2.2835
X2.4803Y1.1024
X2.4803Y1.0433
X2.5394Y1.1024
X2.5394Y1.0433
X2.6181Y2.4803
X2.6181Y2.3819
X2.6181Y2.2835
X2.6181Y0.5906
X2.6181Y0.5315
X2.6181Y0.2559
X2.6181Y0.1969
X2.6181Y0.1378
X2.689Y2.063
X2.6969Y0.5906
X2.6969Y0.5315
X2.6969Y0.2559
X2.6969Y0.1969
X2.6969Y0.1378
X2.7087Y1.126
X2.7362Y2.4803
X2.7362Y2.3819
X2.7362Y2.2835
X2.9134Y0.6811
X2.9134Y0.6299
X2.9134Y0.5236
X2.9134Y0.4646
X2.9134Y0.4094
X2.9252Y2.0472
X2.9646Y1.122
X2.9764Y0.6811
X2.9764Y0.6299
X2.9764Y0.5236
X2.9803Y0.4646
X2.9803Y0.4094
X2.9921Y2.5394
X2.9921Y2.4803
X2.9921Y2.4213
X2.9921Y2.3622
X2.9921Y2.3031
X2.9921Y2.2441
X2.9921Y2.185
X3.0512Y2.5394
X3.0512Y2.4803
X3.0512Y2.4213
X3.0512Y2.3622
X3.0512Y2.3031
X3.0512Y2.2441
X3.0512Y2.185
X3.0945Y1.748
X3.0945Y1.7126
X3.0984Y1.3189
X3.0984Y1.2717
X3.1378Y1.3189
X3.1378Y1.2717
X3.1417Y2.7195
X3.1417Y1.748
X3.1417Y1.7126
X3.1437Y2.7963
X3.1447Y2.8701
X3.1506Y2.6407
X3.1506Y2.5817
X3.1506Y2.5226
X3.2008Y2.7195
X3.2028Y2.7963
X3.2037Y2.8701
X3.2096Y2.6407
X3.2096Y2.5817
X3.2096Y2.5226
X3.2618Y2.7963
X3.2618Y2.7205
X3.2628Y2.8701
X3.2874Y1.1417
X3.3209Y2.7963
X3.3209Y2.7205
X3.3219Y2.8701
X3.3504Y1.1417
X3.3543Y1.7126
X3.3858Y1.7362
X3.4606Y1.2161
X3.6073Y0.3396
X3.6575Y1.4961
X3.6772Y1.6752
X3.748Y1.9193
X3.748Y1.5728
X3.872Y1.872
X3.9006Y0.2156
X3.9165Y1.4732
X4.0138Y1.439
X4.1978Y2.6299
X4.3307Y2.1654
X4.3307Y2.1063
X4.3307Y1.9882
X4.3307Y1.9291
X4.3898Y2.1654
X4.3898Y2.1063
X4.3898Y1.9882
X4.3898Y1.9291
X4.4291Y2.5787
X4.4488Y2.4016
X4.4488Y2.3425
X4.4488Y2.2835
X4.4488Y2.2244
X4.4488Y2.1654
X4.4488Y2.1063
X4.4488Y1.9882
X4.4488Y1.9291
X4.4488Y0.9449
X4.4488Y0.8858
X4.4496Y0.8201
X4.5079Y2.4016
X4.5079Y2.3425
X4.5079Y2.2835
X4.5079Y2.2244
X4.5079Y2.1654
X4.5079Y2.1063
X4.5079Y1.9882
X4.5079Y1.9291
X4.5079Y0.9449
X4.5079Y0.8858
X4.5083Y0.8205
X4.5472Y0.6102
X4.5472Y0.5512
X4.5472Y0.4921
X4.5669Y0.9449
X4.5669Y0.8858
X4.5677Y0.8213
X4.5807Y2.0709
X4.5965Y1.0906
X4.6063Y0.6102
X4.6063Y0.5512
X4.6063Y0.4921
X4.626Y0.9449
X4.6268Y0.8217
X4.6654Y0.6102
X4.6654Y0.5512
X4.6654Y0.4921
X4.7598Y2.0315
X4.8091Y1.0925
X4.8425Y2.5197
X4.8425Y2.4606
X4.8425Y2.4016
X4.8425Y2.2244
X4.8425Y2.1654
X4.8425Y2.1063
X4.9016Y2.5197
X4.9016Y2.4606
X4.9016Y2.4016
X4.9016Y2.2244
X4.9016Y2.1654
X4.9016Y2.1063
X4.913Y0.402
X4.9134Y0.4488
X4.9138Y0.5004
X4.9181Y0.6563
X4.9181Y0.6134
X4.9606Y2.5197
X4.9606Y2.4606
X4.9606Y2.4016
X4.9606Y2.2244
X4.9606Y2.1654
X4.9606Y2.1063
X4.9606Y0.6551
X4.9626Y0.6134
X4.9642Y0.4996
X4.9657Y0.4484
X4.9677Y0.4035
X4.9961Y1.3425
X4.998Y1.3012
X5.0305Y2.8268
X5.0305Y2.7697
X5.0315Y2.7077
X5.0354Y1.7283
X5.0354Y1.689
X5.0354Y1.3445
X5.0374Y1.3012
X5.0394Y2.5394
X5.0394Y2.4606
X5.0394Y2.3819
X5.0394Y2.3031
X5.0748Y1.7283
X5.0748Y1.689
X5.0748Y1.3012
X5.0768Y1.3445
X5.0896Y2.8268
X5.0896Y2.7697
X5.0906Y2.7077
X5.1486Y2.8268
X5.1486Y2.7697
X5.1496Y2.7096
X5.2185Y1.1673
X5.2618Y1.1634
X5.2717Y1.6614
X5.2756Y2.6161
X5.2756Y2.5394
X5.311Y1.6535
X5.3504Y1.1535
X5.4636Y0.1516
X5.4843Y0.2323
X5.5079Y1.7717
X5.5118Y2.4606
X5.5118Y2.4016
X5.5118Y2.3425
X5.5443Y0.5787
X5.563Y1.5039
X5.5709Y2.4606
X5.5709Y2.4016
X5.5709Y2.3425
X5.5827Y1.685
X5.6132Y0.6181
X5.6299Y2.4606
X5.6299Y2.4016
X5.6299Y2.3425
X5.9252Y2.9724
X5.9252Y2.8937
X5.9252Y2.4016
X5.9252Y2.3228
X5.9252Y2.2441
X5.9252Y2.1654
X5.9646Y1.0236
X6.0039Y2.9724
X6.0039Y2.8937
X6.0039Y2.4016
X6.0039Y2.3228
X6.0039Y2.2441
X6.0039Y2.1654
X6.0827Y2.4016
X6.0827Y2.3228
X6.0827Y2.2441
X6.0827Y2.1654
X6.0827Y1.0236
X6.1417Y0.6693
X6.1417Y0.6102
X6.189Y2.0591
X6.1969Y1.1339
X6.2205Y0.6693
X6.2205Y0.6102
X6.2795Y2.5394
X6.2795Y2.4803
X6.2795Y2.4213
X6.2795Y2.3622
X6.2795Y2.3031
X6.2795Y2.2441
X6.2795Y2.185
X6.2795Y2.126
X6.3386Y2.5394
X6.3386Y2.4803
X6.3386Y2.4213
X6.3386Y2.3622
X6.3386Y2.3031
X6.3386Y2.2441
X6.3386Y2.185
X6.3386Y2.126
X6.4016Y2.0551
X6.4016Y1.1417
X6.4567Y2.628
X6.4567Y2.5492
X6.4567Y2.4705
X6.4567Y2.3917
X6.4567Y0.6299
X6.4567Y0.5709
X6.4567Y0.5118
X6.4567Y0.4528
X6.4567Y0.3937
X6.4764Y2.9134
X6.4764Y2.8543
X6.4764Y2.7953
X6.5157Y0.6299
X6.5157Y0.5709
X6.5157Y0.5118
X6.5157Y0.4528
X6.5157Y0.3937
X6.5197Y1.6772
X6.5256Y2.628
X6.5256Y2.5492
X6.5256Y2.4705
X6.5256Y2.3917
X6.5453Y2.9134
X6.5453Y2.8543
X6.5453Y2.7953
X6.5709Y1.6772
X6.6142Y2.9134
X6.6142Y2.8543
X6.6142Y2.7953
X6.626Y1.6772
X6.6831Y2.9134
X6.6831Y2.8543
X6.6831Y2.7953
X6.7126Y1.1713
X6.7618Y1.1713
X6.7717Y0.6102
X6.7717Y0.5315
X6.7844Y1.6939
X6.7913Y2.7756
X6.7913Y2.7165
X6.815Y1.6654
X6.8504Y2.7756
X6.8504Y2.7165
X6.8504Y2.4606
X6.8701Y0.9646
X6.8701Y0.8858
X6.8701Y0.8071
X6.878Y1.1969
X7.0984Y1.5079
X7.1102Y1.6535
T5
X1.2579Y0.2382
X1.2835Y0.2106
X1.315Y0.2106
X1.3307Y0.2382
X1.3465Y0.2106
X1.3622Y0.2382
X1.3937Y0.2382
X1.4094Y0.2106
X1.4252Y0.2382
X1.4409Y0.2106
X1.4724Y0.2106
X1.498Y0.2382
X3.4232Y0.2382
X3.4488Y0.2106
X3.4803Y0.2106
X3.4961Y0.2382
X3.5118Y0.2106
X3.5276Y0.2382
X3.5591Y0.2382
X3.5748Y0.2106
X3.5906Y0.2382
X3.6063Y0.2106
X3.6378Y0.2106
X3.6634Y0.2382
X4.2106Y0.2382
X4.2362Y0.2106
X4.2677Y0.2106
X4.2835Y0.2382
X4.2992Y0.2106
X4.315Y0.2382
X4.3465Y0.2382
X4.3622Y0.2106
X4.378Y0.2382
X4.3937Y0.2106
X4.4252Y0.2106
X4.4508Y0.2382
X6.376Y0.2382
X6.4016Y0.2106
X6.4331Y0.2106
X6.4488Y0.2382
X6.4646Y0.2106
X6.4803Y0.2382
X6.5118Y0.2382
X6.5276Y0.2106
X6.5433Y0.2382
X6.5591Y0.2106
X6.5906Y0.2106
X6.6161Y0.2382
T6
X0.0495Y2.565
X0.0595Y3.105
X0.0711Y2.6172
X0.0711Y2.5128
X0.0811Y3.1572
X0.0811Y3.0528
X0.1233Y2.6388
X0.1233Y2.4911
X0.1333Y3.1788
X0.1333Y3.0311
X0.1755Y2.6172
X0.1755Y2.5128
X0.1855Y3.1572
X0.1855Y3.0528
X0.1972Y2.565
X0.2072Y3.105
T7
X0.0883Y2.1444
X0.0883Y2.0944
X0.0883Y2.0
X0.0883Y1.95
X0.0983Y0.905
X0.0983Y0.855
X0.0983Y0.7606
X0.0983Y0.7106
X1.4902Y2.9311
X1.4902Y2.8811
X1.6161Y2.928
X1.6161Y2.878
X4.1102Y1.9232
X4.1102Y1.8732
X4.1102Y1.8232
X4.1102Y1.7732
X4.1102Y1.7232
X4.1102Y1.6732
X4.1102Y1.6232
X4.1102Y1.5732
X4.1102Y1.5232
X4.1102Y1.4732
X4.1102Y1.4232
X4.1602Y1.9232
X4.1602Y1.8732
X4.1602Y1.8232
X4.1602Y1.7732
X4.1602Y1.7232
X4.1602Y1.6732
X4.1602Y1.6232
X4.1602Y1.5732
X4.1602Y1.5232
X4.1602Y1.4732
X4.1602Y1.4232
X4.1732Y1.1417
X4.1732Y1.0917
X4.1732Y1.0417
X4.2232Y1.1417
X4.2232Y1.0917
X4.2232Y1.0417
X4.9882Y3.2154
X4.9882Y3.1654
X4.9882Y3.1154
X5.0382Y3.2154
X5.0382Y3.1654
X5.0382Y3.1154
T8
X4.1033Y1.265
X4.1533Y1.265
T9
X5.2953Y3.2677
X5.2953Y3.0906
X5.5512Y3.2677
X5.5512Y3.0906
X5.5827Y1.0433
X5.5827Y0.9433
X5.5827Y0.8433
X5.6827Y1.0433
X5.6827Y0.9433
X5.6827Y0.8433
X5.8386Y1.1102
X5.8386Y1.0102
X5.8386Y0.9102
X5.8386Y0.8102
X7.4213Y1.2609
X7.4213Y0.7491
X7.422Y0.6081
X7.422Y0.0963
T10
X7.0276Y1.1428
X7.0276Y1.005
X7.0276Y0.8672
X7.0283Y0.49
X7.0283Y0.3522
X7.0283Y0.2144
T11
X0.1233Y2.565
X0.1333Y3.105
T6
G00X1.2008Y0.2815
M15
G01X1.2008Y0.2579
M16
G05
G00X1.2008Y0.065
M15
G01X1.2008Y0.0335
M16
G05
G00X1.5551Y0.2815
M15
G01X1.5551Y0.2579
M16
G05
G00X1.5551Y0.065
M15
G01X1.5551Y0.0335
M16
G05
G00X3.3661Y0.2815
M15
G01X3.3661Y0.2579
M16
G05
G00X3.3661Y0.065
M15
G01X3.3661Y0.0335
M16
G05
G00X3.7205Y0.2815
M15
G01X3.7205Y0.2579
M16
G05
G00X3.7205Y0.065
M15
G01X3.7205Y0.0335
M16
G05
G00X4.1535Y0.2815
M15
G01X4.1535Y0.2579
M16
G05
G00X4.1535Y0.065
M15
G01X4.1535Y0.0335
M16
G05
G00X4.5079Y0.2815
M15
G01X4.5079Y0.2579
M16
G05
G00X4.5079Y0.065
M15
G01X4.5079Y0.0335
M16
G05
G00X6.3189Y0.2815
M15
G01X6.3189Y0.2579
M16
G05
G00X6.3189Y0.065
M15
G01X6.3189Y0.0335
M16
G05
G00X6.6732Y0.2815
M15
G01X6.6732Y0.2579
M16
G05
G00X6.6732Y0.065
M15
G01X6.6732Y0.0335
M16
G05
T0
M30
