%TF.GenerationSoftware,KiCad,Pcbnew,6.0.0*%
%TF.CreationDate,2022-01-14T14:38:36+01:00*%
%TF.ProjectId,PowerBank V0.2,506f7765-7242-4616-9e6b-2056302e322e,rev?*%
%TF.SameCoordinates,PX2aea540PY80befc0*%
%TF.FileFunction,Profile,NP*%
%FSLAX46Y46*%
G04 Gerber Fmt 4.6, Leading zero omitted, Abs format (unit mm)*
G04 Created by KiCad (PCBNEW 6.0.0) date 2022-01-14 14:38:36*
%MOMM*%
%LPD*%
G01*
G04 APERTURE LIST*
%TA.AperFunction,Profile*%
%ADD10C,0.050000*%
%TD*%
%TA.AperFunction,Profile*%
%ADD11C,0.100000*%
%TD*%
G04 APERTURE END LIST*
D10*
X190000000Y52000000D02*
X190000000Y0D01*
X176500000Y52000000D02*
X176500000Y77000000D01*
X176500000Y52000000D02*
X190000000Y52000000D01*
X176500000Y77000000D02*
X170500000Y77000000D01*
X159500000Y77000000D02*
X170500000Y77000000D01*
X159500000Y85000000D02*
X159500000Y77000000D01*
X115500000Y85000000D02*
X159500000Y85000000D01*
X115500000Y77000000D02*
X115500000Y85000000D01*
X84500000Y77000000D02*
X115500000Y77000000D01*
X84500000Y85000000D02*
X84500000Y77000000D01*
X40500000Y85000000D02*
X84500000Y85000000D01*
X40500000Y77000000D02*
X40500000Y85000000D01*
X29500000Y77000000D02*
X40500000Y77000000D01*
X29500000Y85000000D02*
X29500000Y77000000D01*
X0Y85000000D02*
X29500000Y85000000D01*
X0Y0D02*
X0Y85000000D01*
X190000000Y0D02*
X0Y0D01*
D11*
%TO.C,J9*%
X93575000Y5675000D02*
X93875000Y5675000D01*
X93875000Y5025000D02*
X93575000Y5025000D01*
X94200000Y5350000D02*
G75*
G03*
X93875000Y5675000I-325000J0D01*
G01*
X93875000Y5025000D02*
G75*
G03*
X94200000Y5350000I0J325000D01*
G01*
X93250000Y5350000D02*
G75*
G03*
X93575000Y5025000I325000J0D01*
G01*
X93575000Y5675000D02*
G75*
G03*
X93250000Y5350000I0J-325000D01*
G01*
%TO.C,J8*%
X113575000Y5675000D02*
X113875000Y5675000D01*
X113875000Y5025000D02*
X113575000Y5025000D01*
X114200000Y5350000D02*
G75*
G03*
X113875000Y5675000I-325000J0D01*
G01*
X113875000Y5025000D02*
G75*
G03*
X114200000Y5350000I0J325000D01*
G01*
X113250000Y5350000D02*
G75*
G03*
X113575000Y5025000I325000J0D01*
G01*
X113575000Y5675000D02*
G75*
G03*
X113250000Y5350000I0J-325000D01*
G01*
%TO.C,J7*%
X168575000Y5675000D02*
X168875000Y5675000D01*
X168875000Y5025000D02*
X168575000Y5025000D01*
X169200000Y5350000D02*
G75*
G03*
X168875000Y5675000I-325000J0D01*
G01*
X168875000Y5025000D02*
G75*
G03*
X169200000Y5350000I0J325000D01*
G01*
X168250000Y5350000D02*
G75*
G03*
X168575000Y5025000I325000J0D01*
G01*
X168575000Y5675000D02*
G75*
G03*
X168250000Y5350000I0J-325000D01*
G01*
%TO.C,J1*%
X38875000Y5025000D02*
X38575000Y5025000D01*
X38575000Y5675000D02*
X38875000Y5675000D01*
X39200000Y5350000D02*
G75*
G03*
X38875000Y5675000I-325000J0D01*
G01*
X38875000Y5025000D02*
G75*
G03*
X39200000Y5350000I0J325000D01*
G01*
X38250000Y5350000D02*
G75*
G03*
X38575000Y5025000I325000J0D01*
G01*
X38575000Y5675000D02*
G75*
G03*
X38250000Y5350000I0J-325000D01*
G01*
%TD*%
M02*
