%TF.GenerationSoftware,KiCad,Pcbnew,6.0.0*%
%TF.CreationDate,2022-01-14T14:38:36+01:00*%
%TF.ProjectId,PowerBank V0.2,506f7765-7242-4616-9e6b-2056302e322e,rev?*%
%TF.SameCoordinates,PX2aea540PY80befc0*%
%TF.FileFunction,Soldermask,Bot*%
%TF.FilePolarity,Negative*%
%FSLAX46Y46*%
G04 Gerber Fmt 4.6, Leading zero omitted, Abs format (unit mm)*
G04 Created by KiCad (PCBNEW 6.0.0) date 2022-01-14 14:38:36*
%MOMM*%
%LPD*%
G01*
G04 APERTURE LIST*
G04 Aperture macros list*
%AMRoundRect*
0 Rectangle with rounded corners*
0 $1 Rounding radius*
0 $2 $3 $4 $5 $6 $7 $8 $9 X,Y pos of 4 corners*
0 Add a 4 corners polygon primitive as box body*
4,1,4,$2,$3,$4,$5,$6,$7,$8,$9,$2,$3,0*
0 Add four circle primitives for the rounded corners*
1,1,$1+$1,$2,$3*
1,1,$1+$1,$4,$5*
1,1,$1+$1,$6,$7*
1,1,$1+$1,$8,$9*
0 Add four rect primitives between the rounded corners*
20,1,$1+$1,$2,$3,$4,$5,0*
20,1,$1+$1,$4,$5,$6,$7,0*
20,1,$1+$1,$6,$7,$8,$9,0*
20,1,$1+$1,$8,$9,$2,$3,0*%
G04 Aperture macros list end*
%ADD10R,1.000000X1.000000*%
%ADD11O,1.000000X1.000000*%
%ADD12RoundRect,0.200000X-0.200000X-0.275000X0.200000X-0.275000X0.200000X0.275000X-0.200000X0.275000X0*%
%ADD13RoundRect,0.135000X0.135000X0.185000X-0.135000X0.185000X-0.135000X-0.185000X0.135000X-0.185000X0*%
%ADD14RoundRect,0.200000X0.200000X0.275000X-0.200000X0.275000X-0.200000X-0.275000X0.200000X-0.275000X0*%
%ADD15RoundRect,0.135000X-0.135000X-0.185000X0.135000X-0.185000X0.135000X0.185000X-0.135000X0.185000X0*%
%ADD16C,1.400000*%
%ADD17R,3.000000X3.000000*%
%ADD18C,3.000000*%
%ADD19C,0.800000*%
%ADD20C,5.000000*%
%ADD21RoundRect,0.225000X0.225000X0.250000X-0.225000X0.250000X-0.225000X-0.250000X0.225000X-0.250000X0*%
%ADD22RoundRect,0.225000X0.250000X-0.225000X0.250000X0.225000X-0.250000X0.225000X-0.250000X-0.225000X0*%
%ADD23RoundRect,0.225000X-0.225000X-0.250000X0.225000X-0.250000X0.225000X0.250000X-0.225000X0.250000X0*%
%ADD24R,0.350012X0.754888*%
%ADD25R,0.704800X0.300000*%
%ADD26R,0.704850X0.249936*%
%ADD27RoundRect,0.200000X0.275000X-0.200000X0.275000X0.200000X-0.275000X0.200000X-0.275000X-0.200000X0*%
%ADD28RoundRect,0.250000X-0.475000X0.250000X-0.475000X-0.250000X0.475000X-0.250000X0.475000X0.250000X0*%
%ADD29RoundRect,0.135000X0.185000X-0.135000X0.185000X0.135000X-0.185000X0.135000X-0.185000X-0.135000X0*%
%ADD30RoundRect,0.250000X-0.250000X-0.475000X0.250000X-0.475000X0.250000X0.475000X-0.250000X0.475000X0*%
%ADD31R,2.850000X6.600000*%
%ADD32RoundRect,0.140000X0.170000X-0.140000X0.170000X0.140000X-0.170000X0.140000X-0.170000X-0.140000X0*%
%ADD33RoundRect,0.140000X-0.170000X0.140000X-0.170000X-0.140000X0.170000X-0.140000X0.170000X0.140000X0*%
%ADD34R,2.000000X5.500000*%
%ADD35C,0.400000*%
%ADD36C,0.499999*%
%ADD37R,1.599999X0.900001*%
%ADD38R,0.249999X0.499999*%
%ADD39R,0.750000X0.350000*%
%ADD40R,2.200000X2.600000*%
%ADD41R,0.350000X0.750000*%
%ADD42RoundRect,0.150000X0.150000X-0.825000X0.150000X0.825000X-0.150000X0.825000X-0.150000X-0.825000X0*%
%ADD43R,2.000000X3.800000*%
%ADD44R,2.000000X1.500000*%
%ADD45R,1.000001X0.599999*%
%ADD46RoundRect,0.075000X-0.662500X-0.075000X0.662500X-0.075000X0.662500X0.075000X-0.662500X0.075000X0*%
%ADD47RoundRect,0.075000X-0.075000X-0.662500X0.075000X-0.662500X0.075000X0.662500X-0.075000X0.662500X0*%
%ADD48C,2.000000*%
%ADD49R,2.000000X2.000000*%
%ADD50RoundRect,0.249999X-0.625001X0.312501X-0.625001X-0.312501X0.625001X-0.312501X0.625001X0.312501X0*%
%ADD51RoundRect,0.200000X-0.275000X0.200000X-0.275000X-0.200000X0.275000X-0.200000X0.275000X0.200000X0*%
%ADD52RoundRect,0.135000X-0.185000X0.135000X-0.185000X-0.135000X0.185000X-0.135000X0.185000X0.135000X0*%
%ADD53R,14.500000X5.000000*%
%ADD54RoundRect,0.147500X-0.147500X-0.172500X0.147500X-0.172500X0.147500X0.172500X-0.147500X0.172500X0*%
%ADD55C,0.650000*%
%ADD56O,1.000000X2.000000*%
%ADD57R,1.700000X1.700000*%
%ADD58O,1.700000X1.700000*%
%ADD59RoundRect,0.225000X-0.250000X0.225000X-0.250000X-0.225000X0.250000X-0.225000X0.250000X0.225000X0*%
%ADD60RoundRect,0.250000X0.787500X1.025000X-0.787500X1.025000X-0.787500X-1.025000X0.787500X-1.025000X0*%
%ADD61RoundRect,0.250000X0.250000X0.475000X-0.250000X0.475000X-0.250000X-0.475000X0.250000X-0.475000X0*%
%ADD62RoundRect,0.250000X-0.787500X-1.025000X0.787500X-1.025000X0.787500X1.025000X-0.787500X1.025000X0*%
%ADD63RoundRect,0.140000X-0.140000X-0.170000X0.140000X-0.170000X0.140000X0.170000X-0.140000X0.170000X0*%
%ADD64RoundRect,0.140000X0.140000X0.170000X-0.140000X0.170000X-0.140000X-0.170000X0.140000X-0.170000X0*%
%ADD65RoundRect,0.250000X0.475000X-0.250000X0.475000X0.250000X-0.475000X0.250000X-0.475000X-0.250000X0*%
G04 APERTURE END LIST*
D10*
%TO.C,EN*%
X104225000Y32130000D03*
D11*
X105495000Y32130000D03*
%TD*%
D10*
%TO.C,3v3*%
X2244000Y50799000D03*
D11*
X2244000Y49529000D03*
%TD*%
D10*
%TO.C,IO8*%
X2244000Y53197000D03*
D11*
X2244000Y54467000D03*
%TD*%
D10*
%TO.C,EN*%
X2498000Y19318000D03*
D11*
X2498000Y18048000D03*
%TD*%
D10*
%TO.C,IO9*%
X2498000Y21716000D03*
D11*
X2498000Y22986000D03*
%TD*%
D12*
%TO.C,R146*%
X20595000Y79374000D03*
X18945000Y79374000D03*
%TD*%
D13*
%TO.C,R145*%
X19770000Y77088000D03*
X20790000Y77088000D03*
%TD*%
D14*
%TO.C,R144*%
X21104000Y75564000D03*
X22754000Y75564000D03*
%TD*%
D13*
%TO.C,R141*%
X19768000Y78104000D03*
X20788000Y78104000D03*
%TD*%
D14*
%TO.C,R137*%
X20278000Y63499000D03*
X21928000Y63499000D03*
%TD*%
%TO.C,R134*%
X20278000Y61975000D03*
X21928000Y61975000D03*
%TD*%
D15*
%TO.C,R127*%
X29678000Y67690000D03*
X28658000Y67690000D03*
%TD*%
D16*
%TO.C,J14*%
X188520000Y15445000D03*
X188520000Y2445000D03*
D17*
X178520000Y12445000D03*
D18*
X178520000Y8945000D03*
X178520000Y5445000D03*
%TD*%
D19*
%TO.C,H2*%
X4712825Y80191825D03*
X3387000Y80741000D03*
X2061175Y80191825D03*
X1512000Y78866000D03*
X2061175Y77540175D03*
X3387000Y76991000D03*
X4712825Y77540175D03*
X5262000Y78866000D03*
D20*
X3387000Y78866000D03*
%TD*%
D19*
%TO.C,H1*%
X4458825Y66475825D03*
X3133000Y67025000D03*
X1807175Y66475825D03*
X1258000Y65150000D03*
X1807175Y63824175D03*
X3133000Y63275000D03*
X4458825Y63824175D03*
X5008000Y65150000D03*
D20*
X3133000Y65150000D03*
%TD*%
D21*
%TO.C,C253*%
X18106000Y75564000D03*
X19656000Y75564000D03*
%TD*%
%TO.C,C252*%
X24202000Y75564000D03*
X25752000Y75564000D03*
%TD*%
D22*
%TO.C,C240*%
X23453000Y63512000D03*
X23453000Y61962000D03*
%TD*%
D23*
%TO.C,C239*%
X30451000Y72389000D03*
X28901000Y72389000D03*
%TD*%
%TO.C,C237*%
X30451000Y70865000D03*
X28901000Y70865000D03*
%TD*%
%TO.C,C235*%
X30438000Y69341000D03*
X28888000Y69341000D03*
%TD*%
%TO.C,C226*%
X21815000Y65023000D03*
X20265000Y65023000D03*
%TD*%
D24*
%TO.C,U18*%
X110400000Y18517556D03*
D25*
X111127400Y18719999D03*
D26*
X111127400Y19220000D03*
X111127400Y19720000D03*
D25*
X111127400Y20220001D03*
D24*
X110400000Y20422444D03*
D25*
X109672600Y20220001D03*
D26*
X109672600Y19720000D03*
X109672600Y19220000D03*
D25*
X109672600Y18719999D03*
%TD*%
D27*
%TO.C,R55*%
X92720000Y13500000D03*
X92720000Y15150000D03*
%TD*%
D28*
%TO.C,C124*%
X96250000Y13750000D03*
X96250000Y11850000D03*
%TD*%
D29*
%TO.C,R125*%
X150950000Y7465000D03*
X150950000Y8485000D03*
%TD*%
D10*
%TO.C,FLASH*%
X106000000Y29000000D03*
D11*
X107270000Y29000000D03*
X106000000Y27730000D03*
X107270000Y27730000D03*
X106000000Y26460000D03*
X107270000Y26460000D03*
%TD*%
D10*
%TO.C,J12*%
X126700000Y81670000D03*
D11*
X127970000Y81670000D03*
X126700000Y80400000D03*
X127970000Y80400000D03*
X126700000Y79130000D03*
X127970000Y79130000D03*
%TD*%
D10*
%TO.C,J11*%
X41050000Y73100000D03*
D11*
X41050000Y74370000D03*
%TD*%
D10*
%TO.C,J10*%
X37850000Y74450000D03*
D11*
X37850000Y73180000D03*
%TD*%
D30*
%TO.C,C116*%
X167250000Y60300000D03*
X169150000Y60300000D03*
%TD*%
D31*
%TO.C,L3*%
X58400000Y76675000D03*
X64050000Y76675000D03*
%TD*%
D32*
%TO.C,C220*%
X100300000Y11920000D03*
X100300000Y12880000D03*
%TD*%
%TO.C,C219*%
X100000000Y20420000D03*
X100000000Y21380000D03*
%TD*%
D33*
%TO.C,C195*%
X99250000Y12880000D03*
X99250000Y11920000D03*
%TD*%
D34*
%TO.C,Y2*%
X132750000Y4175000D03*
X132750000Y14075000D03*
%TD*%
D35*
%TO.C,Y1*%
X138050000Y8200000D03*
X137350000Y8200000D03*
%TD*%
D36*
%TO.C,U35*%
X64100001Y38800000D03*
X63000004Y38800000D03*
D37*
X63550000Y38800000D03*
D38*
X62800002Y37849999D03*
X63300000Y37849999D03*
X63800002Y37849999D03*
X64300001Y37849999D03*
X64300001Y39750001D03*
X63800002Y39750001D03*
X63300000Y39750001D03*
X62800002Y39750001D03*
%TD*%
D36*
%TO.C,U34*%
X25250001Y36000000D03*
X24150004Y36000000D03*
D37*
X24700000Y36000000D03*
D38*
X23950002Y35049999D03*
X24450000Y35049999D03*
X24950002Y35049999D03*
X25450001Y35049999D03*
X25450001Y36950001D03*
X24950002Y36950001D03*
X24450000Y36950001D03*
X23950002Y36950001D03*
%TD*%
D36*
%TO.C,U33*%
X113550001Y39000000D03*
X112450004Y39000000D03*
D37*
X113000000Y39000000D03*
D38*
X112250002Y38049999D03*
X112750000Y38049999D03*
X113250002Y38049999D03*
X113750001Y38049999D03*
X113750001Y39950001D03*
X113250002Y39950001D03*
X112750000Y39950001D03*
X112250002Y39950001D03*
%TD*%
D36*
%TO.C,U32*%
X152050001Y38500000D03*
X150950004Y38500000D03*
D37*
X151500000Y38500000D03*
D38*
X150750002Y37549999D03*
X151250000Y37549999D03*
X151750002Y37549999D03*
X152250001Y37549999D03*
X152250001Y39450001D03*
X151750002Y39450001D03*
X151250000Y39450001D03*
X150750002Y39450001D03*
%TD*%
D39*
%TO.C,U31*%
X125080000Y49625000D03*
X121880000Y49625000D03*
X125080000Y50275000D03*
X121880000Y50275000D03*
X125080000Y50925000D03*
X121880000Y50925000D03*
X125080000Y51575000D03*
X121880000Y51575000D03*
D40*
X124050000Y50600000D03*
D41*
X123520000Y49500000D03*
X123520000Y51700000D03*
%TD*%
D39*
%TO.C,U30*%
X77530000Y49625000D03*
X74330000Y49625000D03*
X77530000Y50275000D03*
X74330000Y50275000D03*
X77530000Y50925000D03*
X74330000Y50925000D03*
X77530000Y51575000D03*
X74330000Y51575000D03*
D40*
X76500000Y50600000D03*
D41*
X75970000Y49500000D03*
X75970000Y51700000D03*
%TD*%
D39*
%TO.C,U29*%
X119480000Y49675000D03*
X116280000Y49675000D03*
X119480000Y50325000D03*
X116280000Y50325000D03*
X119480000Y50975000D03*
X116280000Y50975000D03*
X119480000Y51625000D03*
X116280000Y51625000D03*
D40*
X118450000Y50650000D03*
D41*
X117920000Y49550000D03*
X117920000Y51750000D03*
%TD*%
D39*
%TO.C,U28*%
X71400000Y49625000D03*
X68200000Y49625000D03*
X71400000Y50275000D03*
X68200000Y50275000D03*
X71400000Y50925000D03*
X68200000Y50925000D03*
X71400000Y51575000D03*
X68200000Y51575000D03*
D40*
X70370000Y50600000D03*
D41*
X69840000Y49500000D03*
X69840000Y51700000D03*
%TD*%
D39*
%TO.C,U27*%
X119950000Y25025000D03*
X116750000Y25025000D03*
X119950000Y25675000D03*
X116750000Y25675000D03*
X119950000Y26325000D03*
X116750000Y26325000D03*
X119950000Y26975000D03*
X116750000Y26975000D03*
D40*
X118920000Y26000000D03*
D41*
X118390000Y24900000D03*
X118390000Y27100000D03*
%TD*%
D36*
%TO.C,U26*%
X135200000Y38200000D03*
X134050000Y39350000D03*
X134050000Y38200000D03*
X134050000Y37050000D03*
X132900000Y38200000D03*
%TD*%
%TO.C,U25*%
X100399999Y16200000D03*
X100399999Y15250000D03*
X102150000Y16200000D03*
X102150000Y15250000D03*
X101275001Y15250000D03*
X101275001Y16200000D03*
X99800000Y19850001D03*
X98480000Y19850001D03*
X99800000Y18675400D03*
X97300000Y18650000D03*
X98480000Y18650000D03*
X98480000Y17450000D03*
X99800000Y17450000D03*
X101120000Y17450000D03*
X101120000Y18650000D03*
X102300000Y18650000D03*
X101120000Y19850001D03*
X98350000Y16200000D03*
X98350000Y15250000D03*
X97475001Y15250000D03*
X97475001Y16200000D03*
X99225002Y15250000D03*
X99225002Y16200000D03*
%TD*%
D39*
%TO.C,U24*%
X72100000Y25825000D03*
X68900000Y25825000D03*
X72100000Y26475000D03*
X68900000Y26475000D03*
X72100000Y27125000D03*
X68900000Y27125000D03*
X72100000Y27775000D03*
X68900000Y27775000D03*
D40*
X71070000Y26800000D03*
D41*
X70540000Y25700000D03*
X70540000Y27900000D03*
%TD*%
D36*
%TO.C,U23*%
X86450000Y38900000D03*
X85300000Y40050000D03*
X85300000Y38900000D03*
X85300000Y37750000D03*
X84150000Y38900000D03*
%TD*%
D39*
%TO.C,U22*%
X125480000Y25025000D03*
X122280000Y25025000D03*
X125480000Y25675000D03*
X122280000Y25675000D03*
X125480000Y26325000D03*
X122280000Y26325000D03*
X125480000Y26975000D03*
X122280000Y26975000D03*
D40*
X124450000Y26000000D03*
D41*
X123920000Y24900000D03*
X123920000Y27100000D03*
%TD*%
D39*
%TO.C,U21*%
X78600000Y25825000D03*
X75400000Y25825000D03*
X78600000Y26475000D03*
X75400000Y26475000D03*
X78600000Y27125000D03*
X75400000Y27125000D03*
X78600000Y27775000D03*
X75400000Y27775000D03*
D40*
X77570000Y26800000D03*
D41*
X77040000Y25700000D03*
X77040000Y27900000D03*
%TD*%
D42*
%TO.C,U19*%
X101405000Y24875000D03*
X100135000Y24875000D03*
X98865000Y24875000D03*
X97595000Y24875000D03*
X97595000Y29825000D03*
X98865000Y29825000D03*
X100135000Y29825000D03*
X101405000Y29825000D03*
%TD*%
D25*
%TO.C,U17*%
X90157400Y20190001D03*
D26*
X90157400Y19690000D03*
X90157400Y19190000D03*
D25*
X90157400Y18689999D03*
D24*
X89430000Y18487556D03*
D25*
X88702600Y18689999D03*
D26*
X88702600Y19190000D03*
X88702600Y19690000D03*
D25*
X88702600Y20190001D03*
D24*
X89430000Y20392444D03*
%TD*%
D39*
%TO.C,U16*%
X165900000Y49625000D03*
X162700000Y49625000D03*
X165900000Y50275000D03*
X162700000Y50275000D03*
X165900000Y50925000D03*
X162700000Y50925000D03*
X165900000Y51575000D03*
X162700000Y51575000D03*
D40*
X164870000Y50600000D03*
D41*
X164340000Y49500000D03*
X164340000Y51700000D03*
%TD*%
D39*
%TO.C,U15*%
X160600000Y49625000D03*
X157400000Y49625000D03*
X160600000Y50275000D03*
X157400000Y50275000D03*
X160600000Y50925000D03*
X157400000Y50925000D03*
X160600000Y51575000D03*
X157400000Y51575000D03*
D40*
X159570000Y50600000D03*
D41*
X159040000Y49500000D03*
X159040000Y51700000D03*
%TD*%
D39*
%TO.C,U14*%
X160630000Y26125000D03*
X157430000Y26125000D03*
X160630000Y26775000D03*
X157430000Y26775000D03*
X160630000Y27425000D03*
X157430000Y27425000D03*
X160630000Y28075000D03*
X157430000Y28075000D03*
D40*
X159600000Y27100000D03*
D41*
X159070000Y26000000D03*
X159070000Y28200000D03*
%TD*%
D36*
%TO.C,U13*%
X173550000Y38200000D03*
X172400000Y39350000D03*
X172400000Y38200000D03*
X172400000Y37050000D03*
X171250000Y38200000D03*
%TD*%
D39*
%TO.C,U12*%
X165730000Y26125000D03*
X162530000Y26125000D03*
X165730000Y26775000D03*
X162530000Y26775000D03*
X165730000Y27425000D03*
X162530000Y27425000D03*
X165730000Y28075000D03*
X162530000Y28075000D03*
D40*
X164700000Y27100000D03*
D41*
X164170000Y26000000D03*
X164170000Y28200000D03*
%TD*%
D43*
%TO.C,U9*%
X60850000Y7400000D03*
D44*
X54550000Y7400000D03*
X54550000Y9700000D03*
X54550000Y5100000D03*
%TD*%
D45*
%TO.C,U8*%
X71374999Y75474999D03*
X71374999Y76425000D03*
X71374999Y77374998D03*
X68624999Y77374998D03*
X68624999Y76425000D03*
X68624999Y75474999D03*
%TD*%
D46*
%TO.C,U6*%
X140412500Y7500000D03*
X140412500Y8000000D03*
X140412500Y8500000D03*
X140412500Y9000000D03*
X140412500Y9500000D03*
X140412500Y10000000D03*
X140412500Y10500000D03*
X140412500Y11000000D03*
X140412500Y11500000D03*
X140412500Y12000000D03*
X140412500Y12500000D03*
X140412500Y13000000D03*
D47*
X141825000Y14412500D03*
X142325000Y14412500D03*
X142825000Y14412500D03*
X143325000Y14412500D03*
X143825000Y14412500D03*
X144325000Y14412500D03*
X144825000Y14412500D03*
X145325000Y14412500D03*
X145825000Y14412500D03*
X146325000Y14412500D03*
X146825000Y14412500D03*
X147325000Y14412500D03*
D46*
X148737500Y13000000D03*
X148737500Y12500000D03*
X148737500Y12000000D03*
X148737500Y11500000D03*
X148737500Y11000000D03*
X148737500Y10500000D03*
X148737500Y10000000D03*
X148737500Y9500000D03*
X148737500Y9000000D03*
X148737500Y8500000D03*
X148737500Y8000000D03*
X148737500Y7500000D03*
D47*
X147325000Y6087500D03*
X146825000Y6087500D03*
X146325000Y6087500D03*
X145825000Y6087500D03*
X145325000Y6087500D03*
X144825000Y6087500D03*
X144325000Y6087500D03*
X143825000Y6087500D03*
X143325000Y6087500D03*
X142825000Y6087500D03*
X142325000Y6087500D03*
X141825000Y6087500D03*
%TD*%
D48*
%TO.C,S1*%
X134500000Y83000000D03*
X141000000Y83000000D03*
X134500000Y78500000D03*
D49*
X141000000Y78500000D03*
%TD*%
D12*
%TO.C,R109*%
X132675000Y55850000D03*
X134325000Y55850000D03*
%TD*%
D50*
%TO.C,R107*%
X128050000Y56562500D03*
X128050000Y53637500D03*
%TD*%
D12*
%TO.C,R106*%
X85775000Y57300000D03*
X87425000Y57300000D03*
%TD*%
%TO.C,R105*%
X132675000Y54300000D03*
X134325000Y54300000D03*
%TD*%
D50*
%TO.C,R104*%
X81100000Y57962500D03*
X81100000Y55037500D03*
%TD*%
D12*
%TO.C,R103*%
X85775000Y55700000D03*
X87425000Y55700000D03*
%TD*%
%TO.C,R88*%
X92875000Y59200000D03*
X94525000Y59200000D03*
%TD*%
%TO.C,R86*%
X128125000Y20200000D03*
X129775000Y20200000D03*
%TD*%
%TO.C,R84*%
X77675000Y21000000D03*
X79325000Y21000000D03*
%TD*%
D50*
%TO.C,R82*%
X125600000Y20950000D03*
X125600000Y18025000D03*
%TD*%
D12*
%TO.C,R81*%
X128100000Y18700000D03*
X129750000Y18700000D03*
%TD*%
D50*
%TO.C,R80*%
X75100000Y21762500D03*
X75100000Y18837500D03*
%TD*%
D12*
%TO.C,R79*%
X77675000Y19500000D03*
X79325000Y19500000D03*
%TD*%
D51*
%TO.C,R78*%
X133500000Y34125000D03*
X133500000Y32475000D03*
%TD*%
%TO.C,R77*%
X136500000Y34125000D03*
X136500000Y32475000D03*
%TD*%
%TO.C,R76*%
X83700000Y33550000D03*
X83700000Y31900000D03*
%TD*%
%TO.C,R75*%
X135000000Y34125000D03*
X135000000Y32475000D03*
%TD*%
%TO.C,R74*%
X86700000Y33525000D03*
X86700000Y31875000D03*
%TD*%
%TO.C,R73*%
X85200000Y33525000D03*
X85200000Y31875000D03*
%TD*%
D52*
%TO.C,R72*%
X102800000Y27550000D03*
X102800000Y26530000D03*
%TD*%
D12*
%TO.C,R65*%
X170675000Y57200000D03*
X172325000Y57200000D03*
%TD*%
D50*
%TO.C,R64*%
X166000000Y58062500D03*
X166000000Y55137500D03*
%TD*%
D12*
%TO.C,R63*%
X170675000Y55700000D03*
X172325000Y55700000D03*
%TD*%
D14*
%TO.C,R61*%
X83625000Y9100000D03*
X81975000Y9100000D03*
%TD*%
D12*
%TO.C,R54*%
X167675000Y20250000D03*
X169325000Y20250000D03*
%TD*%
D50*
%TO.C,R52*%
X165400000Y20762500D03*
X165400000Y17837500D03*
%TD*%
D12*
%TO.C,R51*%
X167675000Y18750000D03*
X169325000Y18750000D03*
%TD*%
D51*
%TO.C,R50*%
X171325000Y34225000D03*
X171325000Y32575000D03*
%TD*%
%TO.C,R49*%
X174300000Y34225000D03*
X174300000Y32575000D03*
%TD*%
D14*
%TO.C,R48*%
X104725000Y9200000D03*
X103075000Y9200000D03*
%TD*%
D51*
%TO.C,R47*%
X172800000Y34225000D03*
X172800000Y32575000D03*
%TD*%
D27*
%TO.C,R44*%
X113190000Y13015000D03*
X113190000Y14665000D03*
%TD*%
D12*
%TO.C,R43*%
X72575000Y81225000D03*
X74225000Y81225000D03*
%TD*%
%TO.C,R42*%
X69550000Y81200000D03*
X71200000Y81200000D03*
%TD*%
D27*
%TO.C,R41*%
X73450000Y73725000D03*
X73450000Y75375000D03*
%TD*%
D51*
%TO.C,R26*%
X135400000Y9475000D03*
X135400000Y7825000D03*
%TD*%
D53*
%TO.C,L6*%
X122050000Y32050000D03*
X122050000Y45050000D03*
%TD*%
%TO.C,L5*%
X72900000Y32300000D03*
X72900000Y45300000D03*
%TD*%
%TO.C,L4*%
X160900000Y32400000D03*
X160900000Y45400000D03*
%TD*%
D54*
%TO.C,L2*%
X137215000Y10100000D03*
X138185000Y10100000D03*
%TD*%
D55*
%TO.C,J9*%
X93050000Y6050000D03*
X92400000Y5350000D03*
X91600000Y5350000D03*
X91200000Y6050000D03*
X90800000Y5350000D03*
X90400000Y6050000D03*
X89600000Y6050000D03*
X89200000Y5350000D03*
X88800000Y6050000D03*
X88400000Y5350000D03*
X87600000Y5350000D03*
X86950000Y6050000D03*
X93725000Y5350000D03*
X86275000Y5350000D03*
D56*
X85500000Y6850000D03*
X94500000Y6850000D03*
X85500000Y1250000D03*
X94500000Y1250000D03*
%TD*%
D55*
%TO.C,J8*%
X113050000Y6050000D03*
X112400000Y5350000D03*
X111600000Y5350000D03*
X111200000Y6050000D03*
X110800000Y5350000D03*
X110400000Y6050000D03*
X109600000Y6050000D03*
X109200000Y5350000D03*
X108800000Y6050000D03*
X108400000Y5350000D03*
X107600000Y5350000D03*
X106950000Y6050000D03*
X113725000Y5350000D03*
X106275000Y5350000D03*
D56*
X105500000Y6850000D03*
X114500000Y6850000D03*
X105500000Y1250000D03*
X114500000Y1250000D03*
%TD*%
D55*
%TO.C,J7*%
X168050000Y6050000D03*
X167400000Y5350000D03*
X166600000Y5350000D03*
X166200000Y6050000D03*
X165800000Y5350000D03*
X165400000Y6050000D03*
X164600000Y6050000D03*
X164200000Y5350000D03*
X163800000Y6050000D03*
X163400000Y5350000D03*
X162600000Y5350000D03*
X161950000Y6050000D03*
X168725000Y5350000D03*
X161275000Y5350000D03*
D56*
X160500000Y6850000D03*
X169500000Y6850000D03*
X160500000Y1250000D03*
X169500000Y1250000D03*
%TD*%
D18*
%TO.C,J6*%
X178500000Y22026000D03*
X178500000Y25526000D03*
D17*
X178500000Y29026000D03*
D16*
X188500000Y19026000D03*
X188500000Y32026000D03*
%TD*%
D57*
%TO.C,J5*%
X148300000Y28200000D03*
D58*
X148300000Y25660000D03*
X148300000Y23120000D03*
X148300000Y20580000D03*
%TD*%
D10*
%TO.C,J4*%
X104400000Y48850000D03*
D11*
X105670000Y48850000D03*
X104400000Y47580000D03*
X105670000Y47580000D03*
X104400000Y46310000D03*
X105670000Y46310000D03*
X104400000Y45040000D03*
X105670000Y45040000D03*
X104400000Y43770000D03*
X105670000Y43770000D03*
X104400000Y42500000D03*
X105670000Y42500000D03*
X104400000Y41230000D03*
X105670000Y41230000D03*
X104400000Y39960000D03*
X105670000Y39960000D03*
X104400000Y38690000D03*
X105670000Y38690000D03*
X104400000Y37420000D03*
X105670000Y37420000D03*
X104400000Y36150000D03*
X105670000Y36150000D03*
%TD*%
D57*
%TO.C,J3*%
X141800000Y26500000D03*
D58*
X144340000Y26500000D03*
X141800000Y23960000D03*
X144340000Y23960000D03*
X141800000Y21420000D03*
X144340000Y21420000D03*
%TD*%
D59*
%TO.C,C225*%
X62900000Y36275000D03*
X62900000Y34725000D03*
%TD*%
%TO.C,C224*%
X24400000Y33675000D03*
X24400000Y32125000D03*
%TD*%
%TO.C,C223*%
X112500000Y36575000D03*
X112500000Y35025000D03*
%TD*%
%TO.C,C222*%
X150700000Y35975000D03*
X150700000Y34425000D03*
%TD*%
D30*
%TO.C,C221*%
X95450000Y18850000D03*
X97350000Y18850000D03*
%TD*%
D60*
%TO.C,C218*%
X121050000Y65600000D03*
X114825000Y65600000D03*
%TD*%
%TO.C,C217*%
X74012500Y67800000D03*
X67787500Y67800000D03*
%TD*%
D30*
%TO.C,C213*%
X129750000Y66400000D03*
X131650000Y66400000D03*
%TD*%
D61*
%TO.C,C211*%
X121600000Y62150000D03*
X119700000Y62150000D03*
%TD*%
D30*
%TO.C,C210*%
X82950000Y62000000D03*
X84850000Y62000000D03*
%TD*%
%TO.C,C209*%
X129750000Y64400000D03*
X131650000Y64400000D03*
%TD*%
%TO.C,C206*%
X83000000Y60000000D03*
X84900000Y60000000D03*
%TD*%
D62*
%TO.C,C205*%
X130287500Y60950000D03*
X136512500Y60950000D03*
%TD*%
D61*
%TO.C,C203*%
X121600000Y60150000D03*
X119700000Y60150000D03*
%TD*%
D62*
%TO.C,C202*%
X83487500Y65400000D03*
X89712500Y65400000D03*
%TD*%
D61*
%TO.C,C199*%
X74500000Y64400000D03*
X72600000Y64400000D03*
%TD*%
%TO.C,C197*%
X74450000Y62400000D03*
X72550000Y62400000D03*
%TD*%
D59*
%TO.C,C194*%
X98010000Y13365000D03*
X98010000Y11815000D03*
%TD*%
D22*
%TO.C,C193*%
X103680000Y11915000D03*
X103680000Y13465000D03*
%TD*%
D61*
%TO.C,C192*%
X74450000Y60400000D03*
X72550000Y60400000D03*
%TD*%
%TO.C,C191*%
X121600000Y58150000D03*
X119700000Y58150000D03*
%TD*%
D59*
%TO.C,C189*%
X130600000Y55875000D03*
X130600000Y54325000D03*
%TD*%
D61*
%TO.C,C188*%
X74450000Y58400000D03*
X72550000Y58400000D03*
%TD*%
%TO.C,C187*%
X121600000Y56150000D03*
X119700000Y56150000D03*
%TD*%
D59*
%TO.C,C185*%
X83900000Y57275000D03*
X83900000Y55725000D03*
%TD*%
D61*
%TO.C,C184*%
X74450000Y56400000D03*
X72550000Y56400000D03*
%TD*%
D21*
%TO.C,C182*%
X121675000Y54400000D03*
X120125000Y54400000D03*
%TD*%
%TO.C,C179*%
X74475000Y54700000D03*
X72925000Y54700000D03*
%TD*%
%TO.C,C173*%
X114875000Y51750000D03*
X113325000Y51750000D03*
%TD*%
%TO.C,C172*%
X66675000Y51800000D03*
X65125000Y51800000D03*
%TD*%
D23*
%TO.C,C166*%
X113650000Y27450000D03*
X115200000Y27450000D03*
%TD*%
%TO.C,C164*%
X65850000Y28100000D03*
X67400000Y28100000D03*
%TD*%
D63*
%TO.C,C161*%
X127690000Y24500000D03*
X128650000Y24500000D03*
%TD*%
D64*
%TO.C,C158*%
X73980000Y24700000D03*
X73020000Y24700000D03*
%TD*%
D23*
%TO.C,C154*%
X127575000Y23200000D03*
X129125000Y23200000D03*
%TD*%
D21*
%TO.C,C151*%
X73775000Y23400000D03*
X72225000Y23400000D03*
%TD*%
D59*
%TO.C,C149*%
X131650000Y20225000D03*
X131650000Y18675000D03*
%TD*%
%TO.C,C147*%
X81300000Y20975000D03*
X81300000Y19425000D03*
%TD*%
D61*
%TO.C,C143*%
X123350000Y10250000D03*
X121450000Y10250000D03*
%TD*%
%TO.C,C141*%
X72350000Y17000000D03*
X70450000Y17000000D03*
%TD*%
%TO.C,C139*%
X123350000Y12200000D03*
X121450000Y12200000D03*
%TD*%
%TO.C,C136*%
X72350000Y15000000D03*
X70450000Y15000000D03*
%TD*%
%TO.C,C133*%
X123350000Y14200000D03*
X121450000Y14200000D03*
%TD*%
%TO.C,C131*%
X72450000Y13000000D03*
X70550000Y13000000D03*
%TD*%
%TO.C,C128*%
X123350000Y16200000D03*
X121450000Y16200000D03*
%TD*%
D28*
%TO.C,C127*%
X101850000Y13850000D03*
X101850000Y11950000D03*
%TD*%
D61*
%TO.C,C125*%
X72450000Y11000000D03*
X70550000Y11000000D03*
%TD*%
D21*
%TO.C,C123*%
X101225000Y31875000D03*
X99675000Y31875000D03*
%TD*%
D60*
%TO.C,C121*%
X157900000Y68500000D03*
X151675000Y68500000D03*
%TD*%
D23*
%TO.C,C120*%
X106700000Y17875000D03*
X108250000Y17875000D03*
%TD*%
%TO.C,C118*%
X87775000Y21825000D03*
X89325000Y21825000D03*
%TD*%
D30*
%TO.C,C114*%
X167250000Y62300000D03*
X169150000Y62300000D03*
%TD*%
D61*
%TO.C,C113*%
X158250000Y65100000D03*
X156350000Y65100000D03*
%TD*%
D62*
%TO.C,C112*%
X167787500Y65700000D03*
X174012500Y65700000D03*
%TD*%
D61*
%TO.C,C109*%
X158250000Y63100000D03*
X156350000Y63100000D03*
%TD*%
%TO.C,C108*%
X158250000Y61100000D03*
X156350000Y61100000D03*
%TD*%
%TO.C,C107*%
X158250000Y59100000D03*
X156350000Y59100000D03*
%TD*%
D59*
%TO.C,C105*%
X169000000Y57275000D03*
X169000000Y55725000D03*
%TD*%
D61*
%TO.C,C104*%
X158250000Y57100000D03*
X156350000Y57100000D03*
%TD*%
D21*
%TO.C,C102*%
X158275000Y55400000D03*
X156725000Y55400000D03*
%TD*%
%TO.C,C101*%
X158250000Y53900000D03*
X156700000Y53900000D03*
%TD*%
%TO.C,C98*%
X155975000Y51800000D03*
X154425000Y51800000D03*
%TD*%
D61*
%TO.C,C97*%
X87080000Y9160000D03*
X85180000Y9160000D03*
%TD*%
D23*
%TO.C,C92*%
X154125000Y28100000D03*
X155675000Y28100000D03*
%TD*%
D64*
%TO.C,C90*%
X162460000Y23900000D03*
X161500000Y23900000D03*
%TD*%
D21*
%TO.C,C86*%
X162275000Y22700000D03*
X160725000Y22700000D03*
%TD*%
%TO.C,C85*%
X90700000Y16025000D03*
X89150000Y16025000D03*
%TD*%
D59*
%TO.C,C83*%
X171000000Y20275000D03*
X171000000Y18725000D03*
%TD*%
D61*
%TO.C,C80*%
X162450000Y10400000D03*
X160550000Y10400000D03*
%TD*%
%TO.C,C78*%
X108150000Y9200000D03*
X106250000Y9200000D03*
%TD*%
%TO.C,C77*%
X162450000Y12400000D03*
X160550000Y12400000D03*
%TD*%
%TO.C,C74*%
X162450000Y14400000D03*
X160550000Y14400000D03*
%TD*%
%TO.C,C69*%
X162450000Y16400000D03*
X160550000Y16400000D03*
%TD*%
D21*
%TO.C,C65*%
X108175000Y11030000D03*
X106625000Y11030000D03*
%TD*%
D22*
%TO.C,C64*%
X52200000Y9625000D03*
X52200000Y11175000D03*
%TD*%
D28*
%TO.C,C63*%
X52200000Y6850000D03*
X52200000Y4950000D03*
%TD*%
D65*
%TO.C,C62*%
X55025000Y79875000D03*
X55025000Y81775000D03*
%TD*%
%TO.C,C61*%
X53050000Y79875000D03*
X53050000Y81775000D03*
%TD*%
D23*
%TO.C,C60*%
X70375000Y73825000D03*
X71925000Y73825000D03*
%TD*%
D30*
%TO.C,C59*%
X69550000Y79000000D03*
X71450000Y79000000D03*
%TD*%
D21*
%TO.C,C56*%
X137950000Y12800000D03*
X136400000Y12800000D03*
%TD*%
%TO.C,C55*%
X137950000Y11300000D03*
X136400000Y11300000D03*
%TD*%
D23*
%TO.C,C54*%
X149125000Y6275000D03*
X150675000Y6275000D03*
%TD*%
D22*
%TO.C,C53*%
X148550000Y14800000D03*
X148550000Y16350000D03*
%TD*%
D59*
%TO.C,C52*%
X140475000Y5450000D03*
X140475000Y3900000D03*
%TD*%
D21*
%TO.C,C51*%
X138625000Y6575000D03*
X137075000Y6575000D03*
%TD*%
D61*
%TO.C,C50*%
X138575000Y4850000D03*
X136675000Y4850000D03*
%TD*%
D21*
%TO.C,C49*%
X129850000Y14200000D03*
X128300000Y14200000D03*
%TD*%
%TO.C,C48*%
X129950000Y4200000D03*
X128400000Y4200000D03*
%TD*%
D39*
%TO.C,U5*%
X37705000Y47025000D03*
X34505000Y47025000D03*
X37705000Y47675000D03*
X34505000Y47675000D03*
X37705000Y48325000D03*
X34505000Y48325000D03*
X37705000Y48975000D03*
X34505000Y48975000D03*
D40*
X36675000Y48000000D03*
D41*
X36145000Y46900000D03*
X36145000Y49100000D03*
%TD*%
D39*
%TO.C,U4*%
X30955000Y47025000D03*
X27755000Y47025000D03*
X30955000Y47675000D03*
X27755000Y47675000D03*
X30955000Y48325000D03*
X27755000Y48325000D03*
X30955000Y48975000D03*
X27755000Y48975000D03*
D40*
X29925000Y48000000D03*
D41*
X29395000Y46900000D03*
X29395000Y49100000D03*
%TD*%
D39*
%TO.C,U3*%
X30955000Y23775000D03*
X27755000Y23775000D03*
X30955000Y24425000D03*
X27755000Y24425000D03*
X30955000Y25075000D03*
X27755000Y25075000D03*
X30955000Y25725000D03*
X27755000Y25725000D03*
D40*
X29925000Y24750000D03*
D41*
X29395000Y23650000D03*
X29395000Y25850000D03*
%TD*%
D36*
%TO.C,U2*%
X48575081Y36899916D03*
X47425081Y38049916D03*
X47425081Y36899916D03*
X47425081Y35749916D03*
X46275081Y36899916D03*
%TD*%
D39*
%TO.C,U1*%
X37525000Y23775000D03*
X34325000Y23775000D03*
X37525000Y24425000D03*
X34325000Y24425000D03*
X37525000Y25075000D03*
X34325000Y25075000D03*
X37525000Y25725000D03*
X34325000Y25725000D03*
D40*
X36495000Y24750000D03*
D41*
X35965000Y23650000D03*
X35965000Y25850000D03*
%TD*%
D12*
%TO.C,R18*%
X46775000Y52500000D03*
X48425000Y52500000D03*
%TD*%
D50*
%TO.C,R17*%
X42775000Y53325000D03*
X42775000Y50400000D03*
%TD*%
D12*
%TO.C,R16*%
X46775000Y50975000D03*
X48425000Y50975000D03*
%TD*%
%TO.C,R10*%
X92875000Y60800000D03*
X94525000Y60800000D03*
%TD*%
%TO.C,R9*%
X36175000Y18100000D03*
X37825000Y18100000D03*
%TD*%
D50*
%TO.C,R7*%
X34075000Y19062500D03*
X34075000Y16137500D03*
%TD*%
D12*
%TO.C,R6*%
X36175000Y16600000D03*
X37825000Y16600000D03*
%TD*%
D51*
%TO.C,R5*%
X46400000Y32725000D03*
X46400000Y31075000D03*
%TD*%
%TO.C,R4*%
X49400000Y32725000D03*
X49400000Y31075000D03*
%TD*%
%TO.C,R2*%
X47900000Y32725000D03*
X47900000Y31075000D03*
%TD*%
D53*
%TO.C,L1*%
X33675000Y30000000D03*
X33675000Y43000000D03*
%TD*%
D55*
%TO.C,J1*%
X38050000Y6050000D03*
X37400000Y5350000D03*
X36600000Y5350000D03*
X36200000Y6050000D03*
X35800000Y5350000D03*
X35400000Y6050000D03*
X34600000Y6050000D03*
X34200000Y5350000D03*
X33800000Y6050000D03*
X33400000Y5350000D03*
X32600000Y5350000D03*
X31950000Y6050000D03*
X38725000Y5350000D03*
X31275000Y5350000D03*
D56*
X30500000Y6850000D03*
X39500000Y6850000D03*
X30500000Y1250000D03*
X39500000Y1250000D03*
%TD*%
D60*
%TO.C,C45*%
X34075000Y64400000D03*
X27850000Y64400000D03*
%TD*%
D30*
%TO.C,C42*%
X45050000Y63350000D03*
X46950000Y63350000D03*
%TD*%
%TO.C,C40*%
X45050000Y61375000D03*
X46950000Y61375000D03*
%TD*%
D62*
%TO.C,C38*%
X45550000Y57875000D03*
X51775000Y57875000D03*
%TD*%
D61*
%TO.C,C36*%
X34500000Y60900000D03*
X32600000Y60900000D03*
%TD*%
%TO.C,C35*%
X34500000Y58900000D03*
X32600000Y58900000D03*
%TD*%
%TO.C,C34*%
X34500000Y56900000D03*
X32600000Y56900000D03*
%TD*%
%TO.C,C33*%
X34500000Y54900000D03*
X32600000Y54900000D03*
%TD*%
D59*
%TO.C,C31*%
X45075000Y52525000D03*
X45075000Y50975000D03*
%TD*%
D61*
%TO.C,C30*%
X34500000Y52950000D03*
X32600000Y52950000D03*
%TD*%
D21*
%TO.C,C28*%
X34400000Y51200000D03*
X32850000Y51200000D03*
%TD*%
%TO.C,C24*%
X26200000Y49200000D03*
X24650000Y49200000D03*
%TD*%
D23*
%TO.C,C21*%
X24735000Y25710000D03*
X26285000Y25710000D03*
%TD*%
D64*
%TO.C,C19*%
X33030000Y20610000D03*
X32070000Y20610000D03*
%TD*%
D21*
%TO.C,C15*%
X33970000Y21870000D03*
X32420000Y21870000D03*
%TD*%
D59*
%TO.C,C14*%
X39825000Y18150000D03*
X39825000Y16600000D03*
%TD*%
D61*
%TO.C,C11*%
X31875000Y9250000D03*
X29975000Y9250000D03*
%TD*%
%TO.C,C8*%
X31875000Y11250000D03*
X29975000Y11250000D03*
%TD*%
%TO.C,C5*%
X31875000Y13250000D03*
X29975000Y13250000D03*
%TD*%
%TO.C,C2*%
X31975000Y15250000D03*
X30075000Y15250000D03*
%TD*%
M02*
